<svg xmlns="http://www.w3.org/2000/svg" xmlns:xlink="http://www.w3.org/1999/xlink" width="500" zoomAndPan="magnify" viewBox="0 0 375 374.999991" height="500" preserveAspectRatio="xMidYMid meet" version="1.0"><defs><clipPath id="434fb2067a"><path d="M 81.277344 64.65625 L 293.527344 64.65625 L 293.527344 310.65625 L 81.277344 310.65625 Z M 81.277344 64.65625 " clip-rule="nonzero"/></clipPath><clipPath id="2b27bb5cf2"><path d="M 85.527344 69.570312 L 289.527344 69.570312 L 289.527344 305.070312 L 85.527344 305.070312 Z M 85.527344 69.570312 " clip-rule="nonzero"/></clipPath><clipPath id="8629d4961b"><path d="M 91.007812 75.910156 L 283.757812 75.910156 L 283.757812 299.410156 L 91.007812 299.410156 Z M 91.007812 75.910156 " clip-rule="nonzero"/></clipPath><clipPath id="17dd1e0e9d"><path d="M 178.894531 82.671875 L 193.082031 82.671875 L 193.082031 95.964844 L 178.894531 95.964844 Z M 178.894531 82.671875 " clip-rule="nonzero"/></clipPath><clipPath id="864faeadc3"><path d="M 164.160156 95.964844 L 175.878906 95.964844 L 175.878906 106.945312 L 164.160156 106.945312 Z M 164.160156 95.964844 " clip-rule="nonzero"/></clipPath><clipPath id="d39c2cd09f"><path d="M 196.0625 95.964844 L 207.78125 95.964844 L 207.78125 106.945312 L 196.0625 106.945312 Z M 196.0625 95.964844 " clip-rule="nonzero"/></clipPath><clipPath id="c162210087"><path d="M 106.632812 123 L 219 123 L 219 263.894531 L 106.632812 263.894531 Z M 106.632812 123 " clip-rule="nonzero"/></clipPath><clipPath id="7712cc01cc"><path d="M 106.632812 149 L 179 149 L 179 263.894531 L 106.632812 263.894531 Z M 106.632812 149 " clip-rule="nonzero"/></clipPath><clipPath id="909cf6e671"><path d="M 182.707031 123 L 277 123 L 277 277 L 182.707031 277 Z M 182.707031 123 " clip-rule="nonzero"/></clipPath><clipPath id="f6f55db201"><path d="M 182.707031 147 L 277 147 L 277 277 L 182.707031 277 Z M 182.707031 147 " clip-rule="nonzero"/></clipPath></defs><g clip-path="url(#434fb2067a)"><path fill="#151f28" d="M 187.402344 64.65625 C 128.789062 64.65625 81.277344 119.722656 81.277344 187.65625 C 81.277344 255.585938 128.789062 310.65625 187.402344 310.65625 C 246.011719 310.65625 293.527344 255.585938 293.527344 187.65625 C 293.527344 119.722656 246.011719 64.65625 187.402344 64.65625 " fill-opacity="1" fill-rule="nonzero"/></g><g clip-path="url(#2b27bb5cf2)"><path fill="#ffb014" d="M 187.527344 69.570312 C 131.191406 69.570312 85.527344 122.289062 85.527344 187.320312 C 85.527344 252.351562 131.191406 305.070312 187.527344 305.070312 C 243.859375 305.070312 289.527344 252.351562 289.527344 187.320312 C 289.527344 122.289062 243.859375 69.570312 187.527344 69.570312 " fill-opacity="1" fill-rule="nonzero"/></g><g clip-path="url(#8629d4961b)"><path fill="#151f28" d="M 187.382812 75.910156 C 134.15625 75.910156 91.007812 125.941406 91.007812 187.660156 C 91.007812 249.378906 134.15625 299.410156 187.382812 299.410156 C 240.609375 299.410156 283.757812 249.378906 283.757812 187.660156 C 283.757812 125.941406 240.609375 75.910156 187.382812 75.910156 " fill-opacity="1" fill-rule="nonzero"/></g><g clip-path="url(#17dd1e0e9d)"><path fill="#fbcb06" d="M 186.300781 82.917969 L 187.695312 87.308594 C 187.726562 87.410156 187.816406 87.464844 187.917969 87.464844 L 192.847656 87.433594 C 193.070312 87.433594 193.160156 87.710938 192.980469 87.84375 L 188.964844 90.714844 C 188.886719 90.769531 188.855469 90.882812 188.886719 90.972656 L 190.449219 95.652344 C 190.515625 95.863281 190.28125 96.042969 190.105469 95.910156 L 186.179688 93.039062 C 186.054688 92.949219 185.910156 92.949219 185.789062 93.039062 L 181.875 95.917969 C 181.695312 96.054688 181.449219 95.875 181.527344 95.664062 L 183.089844 90.984375 C 183.121094 90.894531 183.089844 90.78125 183.011719 90.726562 L 178.996094 87.855469 C 178.816406 87.722656 178.90625 87.441406 179.128906 87.441406 L 184.058594 87.476562 C 184.160156 87.476562 184.25 87.410156 184.28125 87.320312 L 185.664062 82.917969 C 185.777344 82.597656 186.199219 82.597656 186.300781 82.917969 Z M 186.300781 82.917969 " fill-opacity="1" fill-rule="nonzero"/></g><g clip-path="url(#864faeadc3)"><path fill="#fbcb06" d="M 170.277344 96.167969 L 171.429688 99.792969 C 171.457031 99.878906 171.53125 99.921875 171.613281 99.921875 L 175.683594 99.894531 C 175.867188 99.894531 175.941406 100.125 175.796875 100.238281 L 172.480469 102.609375 C 172.414062 102.652344 172.386719 102.746094 172.414062 102.820312 L 173.703125 106.6875 C 173.757812 106.859375 173.566406 107.007812 173.417969 106.898438 L 170.175781 104.527344 C 170.074219 104.453125 169.953125 104.453125 169.851562 104.527344 L 166.621094 106.90625 C 166.472656 107.019531 166.269531 106.871094 166.335938 106.695312 L 167.625 102.828125 C 167.652344 102.753906 167.625 102.664062 167.558594 102.617188 L 164.242188 100.246094 C 164.09375 100.136719 164.167969 99.90625 164.355469 99.90625 L 168.425781 99.933594 C 168.507812 99.933594 168.582031 99.878906 168.609375 99.804688 L 169.75 96.167969 C 169.84375 95.902344 170.195312 95.902344 170.277344 96.167969 Z M 170.277344 96.167969 " fill-opacity="1" fill-rule="nonzero"/></g><g clip-path="url(#d39c2cd09f)"><path fill="#fbcb06" d="M 202.179688 96.167969 L 203.328125 99.792969 C 203.359375 99.878906 203.429688 99.921875 203.515625 99.921875 L 207.585938 99.894531 C 207.769531 99.894531 207.84375 100.125 207.695312 100.238281 L 204.378906 102.609375 C 204.316406 102.652344 204.289062 102.746094 204.316406 102.820312 L 205.605469 106.6875 C 205.660156 106.859375 205.46875 107.007812 205.320312 106.898438 L 202.078125 104.527344 C 201.976562 104.453125 201.855469 104.453125 201.753906 104.527344 L 198.519531 106.90625 C 198.375 107.019531 198.171875 106.871094 198.234375 106.695312 L 199.523438 102.828125 C 199.554688 102.753906 199.523438 102.664062 199.460938 102.617188 L 196.144531 100.246094 C 195.996094 100.136719 196.070312 99.90625 196.253906 99.90625 L 200.328125 99.933594 C 200.410156 99.933594 200.484375 99.878906 200.511719 99.804688 L 201.652344 96.167969 C 201.746094 95.902344 202.09375 95.902344 202.179688 96.167969 Z M 202.179688 96.167969 " fill-opacity="1" fill-rule="nonzero"/></g><g clip-path="url(#c162210087)"><path fill="#ffb014" d="M 218.484375 186.636719 C 218.484375 186.636719 218.859375 186.261719 218.59375 185.832031 C 218.324219 185.40625 216.507812 183.367188 215.539062 182.671875 C 214.578125 181.976562 213.882812 182.191406 209.652344 181.601562 C 205.421875 181.011719 205.527344 181.921875 201.726562 177.800781 C 197.925781 173.675781 193.855469 167.945312 190.21875 166.125 C 186.574219 164.300781 184.917969 162.695312 182.242188 160.179688 C 179.566406 157.660156 176.886719 157.070312 171.90625 153.269531 C 166.929688 149.46875 161.839844 150.214844 161.839844 150.214844 L 155.953125 149.039062 C 155.953125 149.039062 155.820312 149.070312 155.601562 149.121094 C 154.851562 148.851562 153.90625 148.480469 153.597656 148.234375 C 153.589844 148.234375 153.585938 148.226562 153.582031 148.222656 C 153.09375 147.820312 153.109375 147.058594 153.113281 146.960938 C 153.113281 146.957031 153.113281 146.949219 153.113281 146.949219 C 153.113281 146.949219 153.125 146.953125 153.128906 146.957031 C 153.273438 147 155.179688 147.589844 155.898438 147.488281 C 156.648438 147.378906 157.238281 145.882812 157.828125 144.863281 C 158.414062 143.84375 159.058594 141.648438 159.113281 139.882812 C 159.164062 138.210938 158.785156 138.214844 159.238281 136.90625 C 159.289062 136.890625 159.324219 136.882812 159.324219 136.882812 C 159.324219 136.882812 159.300781 136.867188 159.257812 136.847656 C 159.277344 136.789062 159.300781 136.734375 159.324219 136.671875 C 159.488281 136.234375 159.578125 135.839844 159.609375 135.4375 C 159.621094 135.4375 159.628906 135.4375 159.628906 135.4375 C 159.628906 135.4375 159.753906 135.117188 159.628906 134.796875 C 159.628906 134.796875 159.621094 134.796875 159.617188 134.796875 C 159.574219 133.929688 159.335938 132.914062 159.058594 131.3125 C 159.023438 131.117188 158.980469 130.925781 158.925781 130.734375 C 159.167969 129.773438 157.730469 127 154.882812 126.171875 C 154.976562 126.199219 155.066406 126.234375 155.160156 126.265625 C 155.058594 126.210938 154.957031 126.160156 154.851562 126.105469 C 153.980469 124.128906 152.035156 123.761719 151.136719 123.761719 C 150.230469 123.761719 147.65625 123.066406 145.945312 124.082031 C 144.230469 125.097656 143.214844 124.832031 142.355469 125.851562 C 141.5 126.867188 141.449219 127.242188 141.449219 127.242188 C 141.449219 127.242188 141.128906 127.777344 139.199219 126.386719 C 137.273438 124.992188 135.132812 123.867188 132.402344 125.097656 C 129.671875 126.332031 128.171875 127.992188 126.402344 127.5625 C 125.546875 128.847656 127.046875 130.136719 126.832031 131.042969 C 126.617188 131.953125 124.746094 133.828125 125.4375 135.382812 C 126.136719 136.9375 128.703125 137.847656 128.703125 137.847656 C 128.703125 137.847656 129.023438 141.0625 129.398438 142.828125 C 129.777344 144.597656 131.648438 145.183594 131.648438 145.183594 C 131.648438 145.183594 132.453125 144.757812 133.949219 144.8125 C 135.449219 144.863281 138.074219 143.847656 138.714844 141.8125 C 139.359375 139.773438 140.75 139.9375 141.445312 137.578125 C 141.445312 137.578125 143.480469 140.578125 146.050781 142.453125 C 146.03125 142.402344 146.011719 142.351562 145.992188 142.300781 C 146.117188 142.609375 146.246094 142.941406 146.371094 143.308594 C 147.039062 145.265625 147.117188 148.945312 147.121094 149.234375 C 146.046875 149.132812 145.25 149.042969 145.25 149.042969 L 145.003906 149.085938 L 141.605469 149.6875 C 141.605469 149.6875 138.34375 150.4375 136.679688 151.398438 C 135.019531 152.363281 133.894531 156.542969 135.664062 159.59375 C 137.429688 162.648438 139.195312 166.664062 141.554688 169.128906 C 141.554688 169.128906 139.144531 169.71875 136.359375 172.128906 C 133.578125 174.539062 127.792969 179.625 126.507812 179.679688 C 125.222656 179.734375 122.8125 178.984375 120.78125 178.929688 C 118.972656 178.882812 116.65625 179.765625 116.167969 179.960938 C 111.765625 181.339844 108.574219 185.453125 108.574219 190.3125 C 108.574219 196.300781 113.425781 201.15625 119.414062 201.15625 C 125.40625 201.15625 130.257812 196.300781 130.257812 190.3125 C 130.257812 188.347656 129.734375 186.511719 128.820312 184.921875 C 130.582031 183.425781 131.28125 182.304688 133.148438 181.394531 C 135.023438 180.484375 141.285156 177.214844 144.070312 175.609375 C 146.855469 174.003906 147.710938 172.984375 147.710938 172.984375 L 147.925781 172.289062 C 147.925781 172.289062 146.914062 171.203125 145.890625 169.710938 C 146.960938 171.226562 147.925781 172.289062 147.925781 172.289062 C 147.925781 172.289062 146.535156 176.894531 146.640625 177.855469 C 146.679688 178.195312 147.800781 178.800781 149.480469 179.453125 C 149.261719 180.078125 148.996094 180.945312 148.996094 181.390625 C 148.996094 182.140625 139.898438 194.996094 139.464844 196.066406 C 139.039062 197.136719 139.039062 197.136719 139.039062 197.136719 C 139.039062 197.136719 139.117188 197.300781 139.273438 197.582031 C 135.859375 204.734375 132.773438 211.820312 131.972656 214.652344 C 131.167969 217.492188 131.4375 222.527344 132.132812 223.21875 C 132.132812 223.21875 131.0625 225.097656 129.9375 226.539062 C 128.8125 227.988281 126.296875 228.46875 123.460938 231.628906 C 120.621094 234.789062 116.765625 240.359375 116.765625 240.359375 C 116.765625 240.359375 111.097656 248.304688 109.570312 250.453125 C 109.375 250.398438 109.113281 250.363281 108.910156 250.480469 C 108.554688 250.695312 106.625 254.335938 106.695312 255.335938 C 106.765625 256.335938 107.410156 257.910156 107.765625 259.546875 C 108.125 261.191406 108.410156 263.691406 110.410156 263.691406 C 112.40625 263.691406 118.332031 263.691406 119.1875 263.691406 C 120.046875 263.691406 119.972656 262.191406 119.476562 260.761719 C 118.976562 259.332031 117.761719 259.261719 116.902344 258.261719 C 116.046875 257.261719 114.835938 256.046875 114.835938 256.046875 C 114.835938 256.046875 114.84375 256.035156 114.855469 256.019531 C 115.546875 256.414062 116.347656 256.785156 116.886719 256.785156 C 117.046875 256.785156 117.179688 256.753906 117.285156 256.683594 C 117.71875 256.378906 118.015625 255.871094 118.0625 255.355469 C 118.097656 254.921875 117.957031 254.519531 117.664062 254.21875 C 117.386719 253.945312 116.765625 253.960938 116.082031 254.097656 C 116.171875 253.953125 116.253906 253.820312 116.335938 253.691406 C 116.90625 252.761719 116.761719 251.835938 115.835938 251.335938 C 115.636719 251.226562 115.453125 251.097656 115.277344 250.964844 C 115.445312 250.78125 117.570312 248.53125 122.976562 244.800781 C 130.578125 239.976562 134.21875 234.785156 136.039062 232.695312 C 137.859375 230.609375 142.679688 227.980469 142.679688 227.980469 L 144.582031 228.671875 L 160.777344 234.515625 C 160.777344 234.515625 166.070312 237.113281 168.480469 238.761719 L 167.808594 238.550781 C 166.808594 238.335938 165.667969 238.835938 165.523438 239.410156 C 165.453125 239.695312 166.175781 240.8125 166.925781 241.953125 C 165.503906 240.976562 165.050781 241.113281 164.925781 241.207031 C 164.417969 241.601562 164.230469 243.046875 164.414062 244.023438 C 164.527344 244.640625 164.769531 245.027344 165.121094 245.132812 C 165.222656 245.164062 165.34375 245.179688 165.484375 245.179688 C 166.285156 245.179688 167.605469 244.703125 168.429688 244.367188 C 168.480469 244.46875 168.511719 244.554688 168.519531 244.621094 C 168.664062 245.40625 168.59375 246.691406 168.519531 246.976562 C 168.449219 247.265625 166.878906 248.832031 164.167969 249.191406 C 161.453125 249.550781 161.953125 252.480469 163.738281 252.621094 C 165.523438 252.761719 170.09375 252.621094 172.234375 252.621094 C 174.375 252.621094 177.230469 250.335938 177.800781 245.976562 C 178.371094 241.621094 179.441406 237.050781 178.515625 236.195312 C 177.585938 235.335938 175.375 234.339844 174.160156 233.980469 C 172.945312 233.621094 171.660156 234.050781 171.515625 234.335938 C 171.503906 234.363281 171.476562 234.433594 171.4375 234.535156 L 163.824219 228.25 C 155.902344 221.230469 150.652344 221.125 150.652344 221.125 C 150.652344 221.125 159.835938 213.445312 164.726562 209.226562 C 167.070312 210.332031 169.246094 211.222656 169.660156 210.949219 C 170.621094 210.308594 176.085938 201.414062 177.691406 198.09375 C 179.296875 194.777344 178.546875 187.0625 176.296875 183.636719 C 174.046875 180.207031 171.15625 179.246094 171.15625 179.246094 L 170.664062 177.945312 C 172.105469 176.707031 173.070312 175.601562 173.191406 175.28125 C 173.511719 174.421875 169.230469 169.28125 169.230469 169.28125 C 169.230469 169.28125 168.871094 167.628906 168.449219 165.597656 C 168.398438 165.339844 168.34375 165.074219 168.289062 164.804688 C 168.285156 164.796875 168.285156 164.789062 168.285156 164.785156 C 168.277344 164.75 168.269531 164.714844 168.265625 164.679688 L 168.105469 161.734375 C 168.105469 161.734375 168.375 161.785156 169.121094 162.054688 C 169.871094 162.324219 173.566406 165.054688 177.207031 166.875 C 180.847656 168.695312 186.414062 170.410156 186.414062 170.410156 C 186.414062 170.410156 188.664062 174.320312 191.339844 176.140625 C 194.015625 177.960938 198.730469 180.800781 200.871094 182.140625 C 203.011719 183.480469 205.421875 186.636719 206.441406 187.816406 C 207.457031 188.996094 210.777344 191.296875 211.257812 191.726562 C 211.742188 192.152344 211.847656 191.507812 211.632812 190.972656 C 211.417969 190.4375 210.136719 189.421875 209.972656 188.671875 C 209.8125 187.921875 210.027344 187.332031 210.027344 187.332031 C 210.027344 187.332031 212.4375 187.546875 213.132812 187.8125 C 213.828125 188.082031 215.273438 189.367188 216.507812 189.953125 C 217.738281 190.542969 217.738281 189.792969 217.46875 189.472656 C 217.199219 189.152344 213.773438 186.632812 213.773438 186.632812 C 213.773438 186.632812 214.734375 186.742188 215.488281 187.0625 C 216.238281 187.382812 218.539062 188.667969 218.75 188.511719 C 218.964844 188.347656 218.75 187.8125 218.75 187.8125 C 219.128906 187.386719 218.484375 186.636719 218.484375 186.636719 Z M 117.429688 254.453125 C 117.71875 254.746094 117.753906 255.085938 117.734375 255.328125 C 117.695312 255.75 117.449219 256.167969 117.09375 256.421875 C 116.808594 256.621094 115.925781 256.25 115.03125 255.746094 C 115.222656 255.449219 115.53125 254.972656 115.832031 254.488281 C 116.574219 254.308594 117.222656 254.242188 117.429688 254.453125 Z M 165.207031 244.828125 C 164.980469 244.757812 164.808594 244.453125 164.722656 243.96875 C 164.550781 243.035156 164.753906 241.75 165.113281 241.46875 C 165.140625 241.449219 165.175781 241.441406 165.222656 241.441406 C 165.566406 241.441406 166.460938 242 167.453125 242.765625 C 167.78125 243.261719 168.078125 243.722656 168.273438 244.078125 C 167.246094 244.488281 165.757812 244.996094 165.207031 244.828125 Z M 155.183594 181.242188 C 155.125 181.226562 155.070312 181.214844 155.007812 181.195312 C 155.066406 181.210938 155.125 181.226562 155.183594 181.242188 Z M 156.621094 181.578125 C 156.679688 181.589844 156.734375 181.601562 156.792969 181.617188 C 156.734375 181.601562 156.679688 181.589844 156.621094 181.578125 Z M 157.332031 181.726562 C 157.40625 181.738281 157.480469 181.753906 157.550781 181.769531 C 157.480469 181.753906 157.40625 181.738281 157.332031 181.726562 Z M 158.085938 181.867188 C 158.144531 181.878906 158.203125 181.890625 158.257812 181.898438 C 158.199219 181.890625 158.140625 181.878906 158.085938 181.867188 Z M 158.9375 182.011719 C 158.980469 182.015625 159.023438 182.023438 159.070312 182.03125 C 159.027344 182.023438 158.984375 182.015625 158.9375 182.011719 Z M 159.609375 182.101562 C 159.679688 182.109375 159.75 182.121094 159.816406 182.128906 C 159.746094 182.121094 159.679688 182.113281 159.609375 182.101562 Z M 160.277344 182.179688 C 160.34375 182.183594 160.410156 182.191406 160.472656 182.199219 C 160.410156 182.191406 160.34375 182.1875 160.277344 182.179688 Z M 165.679688 181.222656 C 165.617188 181.25 165.558594 181.273438 165.496094 181.300781 C 165.558594 181.273438 165.617188 181.25 165.679688 181.222656 Z M 168.628906 179.519531 Z M 168.109375 179.867188 C 168.058594 179.90625 168 179.9375 167.945312 179.972656 C 168 179.9375 168.058594 179.902344 168.109375 179.867188 Z M 167.570312 180.207031 C 167.507812 180.246094 167.441406 180.285156 167.378906 180.324219 C 167.441406 180.285156 167.507812 180.246094 167.570312 180.207031 Z M 166.996094 180.546875 C 166.9375 180.582031 166.878906 180.617188 166.820312 180.648438 C 166.875 180.613281 166.9375 180.578125 166.996094 180.546875 Z M 166.257812 180.945312 C 166.257812 180.945312 166.253906 180.945312 166.253906 180.945312 C 166.253906 180.945312 166.253906 180.945312 166.257812 180.945312 Z M 164.28125 181.769531 C 164.34375 181.75 164.40625 181.730469 164.46875 181.707031 C 164.40625 181.730469 164.34375 181.75 164.28125 181.769531 Z M 164.882812 181.554688 C 164.949219 181.53125 165.019531 181.503906 165.089844 181.472656 C 165.019531 181.503906 164.949219 181.53125 164.882812 181.554688 Z M 162.90625 182.121094 C 162.96875 182.109375 163.027344 182.101562 163.089844 182.089844 C 163.03125 182.101562 162.96875 182.109375 162.90625 182.121094 Z M 163.683594 181.949219 C 163.6875 181.949219 163.6875 181.949219 163.683594 181.949219 C 163.6875 181.949219 163.6875 181.949219 163.683594 181.949219 Z M 161.679688 182.253906 C 161.742188 182.25 161.804688 182.246094 161.867188 182.242188 C 161.804688 182.246094 161.742188 182.253906 161.679688 182.253906 Z M 162.28125 182.214844 C 162.347656 182.203125 162.417969 182.199219 162.488281 182.1875 C 162.417969 182.195312 162.351562 182.203125 162.28125 182.214844 Z M 155.902344 181.414062 C 155.882812 181.410156 155.859375 181.402344 155.839844 181.398438 C 155.859375 181.40625 155.882812 181.410156 155.902344 181.414062 Z M 141.816406 151.953125 C 141.820312 152 141.824219 152.046875 141.832031 152.09375 C 141.839844 152.175781 141.847656 152.257812 141.851562 152.34375 C 141.859375 152.410156 141.863281 152.472656 141.875 152.542969 C 141.882812 152.636719 141.894531 152.730469 141.902344 152.832031 C 141.902344 152.863281 141.90625 152.894531 141.910156 152.925781 C 141.921875 153.054688 141.933594 153.183594 141.945312 153.316406 C 141.945312 153.320312 141.945312 153.324219 141.945312 153.324219 C 142.003906 153.90625 142.066406 154.53125 142.128906 155.179688 C 142.132812 155.203125 142.136719 155.222656 142.136719 155.246094 C 142.140625 155.28125 142.140625 155.3125 142.148438 155.34375 C 141.964844 153.882812 141.847656 152.707031 141.8125 152.148438 C 141.800781 151.925781 141.789062 151.726562 141.773438 151.539062 C 141.78125 151.59375 141.785156 151.65625 141.789062 151.714844 C 141.800781 151.789062 141.808594 151.871094 141.816406 151.953125 Z M 150.097656 179.6875 C 150.078125 179.683594 150.0625 179.679688 150.046875 179.667969 C 150.066406 179.675781 150.078125 179.679688 150.097656 179.6875 Z M 154.429688 181.046875 C 154.382812 181.03125 154.332031 181.019531 154.285156 181.007812 C 154.332031 181.019531 154.382812 181.035156 154.429688 181.046875 Z M 152.851562 180.601562 C 152.824219 180.59375 152.796875 180.585938 152.769531 180.574219 C 152.792969 180.585938 152.824219 180.59375 152.851562 180.601562 Z M 152.148438 180.386719 C 152.113281 180.375 152.082031 180.367188 152.050781 180.355469 C 152.082031 180.363281 152.113281 180.375 152.148438 180.386719 Z M 169.28125 179.046875 C 169.230469 179.082031 169.179688 179.121094 169.128906 179.160156 C 169.179688 179.121094 169.230469 179.085938 169.28125 179.046875 Z M 170.234375 178.304688 C 170.1875 178.339844 170.144531 178.378906 170.097656 178.414062 C 170.144531 178.378906 170.1875 178.339844 170.234375 178.304688 Z M 169.78125 178.667969 C 169.726562 178.710938 169.675781 178.753906 169.617188 178.796875 C 169.671875 178.75 169.726562 178.710938 169.78125 178.667969 Z M 169.78125 178.667969 " fill-opacity="1" fill-rule="nonzero"/></g><g clip-path="url(#7712cc01cc)"><path fill="#3bab5a" d="M 158.199219 205.917969 C 158.199219 205.917969 155.414062 206.988281 148.988281 205.703125 C 142.5625 204.417969 139.03125 197.136719 139.03125 197.136719 C 139.03125 197.136719 139.03125 197.136719 139.457031 196.0625 C 139.886719 194.992188 148.988281 182.140625 148.988281 181.386719 C 148.988281 180.941406 149.253906 180.078125 149.46875 179.449219 C 152.566406 180.65625 157.546875 182.039062 161.089844 182.246094 C 164.5 182.449219 168.25 180.011719 170.660156 177.945312 L 171.15625 179.246094 C 171.15625 179.246094 174.046875 180.210938 176.292969 183.636719 C 178.542969 187.066406 179.292969 194.777344 177.6875 198.097656 C 176.082031 201.417969 170.621094 210.308594 169.65625 210.953125 C 168.695312 211.597656 158.199219 205.917969 158.199219 205.917969 Z M 151.878906 162.644531 C 157.144531 157.972656 156.101562 153.417969 157.640625 149.378906 L 155.949219 149.042969 C 155.949219 149.042969 153.914062 149.578125 151.988281 149.578125 C 150.058594 149.578125 145.242188 149.042969 145.242188 149.042969 L 145 149.085938 C 144.941406 150.734375 145.230469 156.84375 151.878906 162.644531 Z M 168.449219 165.601562 C 168.015625 163.488281 167.519531 160.960938 167.296875 159.429688 C 166.871094 156.429688 161.835938 150.21875 161.835938 150.21875 L 160.667969 149.984375 C 160.277344 151.738281 159.324219 157.359375 161.945312 161.640625 C 163.5625 164.289062 166.234375 165.269531 168.449219 165.601562 Z M 142.335938 149.554688 L 141.601562 149.683594 C 141.601562 149.683594 142.34375 157.695312 142.886719 162.1875 C 143.324219 159.261719 142.605469 152.011719 142.335938 149.554688 Z M 178.507812 236.199219 C 177.578125 235.339844 175.367188 234.34375 174.152344 233.984375 C 172.9375 233.628906 171.65625 234.054688 171.511719 234.339844 C 171.367188 234.628906 169.871094 239.195312 169.871094 239.195312 L 167.800781 238.554688 C 166.800781 238.339844 165.660156 238.839844 165.515625 239.410156 C 165.371094 239.984375 168.367188 243.839844 168.511719 244.625 C 168.65625 245.410156 168.582031 246.695312 168.511719 246.980469 C 168.441406 247.265625 166.871094 248.835938 164.15625 249.195312 C 161.445312 249.550781 161.945312 252.480469 163.730469 252.625 C 165.515625 252.765625 170.085938 252.625 172.226562 252.625 C 174.367188 252.625 177.222656 250.335938 177.792969 245.980469 C 178.367188 241.625 179.4375 237.054688 178.507812 236.199219 Z M 116.902344 258.265625 C 116.042969 257.265625 114.832031 256.050781 114.832031 256.050781 C 114.832031 256.050781 115.761719 254.621094 116.328125 253.695312 C 116.902344 252.765625 116.757812 251.839844 115.832031 251.335938 C 114.902344 250.839844 114.332031 249.910156 112.902344 249.625 C 111.476562 249.335938 109.832031 250.550781 109.832031 250.550781 C 109.832031 250.550781 109.261719 250.265625 108.90625 250.480469 C 108.546875 250.695312 106.621094 254.335938 106.691406 255.335938 C 106.761719 256.335938 107.402344 257.910156 107.761719 259.546875 C 108.117188 261.1875 108.402344 263.691406 110.402344 263.691406 C 112.402344 263.691406 118.324219 263.691406 119.183594 263.691406 C 120.042969 263.691406 119.96875 262.191406 119.46875 260.761719 C 118.972656 259.335938 117.757812 259.265625 116.902344 258.265625 Z M 116.902344 258.265625 " fill-opacity="1" fill-rule="nonzero"/></g><path fill="#ac6d55" d="M 218.753906 187.816406 C 218.753906 187.816406 218.96875 188.351562 218.753906 188.511719 C 218.539062 188.675781 216.238281 187.386719 215.488281 187.066406 C 214.738281 186.746094 213.777344 186.636719 213.777344 186.636719 C 213.777344 186.636719 217.203125 189.15625 217.472656 189.476562 C 217.742188 189.796875 217.742188 190.546875 216.507812 189.957031 C 215.277344 189.367188 213.832031 188.082031 213.136719 187.816406 C 212.441406 187.546875 210.03125 187.335938 210.03125 187.335938 C 210.03125 187.335938 209.816406 187.921875 209.976562 188.675781 C 210.136719 189.425781 211.421875 190.441406 211.636719 190.976562 C 211.851562 191.511719 211.742188 192.15625 211.261719 191.726562 C 210.78125 191.300781 207.460938 188.996094 206.441406 187.820312 C 205.425781 186.640625 203.015625 183.480469 200.875 182.140625 C 198.734375 180.800781 194.023438 177.964844 191.34375 176.144531 C 188.667969 174.320312 186.417969 170.414062 186.417969 170.414062 C 186.417969 170.414062 180.851562 168.699219 177.207031 166.878906 C 173.566406 165.054688 169.875 162.324219 169.125 162.054688 C 168.375 161.785156 168.109375 161.734375 168.109375 161.734375 L 168.269531 164.734375 C 168.269531 164.734375 163.929688 164.414062 162.164062 159.539062 C 160.398438 154.664062 161.84375 150.222656 161.84375 150.222656 C 161.84375 150.222656 166.929688 149.472656 171.910156 153.273438 C 176.890625 157.078125 179.566406 157.664062 182.242188 160.183594 C 184.917969 162.703125 186.582031 164.308594 190.21875 166.128906 C 193.863281 167.949219 197.929688 173.679688 201.730469 177.804688 C 205.53125 181.929688 205.425781 181.019531 209.652344 181.605469 C 213.882812 182.195312 214.582031 181.980469 215.542969 182.675781 C 216.507812 183.375 218.328125 185.40625 218.59375 185.839844 C 218.863281 186.265625 218.488281 186.644531 218.488281 186.644531 C 218.488281 186.644531 219.128906 187.386719 218.753906 187.816406 Z M 125.539062 181.550781 C 123.824219 182.246094 123.554688 182.410156 123.878906 182.945312 C 124.199219 183.480469 124.039062 183.425781 125.21875 183.371094 C 126.394531 183.316406 127.519531 183.425781 127.519531 183.425781 C 127.519531 183.425781 128.378906 184.285156 128.804688 184.921875 C 130.570312 183.425781 131.269531 182.296875 133.144531 181.386719 C 135.019531 180.480469 141.28125 177.210938 144.066406 175.605469 C 146.847656 174 147.707031 172.980469 147.707031 172.980469 L 147.921875 172.28125 C 147.921875 172.28125 144.867188 169.015625 144.015625 166.015625 C 142.964844 162.335938 141.925781 153.964844 141.820312 152.144531 C 141.710938 150.324219 141.605469 149.679688 141.605469 149.679688 C 141.605469 149.679688 138.339844 150.429688 136.675781 151.394531 C 135.019531 152.355469 133.894531 156.535156 135.660156 159.589844 C 137.425781 162.640625 139.195312 166.660156 141.550781 169.125 C 141.550781 169.125 139.140625 169.710938 136.355469 172.125 C 133.574219 174.535156 127.792969 179.621094 126.507812 179.675781 C 125.21875 179.730469 122.8125 178.976562 120.777344 178.925781 C 118.742188 178.871094 116.066406 179.996094 116.066406 179.996094 C 116.066406 179.996094 121.039062 178.710938 125.539062 181.550781 Z M 148.777344 201.15625 C 148.777344 201.15625 145.777344 196.65625 139.300781 197.511719 C 135.871094 204.691406 132.765625 211.8125 131.964844 214.652344 C 131.160156 217.492188 131.429688 222.527344 132.125 223.21875 C 132.125 223.21875 131.054688 225.097656 129.933594 226.539062 C 128.808594 227.988281 126.289062 228.46875 123.453125 231.628906 C 120.617188 234.789062 116.757812 240.359375 116.757812 240.359375 C 116.757812 240.359375 121.097656 242.445312 122.96875 244.800781 C 130.570312 239.980469 134.214844 234.785156 136.035156 232.699219 C 137.855469 230.609375 142.675781 227.984375 142.675781 227.984375 L 160.769531 234.519531 C 160.769531 234.519531 164.464844 233.019531 163.824219 228.253906 C 155.902344 221.238281 150.652344 221.128906 150.652344 221.128906 C 150.652344 221.128906 163.71875 210.203125 166.984375 207.257812 C 160.394531 198.527344 152.363281 197.621094 148.777344 201.15625 Z M 144.917969 140.203125 C 144.917969 140.203125 145.671875 141.273438 146.367188 143.308594 C 147.0625 145.347656 147.117188 149.253906 147.117188 149.253906 L 146.207031 149.148438 C 146.207031 149.148438 145.621094 151.128906 146.851562 154.289062 C 148.082031 157.449219 151.617188 161.519531 151.617188 161.519531 C 151.617188 161.519531 153.546875 160.074219 154.5625 157.824219 C 155.578125 155.574219 156.597656 149.46875 156.597656 149.46875 C 156.597656 149.46875 154.132812 148.664062 153.597656 148.234375 C 153.0625 147.808594 153.117188 146.949219 153.117188 146.949219 C 153.117188 146.949219 155.152344 147.59375 155.902344 147.484375 C 156.652344 147.378906 157.242188 145.878906 157.828125 144.859375 C 158.417969 143.84375 159.0625 141.648438 159.113281 139.878906 C 159.167969 138.113281 158.742188 138.21875 159.328125 136.664062 C 159.917969 135.113281 159.546875 134.09375 159.0625 131.308594 C 159.027344 131.113281 158.980469 130.921875 158.929688 130.726562 C 158.917969 130.761719 158.914062 130.796875 158.902344 130.828125 C 146.269531 130.023438 144.765625 133.828125 144.765625 133.828125 C 143.804688 133.128906 143.375 132.96875 143.375 132.96875 L 142.675781 132.488281 C 142.675781 132.488281 143.320312 128.898438 145.460938 127.398438 C 147.601562 125.902344 151.941406 125.3125 154.882812 126.167969 C 154.976562 126.195312 155.066406 126.230469 155.160156 126.261719 C 154.152344 125.699219 152.96875 125.273438 151.621094 125.042969 C 147.28125 124.292969 141.285156 129.917969 141.554688 135.058594 C 141.820312 140.199219 144.917969 140.203125 144.917969 140.203125 Z M 144.917969 140.203125 " fill-opacity="1" fill-rule="nonzero"/><path fill="#682c19" d="M 131.640625 145.183594 C 131.640625 145.183594 129.769531 144.59375 129.394531 142.824219 C 129.019531 141.058594 128.699219 137.847656 128.699219 137.847656 C 128.699219 137.847656 126.125 136.9375 125.433594 135.382812 C 124.734375 133.828125 126.609375 131.953125 126.824219 131.042969 C 127.042969 130.132812 125.539062 128.847656 126.398438 127.5625 C 128.164062 127.988281 129.664062 126.328125 132.394531 125.097656 C 135.125 123.863281 137.269531 124.988281 139.195312 126.382812 C 141.121094 127.777344 141.441406 127.242188 141.441406 127.242188 C 141.441406 127.242188 141.496094 126.867188 142.351562 125.847656 C 143.210938 124.828125 144.226562 125.097656 145.9375 124.078125 C 147.652344 123.0625 150.222656 123.757812 151.132812 123.757812 C 152.042969 123.757812 154.023438 124.132812 154.882812 126.167969 C 153.167969 125.472656 150.542969 125.207031 147.007812 127.722656 C 143.476562 130.242188 143.367188 132.972656 143.367188 132.972656 C 143.367188 132.972656 141.171875 134.042969 141.761719 136.398438 C 142.351562 138.753906 144.601562 139.074219 144.601562 139.074219 C 144.601562 139.074219 144.761719 139.019531 146.046875 142.449219 C 143.476562 140.574219 141.441406 137.574219 141.441406 137.574219 C 140.746094 139.929688 139.355469 139.769531 138.714844 141.804688 C 138.070312 143.84375 135.449219 144.859375 133.949219 144.804688 C 132.445312 144.753906 131.640625 145.183594 131.640625 145.183594 Z M 144.222656 133.558594 C 144.222656 133.558594 144.652344 135.648438 145.5625 136.558594 C 147.328125 133.1875 147.4375 131.792969 147.4375 131.792969 C 147.4375 131.792969 145.457031 132.0625 144.222656 133.558594 Z M 151.453125 137.753906 C 151.449219 137.746094 151.4375 137.734375 151.421875 137.722656 C 151.445312 137.769531 151.460938 137.785156 151.453125 137.753906 Z M 152.488281 136.1875 C 151.953125 136.148438 151.667969 136.292969 151.0625 136.507812 C 150.457031 136.722656 150.097656 136.398438 150.097656 136.398438 C 150.328125 137.285156 151.25 137.597656 151.425781 137.722656 C 151.351562 137.609375 151.195312 137.292969 151.167969 137.113281 C 151.132812 136.863281 151.488281 136.648438 152.5625 136.683594 C 153.632812 136.722656 154.777344 137.46875 154.777344 137.46875 C 154.777344 137.46875 153.023438 136.21875 152.488281 136.1875 Z M 158.359375 136.808594 C 157.910156 137.058594 157.46875 137.363281 157.46875 137.363281 C 157.46875 137.363281 158.039062 137.21875 158.304688 137.144531 C 158.328125 137.140625 158.359375 137.132812 158.386719 137.125 C 158.289062 137.195312 158.203125 137.324219 158.167969 137.484375 C 158.113281 137.753906 158.210938 138.007812 158.394531 138.046875 C 158.578125 138.085938 158.773438 137.898438 158.832031 137.628906 C 158.886719 137.359375 158.789062 137.105469 158.605469 137.066406 C 158.601562 137.066406 158.601562 137.066406 158.597656 137.066406 C 158.917969 136.980469 159.320312 136.878906 159.320312 136.878906 C 159.320312 136.878906 158.804688 136.558594 158.359375 136.808594 Z M 153.539062 137.476562 C 153.605469 137.152344 153.484375 136.851562 153.265625 136.804688 C 153.050781 136.761719 152.8125 136.980469 152.746094 137.304688 C 152.679688 137.628906 152.800781 137.929688 153.019531 137.972656 C 153.238281 138.019531 153.472656 137.796875 153.539062 137.476562 Z M 157.753906 139.03125 L 157.667969 139 C 157.382812 138.894531 156.828125 138.226562 156.894531 137.917969 C 156.984375 137.519531 157.542969 135.863281 157.550781 135.847656 C 157.578125 135.761719 157.53125 135.671875 157.445312 135.640625 C 157.363281 135.609375 157.269531 135.65625 157.242188 135.742188 C 157.21875 135.808594 156.664062 137.433594 156.574219 137.847656 C 156.460938 138.371094 157.179688 139.164062 157.550781 139.300781 L 157.640625 139.335938 C 157.972656 139.453125 157.996094 139.484375 157.980469 139.59375 C 157.898438 140.261719 157.464844 140.566406 156.695312 140.488281 C 156.613281 140.480469 156.53125 140.546875 156.519531 140.632812 C 156.507812 140.722656 156.574219 140.800781 156.664062 140.8125 C 156.746094 140.820312 156.828125 140.824219 156.90625 140.824219 C 157.703125 140.824219 158.207031 140.398438 158.300781 139.632812 C 158.351562 139.246094 158.050781 139.132812 157.753906 139.03125 Z M 155.21875 140.671875 C 155.476562 140.671875 155.800781 140.609375 156.210938 140.441406 C 156.292969 140.40625 156.332031 140.308594 156.296875 140.226562 C 156.261719 140.144531 156.167969 140.105469 156.085938 140.140625 C 154.894531 140.636719 154.613281 140.089844 154.597656 140.0625 C 154.5625 139.980469 154.464844 139.945312 154.386719 139.980469 C 154.304688 140.015625 154.265625 140.113281 154.304688 140.191406 C 154.316406 140.222656 154.523438 140.671875 155.21875 140.671875 Z M 157.734375 142.09375 C 157.644531 141.898438 157.269531 141.578125 157.128906 141.597656 C 156.988281 141.617188 156.503906 142.0625 156.503906 142.0625 C 156.503906 142.0625 156.394531 141.757812 155.96875 141.597656 C 155.542969 141.433594 155.253906 141.828125 154.378906 142.0625 C 153.503906 142.292969 153.257812 141.917969 153.257812 141.917969 C 153.613281 142.777344 155.109375 144.0625 156.449219 143.988281 C 157.789062 143.917969 157.394531 142.617188 157.394531 142.617188 C 157.683594 142.578125 157.96875 142.296875 157.96875 142.296875 C 157.96875 142.296875 157.824219 142.289062 157.734375 142.09375 Z M 149.757812 133.917969 C 149.785156 134.074219 151.058594 133.828125 151.703125 133.972656 C 152.34375 134.113281 153.523438 134.878906 154.648438 135.042969 C 155.769531 135.203125 156.414062 134.878906 156.34375 134.773438 C 156.273438 134.664062 155.398438 134.253906 154.203125 133.773438 C 153.003906 133.292969 149.667969 133.433594 149.757812 133.917969 Z M 158.21875 134.917969 C 158.109375 135.148438 157.84375 135.597656 158.21875 135.523438 C 158.589844 135.453125 159.628906 135.433594 159.628906 135.433594 C 159.628906 135.433594 159.75 135.113281 159.628906 134.789062 C 159.324219 134.863281 158.21875 134.917969 158.21875 134.917969 Z M 147.527344 143.472656 C 147.441406 143.332031 147.359375 143.191406 147.277344 143.039062 C 147.351562 143.1875 147.4375 143.332031 147.527344 143.472656 Z M 153.125 146.957031 L 153.121094 146.9375 C 151.25 146.5 148.683594 145.265625 147.527344 143.472656 C 150.03125 147.660156 153.628906 148.328125 153.628906 148.328125 L 153.59375 148.234375 C 153.058594 147.808594 153.113281 146.949219 153.113281 146.949219 C 153.113281 146.949219 153.121094 146.953125 153.125 146.957031 Z M 167.882812 164.675781 C 168.121094 164.722656 168.265625 164.734375 168.265625 164.734375 L 168.105469 161.734375 C 168.105469 161.734375 165.214844 161.359375 163.074219 160.5 C 163.070312 160.5 165.796875 163.582031 167.882812 164.675781 Z M 162.59375 202.683594 C 163.40625 204.257812 164.527344 206.910156 164.484375 209.441406 C 165.535156 208.535156 166.410156 207.773438 166.980469 207.257812 C 165.566406 205.382812 164.085938 203.871094 162.59375 202.683594 Z M 189.859375 168.96875 L 187.449219 169.558594 C 187.359375 169.578125 187.304688 169.667969 187.328125 169.753906 C 187.347656 169.824219 187.414062 169.878906 187.488281 169.878906 C 187.5 169.878906 187.511719 169.875 187.527344 169.871094 L 189.9375 169.28125 C 190.023438 169.257812 190.078125 169.171875 190.054688 169.085938 C 190.03125 169 189.945312 168.945312 189.859375 168.96875 Z M 141.671875 169.421875 C 141.691406 169.433594 143.75 170.78125 145.835938 171.421875 C 145.855469 171.429688 145.867188 171.433594 145.886719 171.433594 C 145.953125 171.433594 146.019531 171.386719 146.042969 171.320312 C 146.066406 171.234375 146.019531 171.144531 145.933594 171.113281 C 143.890625 170.484375 141.875 169.164062 141.851562 169.152344 C 141.78125 169.105469 141.675781 169.125 141.628906 169.195312 C 141.574219 169.269531 141.597656 169.371094 141.671875 169.421875 Z M 142.777344 160.167969 C 142.773438 160.078125 142.691406 160.011719 142.609375 160.015625 L 140.734375 160.125 C 140.644531 160.128906 140.578125 160.207031 140.582031 160.292969 C 140.585938 160.378906 140.660156 160.445312 140.742188 160.445312 C 140.746094 160.445312 140.75 160.445312 140.75 160.445312 L 142.625 160.339844 C 142.71875 160.335938 142.785156 160.261719 142.777344 160.167969 Z M 168.574219 168.59375 C 168.488281 168.566406 168.398438 168.621094 168.375 168.703125 C 168.363281 168.746094 167.132812 173.039062 165.191406 175.394531 C 165.136719 175.460938 165.144531 175.566406 165.214844 175.625 C 165.246094 175.648438 165.277344 175.660156 165.316406 175.660156 C 165.363281 175.660156 165.410156 175.640625 165.441406 175.601562 C 167.417969 173.195312 168.632812 168.972656 168.683594 168.792969 C 168.714844 168.707031 168.664062 168.621094 168.574219 168.59375 Z M 154.933594 176.472656 C 152.316406 175.527344 148.4375 172.402344 148.398438 172.371094 C 148.328125 172.316406 148.222656 172.328125 148.167969 172.394531 C 148.109375 172.464844 148.121094 172.566406 148.191406 172.625 C 148.355469 172.753906 152.15625 175.8125 154.824219 176.773438 C 154.84375 176.78125 154.863281 176.78125 154.878906 176.78125 C 154.945312 176.78125 155.007812 176.742188 155.03125 176.675781 C 155.0625 176.59375 155.015625 176.5 154.933594 176.472656 Z M 155.695312 153.007812 L 153.074219 153.648438 C 152.988281 153.671875 152.9375 153.757812 152.957031 153.84375 C 152.972656 153.917969 153.039062 153.96875 153.113281 153.96875 C 153.125 153.96875 153.140625 153.964844 153.152344 153.964844 L 155.777344 153.320312 C 155.867188 153.296875 155.921875 153.210938 155.898438 153.125 C 155.871094 153.039062 155.785156 152.984375 155.695312 153.007812 Z M 146.6875 153.265625 L 147.597656 153.582031 C 147.613281 153.589844 147.632812 153.59375 147.648438 153.59375 C 147.71875 153.59375 147.78125 153.550781 147.800781 153.484375 C 147.832031 153.398438 147.789062 153.304688 147.703125 153.277344 L 146.792969 152.957031 C 146.710938 152.929688 146.617188 152.972656 146.585938 153.058594 C 146.558594 153.140625 146.601562 153.234375 146.6875 153.265625 Z M 147.59375 202.621094 L 148.777344 201.15625 C 148.777344 201.15625 147.070312 198.59375 143.449219 197.703125 C 146.292969 199.449219 147 201.785156 147.171875 202.695312 C 146.21875 203.667969 141.019531 209.046875 137.828125 213.539062 C 134.292969 218.523438 132.34375 222.261719 132.191406 222.621094 C 132.15625 222.703125 132.195312 222.796875 132.277344 222.832031 C 132.296875 222.839844 132.320312 222.847656 132.34375 222.847656 C 132.402344 222.847656 132.464844 222.808594 132.492188 222.746094 C 132.640625 222.394531 134.574219 218.691406 138.097656 213.726562 C 141.582031 208.8125 147.496094 202.824219 147.554688 202.765625 C 147.589844 202.726562 147.605469 202.671875 147.59375 202.621094 Z M 135.226562 225.851562 C 135.140625 225.824219 135.050781 225.867188 135.023438 225.953125 L 134.433594 227.722656 C 134.40625 227.804688 134.453125 227.898438 134.535156 227.925781 C 134.554688 227.929688 134.570312 227.933594 134.585938 227.933594 C 134.65625 227.933594 134.71875 227.890625 134.742188 227.824219 L 135.328125 226.054688 C 135.359375 225.972656 135.3125 225.878906 135.226562 225.851562 Z M 129.691406 192.476562 C 127.074219 192.300781 124.480469 191.949219 122.0625 191.519531 C 123.414062 186.570312 126.597656 183.589844 126.648438 183.542969 C 126.710938 183.484375 126.71875 183.378906 126.660156 183.316406 C 126.597656 183.246094 126.496094 183.242188 126.429688 183.304688 C 126.382812 183.347656 123.117188 186.398438 121.742188 191.460938 C 120.457031 191.230469 119.222656 190.976562 118.066406 190.71875 C 119.308594 185.035156 120.957031 180.191406 120.980469 180.121094 C 121.011719 180.035156 120.964844 179.941406 120.878906 179.914062 C 120.792969 179.882812 120.699219 179.929688 120.671875 180.015625 C 120.648438 180.089844 118.996094 184.945312 117.746094 190.652344 C 116.507812 190.371094 115.359375 190.085938 114.328125 189.816406 C 115.203125 185.164062 115.136719 180.847656 115.136719 180.78125 C 115.132812 180.6875 115.058594 180.628906 114.972656 180.621094 C 114.882812 180.625 114.8125 180.699219 114.8125 180.785156 C 114.816406 180.851562 114.882812 185.128906 114.019531 189.730469 C 111.042969 188.9375 109.148438 188.285156 109.101562 188.269531 C 109.019531 188.238281 108.925781 188.285156 108.894531 188.367188 C 108.867188 188.453125 108.910156 188.546875 108.996094 188.574219 C 109.039062 188.589844 110.953125 189.25 113.957031 190.046875 C 113.453125 192.601562 112.664062 195.222656 111.410156 197.261719 C 111.363281 197.339844 111.386719 197.4375 111.464844 197.488281 C 111.488281 197.503906 111.519531 197.507812 111.550781 197.507812 C 111.601562 197.507812 111.65625 197.480469 111.6875 197.433594 C 112.960938 195.363281 113.765625 192.707031 114.269531 190.128906 C 115.296875 190.402344 116.445312 190.683594 117.683594 190.964844 C 117.007812 194.117188 116.460938 197.507812 116.386719 200.484375 C 116.382812 200.578125 116.453125 200.652344 116.542969 200.652344 C 116.546875 200.652344 116.546875 200.652344 116.546875 200.652344 C 116.636719 200.652344 116.707031 200.582031 116.707031 200.496094 C 116.78125 197.539062 117.324219 194.167969 117.996094 191.035156 C 119.152344 191.292969 120.382812 191.542969 121.660156 191.777344 C 121.039062 194.25 120.875 197.175781 121.742188 200.460938 C 121.761719 200.535156 121.828125 200.582031 121.898438 200.582031 C 121.914062 200.582031 121.925781 200.578125 121.941406 200.578125 C 122.027344 200.554688 122.082031 200.464844 122.058594 200.378906 C 121.207031 197.144531 121.371094 194.265625 121.980469 191.835938 C 124.417969 192.265625 127.03125 192.621094 129.667969 192.796875 C 129.671875 192.796875 129.675781 192.796875 129.679688 192.796875 C 129.765625 192.796875 129.835938 192.734375 129.839844 192.648438 C 129.847656 192.558594 129.777344 192.480469 129.691406 192.476562 Z M 125.640625 181.675781 L 126.640625 180.835938 C 126.710938 180.78125 126.71875 180.675781 126.660156 180.605469 C 126.605469 180.539062 126.503906 180.53125 126.433594 180.585938 L 125.433594 181.425781 C 125.363281 181.480469 125.355469 181.585938 125.414062 181.65625 C 125.445312 181.695312 125.492188 181.710938 125.539062 181.710938 C 125.574219 181.710938 125.609375 181.699219 125.640625 181.675781 Z M 130.246094 182.851562 C 129.238281 183.390625 127.371094 183.054688 127.351562 183.050781 C 127.265625 183.035156 127.179688 183.09375 127.164062 183.183594 C 127.144531 183.269531 127.207031 183.355469 127.292969 183.371094 C 127.339844 183.378906 127.921875 183.484375 128.625 183.484375 C 129.21875 183.484375 129.890625 183.410156 130.398438 183.140625 C 130.476562 183.097656 130.503906 182.996094 130.464844 182.921875 C 130.421875 182.84375 130.324219 182.8125 130.246094 182.851562 Z M 150.148438 221.453125 L 145.75 225.464844 L 142.667969 227.988281 L 144.570312 228.675781 C 144.890625 227.761719 145.335938 226.695312 145.628906 226.011719 L 150.363281 221.695312 C 150.429688 221.632812 150.4375 221.53125 150.375 221.464844 C 150.320312 221.394531 150.21875 221.390625 150.148438 221.453125 Z M 218.582031 187.523438 C 218.503906 187.46875 216.636719 186.117188 215.988281 185.796875 C 215.335938 185.46875 213.101562 184.949219 213.007812 184.925781 C 212.917969 184.90625 212.832031 184.960938 212.8125 185.046875 C 212.789062 185.136719 212.84375 185.222656 212.933594 185.242188 C 212.957031 185.25 215.222656 185.777344 215.839844 186.089844 C 216.464844 186.398438 218.367188 187.773438 218.390625 187.789062 C 218.417969 187.808594 218.453125 187.820312 218.484375 187.820312 C 218.535156 187.820312 218.585938 187.796875 218.617188 187.75 C 218.667969 187.679688 218.652344 187.578125 218.582031 187.523438 Z M 213.554688 183.523438 C 213.574219 183.53125 215.261719 184.167969 215.988281 184.636719 C 216.714844 185.101562 218.089844 186.421875 218.105469 186.4375 C 218.136719 186.46875 218.175781 186.480469 218.21875 186.480469 C 218.261719 186.480469 218.304688 186.464844 218.335938 186.429688 C 218.398438 186.367188 218.394531 186.261719 218.328125 186.203125 C 218.273438 186.148438 216.917969 184.84375 216.164062 184.359375 C 215.40625 183.871094 213.738281 183.246094 213.667969 183.21875 C 213.585938 183.1875 213.492188 183.230469 213.460938 183.3125 C 213.429688 183.398438 213.472656 183.492188 213.554688 183.523438 Z M 213.554688 183.523438 " fill-opacity="1" fill-rule="nonzero"/><path fill="#b6ccd7" d="M 122.96875 244.804688 C 117.328125 248.695312 115.257812 250.984375 115.257812 250.984375 C 115.257812 250.984375 113.832031 250.054688 112.546875 249.914062 C 111.261719 249.769531 109.191406 250.984375 109.191406 250.984375 C 109.332031 250.769531 116.757812 240.359375 116.757812 240.359375 C 116.757812 240.359375 121.753906 242.269531 122.96875 244.804688 Z M 170.300781 239.984375 C 170.300781 239.984375 172.941406 237.914062 172.226562 235.199219 L 163.820312 228.253906 C 163.820312 228.253906 164.300781 232.414062 160.769531 234.519531 C 160.769531 234.519531 166.230469 237.195312 168.585938 238.839844 C 169.085938 239.199219 170.300781 239.984375 170.300781 239.984375 Z M 173.332031 241.398438 C 173.550781 241.796875 173.5625 242.1875 173.363281 242.5 C 172.847656 243.308594 169.574219 243.980469 169.136719 244.070312 C 168.804688 244.21875 166.617188 245.183594 165.472656 245.183594 C 165.335938 245.183594 165.214844 245.171875 165.113281 245.140625 C 164.761719 245.03125 164.515625 244.644531 164.402344 244.027344 C 164.226562 243.050781 164.410156 241.609375 164.917969 241.214844 C 165.089844 241.082031 165.890625 240.867188 169.023438 243.640625 C 169.371094 242.828125 170.550781 240.25 171.511719 240.25 C 172.179688 240.25 172.976562 240.753906 173.332031 241.398438 Z M 168.789062 243.863281 C 167.351562 242.601562 165.722656 241.4375 165.21875 241.4375 C 165.175781 241.4375 165.136719 241.445312 165.113281 241.464844 C 164.75 241.75 164.546875 243.03125 164.71875 243.964844 C 164.804688 244.449219 164.980469 244.757812 165.203125 244.824219 C 165.859375 245.027344 167.835938 244.277344 168.789062 243.863281 Z M 173.050781 241.554688 C 172.75 241.015625 172.0625 240.574219 171.515625 240.574219 C 170.910156 240.574219 169.921875 242.382812 169.355469 243.691406 C 170.503906 243.445312 172.746094 242.871094 173.089844 242.328125 C 173.257812 242.058594 173.160156 241.757812 173.050781 241.554688 Z M 117.65625 254.222656 C 117.953125 254.519531 118.09375 254.921875 118.054688 255.355469 C 118.011719 255.871094 117.714844 256.382812 117.277344 256.683594 C 117.171875 256.757812 117.039062 256.789062 116.882812 256.789062 C 115.882812 256.789062 113.988281 255.511719 113.539062 255.195312 C 113.09375 255.011719 109.707031 253.589844 109.335938 252.992188 C 109.203125 252.777344 109.203125 252.515625 109.335938 252.25 C 109.601562 251.722656 110.425781 251.140625 111.675781 251.035156 C 111.984375 251.003906 112.265625 251.101562 112.519531 251.320312 C 113.40625 252.078125 113.6875 254.140625 113.757812 254.820312 C 114.609375 254.484375 117.035156 253.601562 117.65625 254.222656 Z M 113.429688 254.796875 C 113.351562 254.097656 113.074219 252.21875 112.3125 251.566406 C 112.144531 251.425781 111.96875 251.355469 111.777344 251.355469 C 111.753906 251.355469 111.726562 251.355469 111.707031 251.355469 C 110.585938 251.453125 109.84375 251.964844 109.628906 252.394531 C 109.574219 252.507812 109.523438 252.675781 109.617188 252.824219 C 109.839844 253.1875 111.976562 254.183594 113.429688 254.796875 Z M 117.429688 254.453125 C 117.046875 254.070312 115.203125 254.605469 113.960938 255.089844 C 115.101562 255.855469 116.695312 256.695312 117.09375 256.417969 C 117.453125 256.167969 117.695312 255.75 117.734375 255.324219 C 117.757812 255.085938 117.71875 254.746094 117.429688 254.453125 Z M 147.957031 200.351562 L 148.777344 201.15625 C 148.777344 201.15625 151.09375 197.351562 153.09375 195.496094 C 155.09375 193.640625 156.664062 191.355469 156.664062 191.355469 L 156.09375 190.710938 Z M 176.582031 185.921875 C 175.292969 183.996094 171.15625 179.851562 171.15625 179.851562 L 170.371094 180.996094 C 170.371094 180.996094 174.65625 184.707031 175.367188 186.5625 C 176.082031 188.417969 176.082031 193.992188 175.296875 195.5625 C 174.511719 197.136719 166.375 206.277344 166.375 206.277344 L 168.230469 208.632812 C 168.230469 208.632812 177.296875 197.5625 177.722656 196.421875 C 178.152344 195.28125 177.867188 187.851562 176.582031 185.921875 Z M 176.582031 185.921875 " fill-opacity="1" fill-rule="nonzero"/><g clip-path="url(#909cf6e671)"><path fill="#ffb014" d="M 190.679688 258.820312 C 186.277344 258.820312 182.707031 255.246094 182.707031 250.835938 C 182.707031 246.425781 186.277344 242.847656 190.679688 242.847656 C 195.082031 242.847656 198.648438 246.421875 198.648438 250.832031 C 198.652344 255.246094 195.082031 258.820312 190.679688 258.820312 Z M 276.023438 242.847656 C 274.855469 245.605469 273.351562 242.8125 272.558594 241.566406 C 271.835938 240.425781 269.664062 237.679688 268.605469 236.726562 C 268.871094 237.519531 269.03125 238.289062 268.785156 238.566406 C 268.492188 238.898438 267.988281 239.109375 267.53125 239.109375 C 267.453125 239.109375 267.375 239.101562 267.300781 239.089844 C 266.9375 239.023438 266.660156 238.800781 266.523438 238.457031 C 266.277344 237.851562 266.75 236.488281 267.117188 235.589844 C 266.542969 235.132812 266.019531 234.679688 265.773438 234.390625 C 261.816406 234.089844 253.957031 236.015625 248.136719 237.429688 C 248.136719 237.429688 240.445312 239.695312 236.320312 239.015625 C 232.191406 238.332031 230.890625 233.238281 230.890625 233.238281 C 230.890625 233.238281 227.160156 236.183594 225.859375 238.503906 C 224.558594 240.824219 223.882812 244.5625 221.449219 249.886719 C 221.046875 249.445312 220.53125 249.023438 219.960938 248.625 C 220.925781 249.347656 221.449219 249.886719 221.449219 249.886719 C 220.320312 252.546875 214.175781 260.0625 211.199219 261.910156 C 208.222656 263.761719 204.90625 267.648438 204.417969 268.746094 C 203.925781 269.839844 203.359375 270.445312 203.359375 270.445312 C 203.359375 270.445312 203.058594 273.5 202.417969 273.914062 C 201.777344 274.332031 199.777344 275.878906 196.273438 276.59375 C 192.765625 277.3125 188.886719 276.066406 187.828125 274.746094 C 186.773438 273.421875 186.097656 272.214844 189.453125 272.289062 C 192.808594 272.363281 194.652344 271.648438 196.988281 269.988281 C 197.128906 269.890625 197.257812 269.792969 197.382812 269.699219 C 196.664062 268.996094 195.894531 268.152344 195.894531 267.777344 C 195.894531 267.359375 196.332031 266.921875 196.757812 266.703125 C 197.179688 266.484375 197.585938 266.476562 197.863281 266.675781 C 198.347656 267.023438 198.566406 267.804688 198.671875 268.574219 C 199.449219 267.808594 199.703125 267.433594 200.457031 267.683594 C 200.53125 267.707031 200.59375 267.738281 200.65625 267.777344 C 200.652344 267.765625 200.648438 267.761719 200.648438 267.761719 C 200.648438 267.761719 207.28125 256.207031 209.054688 252.316406 C 210.824219 248.429688 212.6875 245.296875 212.6875 245.296875 C 213.933594 242.464844 215.289062 241.613281 216.761719 237.933594 C 218.230469 234.253906 218.683594 235.613281 219.984375 231.140625 C 221.285156 226.664062 224.054688 220.605469 224.054688 220.605469 L 222.929688 217.332031 C 222.914062 217.332031 222.902344 217.332031 222.890625 217.332031 C 222.761719 217.316406 222.648438 217.308594 222.566406 217.304688 C 222.527344 217.300781 222.492188 217.296875 222.464844 217.292969 C 222.449219 217.292969 222.4375 217.289062 222.425781 217.289062 C 222.402344 217.289062 222.378906 217.289062 222.367188 217.285156 C 222.367188 217.285156 222.363281 217.285156 222.363281 217.285156 C 222.359375 217.285156 222.355469 217.285156 222.355469 217.285156 C 222.355469 217.285156 222.351562 217.273438 222.347656 217.257812 C 222.347656 217.253906 222.347656 217.25 222.347656 217.246094 C 222.347656 217.246094 222.347656 217.246094 222.347656 217.242188 C 222.34375 217.230469 222.335938 217.207031 222.332031 217.179688 C 222.332031 217.171875 222.328125 217.167969 222.328125 217.164062 C 222.3125 217.09375 222.292969 216.996094 222.269531 216.871094 C 222.269531 216.871094 222.269531 216.867188 222.269531 216.867188 C 222.269531 216.867188 222.269531 216.863281 222.269531 216.863281 C 222.257812 216.804688 222.246094 216.738281 222.230469 216.664062 C 222.230469 216.644531 222.226562 216.621094 222.21875 216.601562 C 222.21875 216.601562 222.21875 216.601562 222.21875 216.597656 C 222.207031 216.523438 222.191406 216.445312 222.175781 216.363281 C 222.171875 216.351562 222.171875 216.339844 222.171875 216.328125 C 222.15625 216.261719 222.144531 216.1875 222.132812 216.113281 C 222.132812 216.109375 222.128906 216.105469 222.128906 216.097656 C 222.109375 215.972656 222.085938 215.839844 222.0625 215.691406 C 222.0625 215.691406 222.0625 215.6875 222.0625 215.6875 C 222.042969 215.5625 222.023438 215.433594 222 215.296875 C 221.992188 215.261719 221.988281 215.21875 221.980469 215.183594 C 221.964844 215.070312 221.949219 214.957031 221.933594 214.835938 C 221.925781 214.800781 221.921875 214.765625 221.917969 214.726562 C 221.894531 214.574219 221.875 214.414062 221.851562 214.25 C 221.847656 214.21875 221.847656 214.191406 221.839844 214.160156 C 221.820312 214.019531 221.804688 213.878906 221.785156 213.730469 C 221.78125 213.679688 221.773438 213.625 221.769531 213.574219 C 221.75 213.421875 221.734375 213.269531 221.71875 213.113281 C 221.714844 213.078125 221.714844 213.042969 221.707031 213.011719 C 221.6875 212.820312 221.667969 212.625 221.652344 212.429688 C 221.644531 212.375 221.640625 212.324219 221.640625 212.269531 C 221.625 212.117188 221.609375 211.957031 221.597656 211.792969 C 221.59375 211.734375 221.589844 211.671875 221.582031 211.609375 C 221.566406 211.394531 221.550781 211.179688 221.539062 210.957031 C 221.539062 210.953125 221.539062 210.949219 221.539062 210.945312 C 221.527344 210.726562 221.515625 210.503906 221.507812 210.277344 C 221.503906 210.210938 221.5 210.140625 221.496094 210.074219 C 221.488281 209.894531 221.480469 209.710938 221.476562 209.527344 C 221.472656 209.464844 221.472656 209.40625 221.46875 209.34375 C 221.460938 209.105469 221.457031 208.859375 221.453125 208.613281 C 221.453125 208.566406 221.453125 208.515625 221.453125 208.472656 C 221.449219 208.265625 221.449219 208.058594 221.449219 207.851562 C 221.449219 207.777344 221.449219 207.699219 221.449219 207.625 C 221.449219 207.414062 221.453125 207.195312 221.460938 206.980469 C 221.460938 206.933594 221.460938 206.886719 221.460938 206.835938 C 221.46875 206.578125 221.476562 206.3125 221.488281 206.042969 C 221.492188 205.976562 221.492188 205.910156 221.496094 205.839844 C 221.507812 205.632812 221.519531 205.421875 221.53125 205.210938 C 221.535156 205.136719 221.539062 205.054688 221.546875 204.976562 C 221.566406 204.703125 221.582031 204.425781 221.609375 204.144531 C 222.210938 196.898438 222.890625 193.949219 230.5 182.246094 C 230.5 182.246094 230.464844 182.183594 230.417969 182.070312 C 230.253906 181.667969 229.964844 180.574219 230.726562 178.921875 C 231.707031 176.808594 234.195312 171.296875 234.195312 171.296875 L 233.070312 167.964844 C 230.839844 171.59375 227.445312 176.777344 225.074219 178.1875 C 221.457031 180.335938 219.363281 181.359375 218.34375 181.074219 C 217.328125 180.789062 216.988281 178.128906 217.835938 174.335938 C 218.40625 171.789062 219.789062 168.199219 220.636719 166.113281 C 219.507812 165.765625 218.730469 165.429688 218.554688 165.347656 C 218.550781 165.34375 218.550781 165.34375 218.546875 165.34375 C 218.527344 165.335938 218.515625 165.328125 218.515625 165.328125 C 218.515625 165.328125 218.511719 165.296875 218.511719 165.242188 C 218.523438 164.945312 218.679688 163.898438 220.398438 162.6875 C 222.4375 161.25 223.566406 159.816406 225.074219 156.492188 C 226.582031 153.171875 229.070312 152.414062 232.308594 151.738281 C 234.511719 151.277344 236.703125 150.246094 237.878906 149.632812 C 237.9375 149.601562 237.992188 149.574219 238.046875 149.546875 C 238.078125 149.53125 238.105469 149.515625 238.132812 149.5 C 238.183594 149.472656 238.234375 149.445312 238.28125 149.417969 C 238.300781 149.40625 238.324219 149.398438 238.34375 149.386719 C 238.425781 149.339844 238.496094 149.300781 238.554688 149.269531 C 238.566406 149.261719 238.582031 149.253906 238.59375 149.246094 C 238.617188 149.234375 238.632812 149.222656 238.648438 149.214844 C 238.667969 149.113281 238.714844 148.878906 238.757812 148.554688 C 238.789062 148.332031 238.816406 148.0625 238.84375 147.769531 C 238.847656 147.746094 238.847656 147.71875 238.847656 147.691406 C 238.855469 147.621094 238.859375 147.550781 238.863281 147.480469 C 238.867188 147.441406 238.867188 147.40625 238.871094 147.371094 C 238.875 147.304688 238.875 147.242188 238.878906 147.171875 C 238.878906 147.132812 238.882812 147.089844 238.882812 147.050781 C 238.886719 146.980469 238.886719 146.914062 238.886719 146.847656 C 238.886719 146.808594 238.886719 146.765625 238.886719 146.722656 C 238.886719 146.648438 238.882812 146.574219 238.882812 146.5 C 238.882812 146.464844 238.882812 146.425781 238.878906 146.390625 C 238.875 146.277344 238.871094 146.164062 238.863281 146.050781 C 235.527344 143.246094 234.765625 141.832031 234.285156 139.027344 C 234.285156 139.027344 232.605469 137.742188 233.707031 135.328125 C 233.660156 135.148438 233.617188 134.925781 233.574219 134.664062 C 233.574219 134.636719 233.566406 134.605469 233.5625 134.574219 C 233.546875 134.457031 233.53125 134.332031 233.519531 134.203125 C 233.515625 134.1875 233.515625 134.171875 233.515625 134.15625 C 233.5 134.015625 233.492188 133.867188 233.484375 133.710938 C 233.484375 133.667969 233.484375 133.621094 233.484375 133.578125 C 233.480469 133.453125 233.480469 133.324219 233.484375 133.191406 C 233.484375 133.144531 233.484375 133.101562 233.484375 133.054688 C 233.492188 132.882812 233.503906 132.707031 233.523438 132.523438 C 233.527344 132.484375 233.53125 132.441406 233.539062 132.402344 C 233.558594 132.25 233.578125 132.097656 233.605469 131.933594 C 233.617188 131.878906 233.625 131.824219 233.636719 131.769531 C 233.675781 131.566406 233.722656 131.363281 233.777344 131.15625 C 234.484375 128.523438 236.488281 126.214844 238.667969 125.816406 C 240.84375 125.421875 243.613281 125.972656 243.613281 125.972656 C 243.613281 125.972656 245.011719 122.96875 248.234375 123.859375 C 251.457031 124.753906 250.933594 127.34375 250.59375 128.589844 C 250.253906 129.835938 249.675781 133.375 250.621094 133.828125 C 251.570312 134.28125 252.273438 133.871094 253.320312 134.195312 C 254.371094 134.523438 254.933594 135.878906 254.933594 135.878906 C 254.933594 135.878906 253.832031 135.089844 252.304688 135.171875 L 253.367188 135.863281 C 253.367188 135.863281 250.988281 137.875 248.359375 137.042969 C 247.824219 138.964844 246.269531 139.53125 246.269531 139.53125 C 246.269531 139.53125 245.589844 140.152344 245.476562 142.761719 C 245.375 145.148438 246.128906 148.683594 246.25 149.25 C 246.304688 149.304688 246.359375 149.363281 246.414062 149.417969 C 246.414062 149.417969 246.414062 149.417969 246.417969 149.417969 C 246.582031 149.566406 246.753906 149.699219 246.933594 149.828125 C 249.511719 151.632812 253.527344 151.402344 255.972656 153.324219 C 258.761719 155.515625 258.007812 159.894531 257.855469 161.855469 C 257.707031 163.820312 258.386719 168.03125 258.386719 168.03125 L 255.511719 168.042969 C 255.425781 168.34375 254.683594 170.914062 253.976562 172.621094 C 253.222656 174.433594 252.847656 174.695312 252.960938 175.226562 C 253.074219 175.753906 255.976562 183.039062 257.292969 185.230469 C 258.613281 187.421875 259.367188 189.042969 260.613281 189.308594 C 261.859375 189.570312 265.0625 189.121094 265.816406 189.234375 C 266.570312 189.347656 266.378906 192.480469 266.304688 193.046875 C 266.230469 193.613281 264.835938 195.125 264.835938 195.125 C 264.835938 195.125 264.910156 195.617188 264.609375 195.691406 C 264.308594 195.765625 264.082031 195.386719 264.082031 195.386719 C 264.082031 195.386719 263.628906 195.691406 263.140625 195.648438 C 262.648438 195.613281 262.082031 194.480469 262.082031 194.480469 C 262.082031 194.480469 260.800781 194.785156 259.671875 194.21875 C 258.539062 193.652344 257.148438 192.175781 254.242188 188.175781 C 252.921875 186.355469 252.085938 185.011719 251.566406 184.089844 C 251.851562 184.730469 252.160156 185.464844 252.460938 186.25 C 252.464844 186.261719 252.46875 186.269531 252.472656 186.28125 C 252.566406 186.527344 252.65625 186.777344 252.746094 187.03125 C 252.757812 187.054688 252.761719 187.078125 252.773438 187.097656 C 252.859375 187.34375 252.941406 187.589844 253.027344 187.84375 C 253.035156 187.871094 253.042969 187.902344 253.054688 187.929688 C 253.132812 188.175781 253.210938 188.425781 253.28125 188.675781 C 253.292969 188.707031 253.296875 188.730469 253.304688 188.757812 C 253.378906 189.015625 253.453125 189.273438 253.515625 189.527344 C 253.523438 189.546875 253.527344 189.566406 253.53125 189.585938 C 253.601562 189.855469 253.660156 190.132812 253.71875 190.402344 C 254.546875 194.480469 253.867188 201.652344 251.609375 207.464844 C 251.496094 207.75 251.390625 208.023438 251.285156 208.289062 C 251.269531 208.335938 251.25 208.382812 251.230469 208.425781 C 251.136719 208.671875 251.039062 208.90625 250.949219 209.140625 C 250.917969 209.214844 250.890625 209.285156 250.863281 209.359375 C 250.792969 209.539062 250.722656 209.714844 250.652344 209.886719 C 249.289062 213.289062 248.433594 215.347656 248.035156 218.058594 C 247.992188 218.332031 247.957031 218.613281 247.925781 218.90625 C 247.925781 218.917969 247.921875 218.929688 247.921875 218.941406 C 247.890625 219.238281 247.863281 219.535156 247.839844 219.851562 C 247.753906 219.894531 247.65625 219.929688 247.558594 219.96875 C 247.53125 219.980469 247.5 219.988281 247.46875 220 C 247.398438 220.023438 247.324219 220.046875 247.25 220.070312 C 247.21875 220.078125 247.183594 220.089844 247.152344 220.097656 C 247.066406 220.121094 246.980469 220.140625 246.894531 220.164062 C 246.875 220.164062 246.855469 220.171875 246.835938 220.175781 C 246.726562 220.199219 246.617188 220.21875 246.503906 220.238281 C 246.484375 220.238281 246.46875 220.242188 246.453125 220.246094 C 246.355469 220.261719 246.261719 220.273438 246.167969 220.285156 C 246.140625 220.289062 246.109375 220.292969 246.082031 220.296875 C 245.992188 220.304688 245.902344 220.3125 245.8125 220.320312 C 245.789062 220.324219 245.765625 220.324219 245.742188 220.328125 C 245.519531 220.34375 245.300781 220.355469 245.09375 220.355469 C 245.066406 220.355469 245.035156 220.355469 245.011719 220.355469 C 244.9375 220.355469 244.863281 220.359375 244.789062 220.359375 C 244.757812 220.359375 244.726562 220.359375 244.699219 220.359375 C 244.632812 220.359375 244.5625 220.359375 244.5 220.355469 C 244.472656 220.355469 244.449219 220.355469 244.425781 220.355469 C 244.34375 220.355469 244.269531 220.355469 244.199219 220.351562 C 244.148438 220.347656 244.105469 220.347656 244.0625 220.34375 C 244.042969 220.34375 244.019531 220.339844 244 220.339844 C 243.949219 220.339844 243.902344 220.335938 243.855469 220.332031 C 242.664062 221.546875 241.371094 222.585938 241.371094 222.585938 L 241.089844 231.421875 C 241.089844 231.421875 244.3125 229.605469 248.492188 229.550781 C 248.492188 229.550781 250.753906 228.703125 256.351562 229.835938 C 261.769531 230.929688 264.429688 231.230469 266.082031 230.886719 C 266.351562 230.589844 266.835938 230.375 267.640625 230.230469 C 269.335938 229.929688 270.996094 230.949219 271.5625 232.269531 C 272.125 233.59375 272.804688 234.839844 273.972656 236.160156 C 275.121094 237.488281 277.195312 240.09375 276.023438 242.847656 Z M 228.972656 166.550781 C 228.894531 166.570312 228.816406 166.585938 228.734375 166.605469 L 228.578125 166.980469 C 228.574219 166.980469 228.726562 166.820312 228.972656 166.550781 Z M 198.359375 268.878906 C 198.285156 268.078125 198.089844 267.269531 197.667969 266.960938 C 197.59375 266.910156 197.5 266.882812 197.390625 266.882812 C 197.253906 266.882812 197.089844 266.929688 196.917969 267.015625 C 196.542969 267.207031 196.242188 267.550781 196.242188 267.785156 C 196.242188 268 196.875 268.714844 197.660156 269.488281 C 197.929688 269.269531 198.164062 269.066406 198.359375 268.878906 Z M 268.09375 236.332031 C 267.871094 236.167969 267.632812 235.992188 267.398438 235.808594 C 267.039062 236.710938 266.660156 237.875 266.835938 238.332031 C 266.929688 238.566406 267.105469 238.707031 267.355469 238.75 C 267.785156 238.824219 268.296875 238.59375 268.527344 238.335938 C 268.6875 238.160156 268.464844 237.3125 268.09375 236.332031 Z M 268.09375 236.332031 " fill-opacity="1" fill-rule="nonzero"/></g><g clip-path="url(#f6f55db201)"><path fill="#3bab5a" d="M 258.386719 168.039062 L 253.5625 168.058594 C 253.5625 168.058594 251.148438 173.949219 251.453125 177.046875 C 251.753906 180.140625 250.773438 182.480469 250.773438 182.480469 L 230.496094 182.257812 C 230.496094 182.257812 229.742188 181.050781 230.722656 178.933594 C 231.699219 176.820312 234.1875 171.308594 234.1875 171.308594 L 232.453125 166.171875 C 232.453125 166.171875 232.90625 165.644531 228.308594 166.703125 C 223.710938 167.761719 218.507812 165.34375 218.507812 165.34375 C 218.507812 165.34375 218.359375 164.136719 220.394531 162.703125 C 222.429688 161.265625 223.558594 159.832031 225.066406 156.507812 C 226.574219 153.1875 229.0625 152.429688 232.304688 151.753906 C 235.542969 151.070312 238.765625 149.164062 238.765625 149.164062 L 241.503906 147.792969 C 241.503906 147.792969 243.535156 146.167969 245.949219 148.960938 C 248.359375 151.757812 253.183594 151.152344 255.972656 153.339844 C 258.761719 155.527344 258.007812 159.910156 257.855469 161.871094 C 257.707031 163.832031 258.386719 168.039062 258.386719 168.039062 Z M 273.953125 236.167969 C 272.785156 234.847656 272.105469 233.597656 271.539062 232.277344 C 270.972656 230.957031 269.316406 229.9375 267.617188 230.238281 C 265.921875 230.542969 265.660156 231.144531 265.773438 232.242188 L 265.808594 232.769531 C 265.808594 232.769531 265.359375 233.902344 265.773438 234.394531 C 266.1875 234.886719 267.429688 235.867188 268.335938 236.507812 C 269.242188 237.148438 271.765625 240.320312 272.554688 241.566406 C 273.347656 242.816406 274.855469 245.605469 276.023438 242.851562 C 277.195312 240.09375 275.121094 237.488281 273.953125 236.167969 Z M 200.457031 267.691406 C 199.328125 267.316406 199.328125 268.332031 196.992188 269.996094 C 194.65625 271.65625 192.808594 272.375 189.453125 272.296875 C 186.101562 272.222656 186.78125 273.429688 187.832031 274.75 C 188.890625 276.074219 192.769531 277.320312 196.277344 276.601562 C 199.78125 275.882812 201.777344 274.335938 202.421875 273.921875 C 203.058594 273.507812 203.363281 270.449219 203.363281 270.449219 L 201.855469 270.488281 C 201.855469 270.488281 201.589844 268.070312 200.457031 267.691406 Z M 198.652344 250.835938 C 198.652344 246.425781 195.082031 242.851562 190.679688 242.851562 C 186.277344 242.847656 182.707031 246.425781 182.707031 250.835938 C 182.707031 255.246094 186.277344 258.820312 190.679688 258.820312 C 195.082031 258.820312 198.652344 255.246094 198.652344 250.835938 Z M 198.652344 250.835938 " fill-opacity="1" fill-rule="nonzero"/></g><path fill="#b6ccd7" d="M 267.355469 233.242188 C 267.355469 233.242188 265.941406 233.335938 265.773438 234.394531 C 261.816406 234.089844 253.957031 236.019531 248.136719 237.433594 C 248.925781 233.921875 248.476562 229.5625 248.476562 229.5625 C 248.476562 229.5625 250.738281 228.710938 256.335938 229.84375 C 261.933594 230.976562 264.589844 231.261719 266.230469 230.863281 C 268.261719 232.449219 267.355469 233.242188 267.355469 233.242188 Z M 212.6875 245.304688 C 212.6875 245.304688 210.824219 248.4375 209.054688 252.324219 C 207.28125 256.214844 200.648438 267.765625 200.648438 267.765625 C 200.648438 267.765625 201.964844 269.804688 201.023438 271.203125 C 202.984375 270.976562 203.359375 270.445312 203.359375 270.445312 C 203.359375 270.445312 203.925781 269.84375 204.417969 268.746094 C 204.90625 267.652344 208.222656 263.765625 211.199219 261.914062 C 214.179688 260.0625 220.320312 252.550781 221.449219 249.890625 C 221.453125 249.890625 218.097656 246.433594 212.6875 245.304688 Z M 241.726562 155.222656 C 244.390625 153.378906 246.046875 151.234375 246.933594 149.835938 C 246.574219 149.585938 246.246094 149.296875 245.949219 148.957031 C 243.535156 146.160156 241.503906 147.785156 241.503906 147.785156 L 238.765625 149.15625 C 238.765625 149.15625 238.328125 149.417969 237.617188 149.777344 C 238.144531 151.160156 239.351562 153.617188 241.726562 155.222656 Z M 227.105469 214.214844 C 225.269531 213.929688 223.117188 215.101562 222.0625 215.695312 C 222.226562 216.710938 222.359375 217.289062 222.359375 217.289062 C 222.359375 217.289062 223.195312 217.363281 224.519531 217.488281 C 226.261719 216.289062 228.582031 214.441406 227.105469 214.214844 Z M 228.125 209.796875 L 227.277344 212.117188 C 227.277344 212.117188 229.480469 213.25 229.761719 213.304688 C 230.046875 213.359375 238.582031 216.082031 240.109375 217.269531 C 241.636719 218.457031 247.835938 219.855469 247.835938 219.855469 C 247.878906 219.21875 247.945312 218.628906 248.027344 218.0625 C 246.785156 216.976562 244.445312 215.175781 240.898438 213.417969 C 235.300781 210.644531 228.125 209.796875 228.125 209.796875 Z M 228.125 209.796875 " fill-opacity="1" fill-rule="nonzero"/><path fill="#f9b6c1" d="M 248.476562 229.5625 C 249.890625 234.316406 248.136719 237.433594 248.136719 237.433594 C 248.136719 237.433594 240.445312 239.699219 236.320312 239.019531 C 232.191406 238.335938 230.890625 233.238281 230.890625 233.238281 C 230.890625 233.238281 227.160156 236.1875 225.859375 238.507812 C 224.558594 240.828125 223.882812 244.566406 221.449219 249.890625 C 219.019531 247.226562 212.6875 245.304688 212.6875 245.304688 C 213.929688 242.472656 215.289062 241.621094 216.757812 237.941406 C 218.226562 234.257812 218.679688 235.621094 219.980469 231.144531 C 221.28125 226.671875 224.050781 220.609375 224.050781 220.609375 L 222.863281 217.15625 C 224.109375 216.421875 225.863281 215.96875 225.863281 215.96875 L 227.386719 211.835938 C 227.386719 211.835938 238.355469 213.308594 244.914062 219.140625 C 243.613281 220.785156 241.351562 222.59375 241.351562 222.59375 L 241.070312 231.429688 C 241.070312 231.429688 244.292969 229.617188 248.476562 229.5625 Z M 218.34375 181.082031 C 219.359375 181.363281 221.453125 180.347656 225.070312 178.195312 C 228.6875 176.046875 234.679688 165.117188 235.300781 164.320312 C 235.921875 163.527344 238.128906 162.792969 238.414062 161.941406 C 238.699219 161.09375 238.46875 159.902344 238.46875 159.902344 C 238.46875 159.902344 239.089844 160.636719 239.65625 160.242188 C 240.21875 159.84375 240.445312 157.578125 240.335938 157.238281 C 240.21875 156.898438 236.828125 154.578125 236.320312 154.40625 C 235.8125 154.238281 234.742188 154.523438 234.457031 154.972656 C 234.175781 155.425781 233.722656 160.691406 233.269531 161.542969 C 232.820312 162.394531 228.578125 166.980469 228.578125 166.980469 L 229.3125 165.226562 C 229.3125 165.226562 228.011719 163.699219 221.34375 164.433594 C 221.34375 164.433594 218.683594 170.550781 217.835938 174.347656 C 216.988281 178.140625 217.324219 180.800781 218.34375 181.082031 Z M 265.8125 189.238281 C 265.058594 189.125 261.855469 189.578125 260.609375 189.3125 C 259.363281 189.050781 258.609375 187.425781 257.292969 185.234375 C 255.972656 183.042969 253.070312 175.757812 252.957031 175.230469 C 252.84375 174.699219 253.21875 174.4375 253.972656 172.621094 C 254.726562 170.808594 255.519531 168.019531 255.519531 168.019531 C 253.972656 168.132812 252.199219 167.566406 252.199219 167.566406 C 252.199219 167.566406 251.519531 169.644531 251.445312 171.304688 C 251.371094 172.964844 251.183594 175.496094 251.332031 177.382812 C 251.480469 179.269531 250.765625 182.480469 250.765625 182.480469 C 250.765625 182.480469 251.332031 184.179688 254.234375 188.179688 C 257.132812 192.179688 258.53125 193.652344 259.660156 194.21875 C 260.792969 194.785156 262.074219 194.484375 262.074219 194.484375 C 262.074219 194.484375 262.640625 195.617188 263.128906 195.652344 C 263.621094 195.691406 264.074219 195.390625 264.074219 195.390625 C 264.074219 195.390625 264.296875 195.765625 264.601562 195.691406 C 264.902344 195.617188 264.828125 195.125 264.828125 195.125 C 264.828125 195.125 266.21875 193.617188 266.296875 193.050781 C 266.378906 192.488281 266.566406 189.351562 265.8125 189.238281 Z M 234.285156 139.035156 C 234.769531 141.835938 235.53125 143.253906 238.863281 146.054688 C 238.980469 147.726562 238.640625 149.285156 238.640625 149.285156 C 239.601562 152.257812 241.832031 154.265625 241.832031 154.265625 C 243.558594 153.019531 246.273438 149.339844 246.273438 149.339844 C 246.273438 149.339844 245.367188 145.375 245.480469 142.769531 C 245.597656 140.164062 246.273438 139.542969 246.273438 139.542969 C 246.273438 139.542969 247.828125 138.976562 248.363281 137.050781 C 248.632812 135.28125 247.769531 133.722656 246.554688 133.824219 C 245.339844 133.921875 245.351562 134.957031 245.367188 135.820312 C 245.382812 136.683594 245.167969 137.050781 245.167969 137.050781 L 244.054688 134.898438 C 244.054688 134.898438 239.84375 134.035156 237.835938 129.730469 C 237.835938 129.730469 235.757812 131.484375 234.925781 133.15625 C 234.089844 134.828125 233.851562 135.820312 233.851562 135.820312 C 233.851562 135.820312 233.78125 135.640625 233.707031 135.332031 C 232.605469 137.746094 234.285156 139.035156 234.285156 139.035156 Z M 234.285156 139.035156 " fill-opacity="1" fill-rule="nonzero"/><path fill="#a53d52" d="M 237.640625 129.503906 C 237.289062 127.539062 238.730469 126.332031 238.792969 126.28125 C 238.867188 126.222656 238.976562 126.230469 239.035156 126.304688 C 239.09375 126.378906 239.082031 126.488281 239.007812 126.546875 C 238.996094 126.558594 237.660156 127.679688 237.976562 129.445312 C 237.992188 129.535156 237.929688 129.625 237.839844 129.640625 C 237.828125 129.644531 237.816406 129.644531 237.808594 129.644531 C 237.726562 129.644531 237.65625 129.585938 237.640625 129.503906 Z M 237.417969 139.335938 C 237.304688 139.398438 237.207031 139.441406 237.128906 139.476562 C 236.910156 139.574219 236.664062 139.6875 236.78125 140.007812 C 236.882812 140.285156 237.238281 140.746094 237.957031 140.746094 C 237.964844 140.746094 237.972656 140.746094 237.980469 140.746094 C 238.078125 140.746094 238.152344 140.664062 238.152344 140.570312 C 238.152344 140.480469 238.074219 140.402344 237.980469 140.402344 C 237.976562 140.402344 237.964844 140.402344 237.960938 140.402344 C 237.429688 140.402344 237.167969 140.070312 237.105469 139.890625 C 237.105469 139.886719 237.101562 139.878906 237.101562 139.871094 C 237.132812 139.851562 237.207031 139.816406 237.273438 139.789062 C 237.359375 139.753906 237.460938 139.703125 237.582031 139.640625 C 238.082031 139.375 238.316406 138.832031 238.140625 138.351562 C 238.003906 137.980469 237.710938 136.488281 237.707031 136.472656 C 237.6875 136.378906 237.59375 136.316406 237.503906 136.335938 C 237.414062 136.355469 237.355469 136.445312 237.371094 136.535156 C 237.382812 136.597656 237.675781 138.074219 237.820312 138.46875 C 237.933594 138.792969 237.769531 139.148438 237.417969 139.335938 Z M 239.089844 135.863281 C 239.4375 135.808594 240.484375 135.628906 241.226562 135.570312 C 241.972656 135.515625 243.007812 135.976562 243.128906 135.957031 C 243.253906 135.9375 242.449219 135.25 241.765625 135.078125 C 241.078125 134.910156 239.449219 134.910156 238.457031 135.4375 C 238.359375 135.492188 238.742188 135.921875 239.089844 135.863281 Z M 236.136719 137.507812 C 235.90625 137.507812 235.714844 137.695312 235.714844 137.933594 C 235.714844 138.167969 235.90625 138.355469 236.136719 138.355469 C 236.367188 138.355469 236.558594 138.167969 236.558594 137.933594 C 236.558594 137.695312 236.367188 137.507812 236.136719 137.507812 Z M 234.617188 137.429688 C 234.617188 137.429688 234.984375 137.96875 235.332031 137.980469 C 235.332031 137.980469 234.957031 137.667969 235.277344 137.519531 C 235.597656 137.367188 236.203125 137.488281 236.542969 137.613281 C 236.882812 137.738281 237.265625 138.039062 237.265625 138.039062 C 237.265625 138.039062 236.957031 137.339844 236.144531 137.226562 C 235.332031 137.109375 234.617188 137.429688 234.617188 137.429688 Z M 236.847656 135.949219 C 237.054688 135.957031 236.828125 135.609375 236.753906 135.429688 C 236.679688 135.25 235.164062 135.464844 234.84375 135.582031 C 234.519531 135.695312 234.445312 136.28125 234.445312 136.28125 C 234.550781 136.289062 234.832031 135.996094 235.21875 135.949219 C 235.605469 135.902344 236.640625 135.9375 236.847656 135.949219 Z M 238.863281 146.058594 C 238.929688 147.027344 238.84375 147.957031 238.757812 148.566406 C 242.710938 148.179688 244.632812 142.628906 244.632812 142.628906 C 243.671875 144.867188 240.363281 146.566406 239.9375 146.566406 C 239.515625 146.566406 238.863281 146.058594 238.863281 146.058594 Z M 246.882812 134.882812 C 246.816406 134.816406 246.703125 134.816406 246.640625 134.882812 C 246.613281 134.910156 245.9375 135.582031 245.855469 136.160156 C 245.800781 136.554688 246.058594 136.726562 246.230469 136.835938 C 246.375 136.929688 246.433594 136.980469 246.4375 137.070312 C 246.449219 137.367188 246.058594 137.578125 246.054688 137.578125 C 245.972656 137.621094 245.9375 137.726562 245.984375 137.8125 C 246.015625 137.871094 246.074219 137.90625 246.136719 137.90625 C 246.164062 137.90625 246.1875 137.898438 246.214844 137.886719 C 246.238281 137.875 246.800781 137.574219 246.777344 137.054688 C 246.761719 136.777344 246.558594 136.648438 246.410156 136.550781 C 246.238281 136.441406 246.164062 136.386719 246.1875 136.210938 C 246.246094 135.824219 246.703125 135.300781 246.875 135.128906 C 246.949219 135.0625 246.949219 134.953125 246.882812 134.882812 Z M 240.089844 137.890625 C 240.089844 138.144531 240.296875 138.355469 240.550781 138.355469 C 240.808594 138.355469 241.011719 138.144531 241.011719 137.890625 C 241.011719 137.632812 240.804688 137.421875 240.550781 137.421875 C 240.292969 137.421875 240.089844 137.628906 240.089844 137.890625 Z M 242.625 137.109375 C 242.625 137.109375 241.171875 137.003906 240.398438 137.070312 C 239.628906 137.136719 239.128906 137.921875 239.128906 137.921875 C 239.765625 137.429688 240.597656 137.320312 241.40625 137.367188 C 242.214844 137.414062 241.785156 138.015625 241.785156 138.015625 C 242.171875 137.730469 242.625 137.109375 242.625 137.109375 Z M 245.40625 134.882812 C 245.390625 134.792969 245.300781 134.726562 245.210938 134.742188 C 244.761719 134.808594 244.445312 134.746094 244.445312 134.746094 C 244.351562 134.726562 244.261719 134.78125 244.238281 134.875 C 244.21875 134.96875 244.277344 135.058594 244.371094 135.078125 C 244.378906 135.082031 244.542969 135.117188 244.800781 135.117188 C 244.933594 135.117188 245.089844 135.105469 245.257812 135.082031 C 245.351562 135.066406 245.417969 134.976562 245.40625 134.882812 Z M 233.902344 137.269531 C 233.824219 137.429688 233.722656 137.652344 233.820312 137.851562 C 233.929688 138.085938 234.21875 138.429688 234.230469 138.445312 C 234.265625 138.484375 234.3125 138.507812 234.363281 138.507812 C 234.402344 138.507812 234.441406 138.496094 234.472656 138.46875 C 234.542969 138.40625 234.554688 138.300781 234.492188 138.226562 C 234.417969 138.136719 234.207031 137.867188 234.128906 137.707031 C 234.105469 137.652344 234.171875 137.503906 234.214844 137.417969 C 234.277344 137.289062 234.332031 137.167969 234.300781 137.046875 C 234.265625 136.90625 234.03125 136 234.03125 136 L 233.695312 136.085938 C 233.695312 136.085938 233.929688 136.992188 233.96875 137.117188 C 233.964844 137.144531 233.929688 137.21875 233.902344 137.269531 Z M 238.414062 169.816406 C 238.433594 169.816406 238.457031 169.8125 238.476562 169.804688 C 238.703125 169.710938 244.046875 167.492188 245.789062 164.984375 C 245.847656 164.90625 245.824219 164.800781 245.746094 164.746094 C 245.671875 164.695312 245.5625 164.714844 245.507812 164.789062 C 243.824219 167.210938 238.402344 169.464844 238.347656 169.488281 C 238.261719 169.523438 238.21875 169.625 238.253906 169.710938 C 238.28125 169.777344 238.34375 169.816406 238.414062 169.816406 Z M 238.007812 141.820312 C 237.828125 141.820312 237.273438 141.316406 237.191406 141.800781 C 237.105469 142.285156 236.65625 142.113281 236.691406 142.148438 C 237.09375 142.554688 237.371094 142.472656 237.371094 142.472656 C 237.371094 142.472656 237.359375 143.28125 237.988281 143.519531 C 238.621094 143.757812 239.46875 143.144531 239.921875 142.878906 C 240.371094 142.617188 241.089844 141.824219 241.089844 141.824219 C 241.089844 141.824219 240.429688 142.011719 240.042969 142.019531 C 239.65625 142.03125 238.929688 141.40625 238.589844 141.433594 C 238.253906 141.460938 238.183594 141.820312 238.007812 141.820312 Z M 238.46875 159.945312 C 238.476562 159.945312 238.484375 159.945312 238.492188 159.941406 C 238.585938 159.929688 238.652344 159.839844 238.640625 159.746094 C 238.519531 158.949219 238.5 158.175781 238.574219 157.988281 C 238.695312 158.113281 238.902344 158.589844 239.039062 159.082031 C 239.066406 159.171875 239.160156 159.222656 239.253906 159.199219 C 239.34375 159.171875 239.398438 159.078125 239.371094 158.988281 C 239.269531 158.628906 238.996094 157.777344 238.671875 157.644531 C 238.589844 157.609375 238.503906 157.613281 238.425781 157.65625 C 238.09375 157.847656 238.175781 158.921875 238.300781 159.796875 C 238.3125 159.882812 238.386719 159.945312 238.46875 159.945312 Z M 231.683594 163.53125 C 231.695312 163.53125 231.703125 163.53125 231.710938 163.527344 C 231.804688 163.511719 231.871094 163.421875 231.855469 163.328125 C 231.464844 160.992188 231.402344 159.070312 231.402344 159.050781 C 231.402344 158.953125 231.324219 158.882812 231.226562 158.882812 C 231.132812 158.886719 231.058594 158.964844 231.0625 159.058594 C 231.0625 159.078125 231.121094 161.023438 231.515625 163.386719 C 231.53125 163.46875 231.601562 163.53125 231.683594 163.53125 Z M 240.816406 231.554688 L 239.96875 232.746094 C 239.914062 232.824219 239.933594 232.929688 240.011719 232.984375 C 240.042969 233.003906 240.074219 233.015625 240.109375 233.015625 C 240.160156 233.015625 240.214844 232.988281 240.25 232.941406 L 241.09375 231.753906 C 241.152344 231.675781 241.132812 231.570312 241.054688 231.515625 C 240.976562 231.460938 240.871094 231.480469 240.816406 231.554688 Z M 236.480469 191.625 C 236.515625 191.539062 236.472656 191.4375 236.386719 191.402344 C 236.300781 191.371094 236.199219 191.410156 236.164062 191.496094 C 236.144531 191.550781 234.148438 196.394531 233.449219 198.507812 L 230.363281 193.339844 C 230.3125 193.261719 230.207031 193.234375 230.128906 193.28125 C 230.046875 193.332031 230.019531 193.4375 230.070312 193.519531 L 233.308594 198.941406 C 232.652344 200.941406 227.292969 211.195312 227.238281 211.300781 C 227.191406 211.386719 227.222656 211.492188 227.308594 211.535156 C 227.332031 211.546875 227.359375 211.554688 227.386719 211.554688 C 227.449219 211.554688 227.507812 211.519531 227.539062 211.460938 C 227.765625 211.027344 233.09375 200.832031 233.65625 198.96875 C 234.214844 197.132812 236.457031 191.683594 236.480469 191.625 Z M 243.890625 126.273438 C 244.109375 126.359375 249.230469 128.375 247.742188 134.265625 C 247.71875 134.359375 247.773438 134.449219 247.867188 134.472656 C 247.882812 134.476562 247.894531 134.480469 247.910156 134.480469 C 247.988281 134.480469 248.054688 134.425781 248.078125 134.347656 C 249.644531 128.15625 244.070312 125.976562 244.015625 125.953125 C 243.925781 125.917969 243.828125 125.964844 243.792969 126.050781 C 243.757812 126.140625 243.804688 126.242188 243.890625 126.273438 Z M 225.921875 215.8125 C 225.835938 215.773438 225.734375 215.820312 225.699219 215.90625 L 224.003906 220.210938 C 223.972656 220.296875 224.015625 220.402344 224.101562 220.433594 C 224.121094 220.445312 224.144531 220.445312 224.164062 220.445312 C 224.230469 220.445312 224.296875 220.40625 224.324219 220.339844 L 226.019531 216.035156 C 226.054688 215.945312 226.011719 215.84375 225.921875 215.8125 Z M 243.367188 220.808594 C 243.910156 220.285156 244.46875 219.703125 244.917969 219.140625 C 242.484375 216.980469 239.453125 215.417969 236.589844 214.308594 C 238.554688 215.46875 242.996094 218.339844 243.367188 220.808594 Z M 252.207031 167.570312 C 253.074219 167.8125 254.035156 167.984375 254.035156 167.984375 C 254.035156 167.984375 253.753906 167.644531 253.675781 163.148438 C 252.773438 165.378906 252.207031 167.570312 252.207031 167.570312 Z M 249.65625 182.546875 C 249.570312 182.582031 249.523438 182.679688 249.558594 182.769531 C 249.585938 182.839844 252.25 189.75 251.582031 195.675781 C 251.429688 197.019531 250.429688 199.648438 249.273438 202.691406 C 247.828125 206.492188 246.023438 211.226562 245.074219 215.519531 C 245.050781 215.613281 245.109375 215.707031 245.203125 215.726562 C 245.214844 215.726562 245.226562 215.726562 245.242188 215.726562 C 245.316406 215.726562 245.390625 215.671875 245.40625 215.59375 C 246.351562 211.324219 248.148438 206.609375 249.589844 202.816406 C 250.808594 199.625 251.769531 197.101562 251.921875 195.714844 C 252.597656 189.703125 249.90625 182.714844 249.878906 182.644531 C 249.84375 182.554688 249.746094 182.511719 249.65625 182.546875 Z M 240.996094 222.652344 L 236.925781 227.320312 C 234.523438 229.667969 231.003906 233.160156 230.890625 233.242188 C 230.890625 233.242188 231.226562 234.558594 232.097656 235.941406 C 232.679688 234.238281 234.015625 232.273438 237.070312 227.679688 L 241.253906 222.882812 C 241.316406 222.8125 241.3125 222.703125 241.238281 222.640625 C 241.167969 222.574219 241.0625 222.578125 240.996094 222.652344 Z M 271.625 234.953125 C 271.566406 235.417969 271.378906 235.703125 271.109375 235.734375 C 271.089844 235.738281 271.066406 235.738281 271.039062 235.738281 C 270.5 235.738281 268.734375 235.292969 267.949219 235.085938 C 268.394531 236.070312 269.21875 238.078125 268.785156 238.566406 C 268.492188 238.898438 267.988281 239.109375 267.53125 239.109375 C 267.453125 239.109375 267.375 239.101562 267.300781 239.089844 C 266.9375 239.023438 266.660156 238.800781 266.523438 238.457031 C 266.164062 237.5625 267.351562 235.039062 267.488281 234.753906 C 267.5 234.730469 267.519531 234.714844 267.539062 234.699219 C 267.542969 234.695312 267.542969 234.6875 267.550781 234.683594 C 267.992188 234.402344 270.203125 233.011719 270.984375 233.3125 C 271.511719 233.511719 271.707031 234.3125 271.625 234.953125 Z M 267.640625 235.234375 C 267.242188 236.132812 266.613281 237.769531 266.835938 238.332031 C 266.929688 238.566406 267.105469 238.707031 267.355469 238.75 C 267.785156 238.824219 268.296875 238.59375 268.527344 238.335938 C 268.742188 238.09375 268.253906 236.605469 267.640625 235.234375 Z M 270.855469 233.625 C 270.4375 233.464844 269.039062 234.167969 268.0625 234.761719 C 269.21875 235.066406 270.757812 235.429688 271.066406 235.394531 C 271.132812 235.386719 271.238281 235.234375 271.28125 234.910156 C 271.351562 234.402344 271.207031 233.761719 270.855469 233.625 Z M 221.105469 237.792969 C 220.332031 238.234375 218.878906 238.832031 218.863281 238.839844 C 218.773438 238.875 218.730469 238.972656 218.769531 239.0625 C 218.796875 239.125 218.859375 239.167969 218.925781 239.167969 C 218.949219 239.167969 218.96875 239.164062 218.992188 239.152344 C 219.054688 239.128906 220.480469 238.542969 221.269531 238.085938 C 221.355469 238.039062 221.382812 237.933594 221.335938 237.851562 C 221.289062 237.773438 221.183594 237.746094 221.105469 237.792969 Z M 248.855469 182.460938 C 246.5 182.007812 241.246094 181.085938 237.058594 180.972656 C 233.65625 180.878906 231.546875 181.542969 230.414062 182.078125 C 230.460938 182.195312 230.5 182.257812 230.5 182.257812 Z M 264.238281 195.089844 C 264.289062 195.167969 264.269531 195.277344 264.191406 195.324219 C 264.164062 195.347656 264.128906 195.355469 264.097656 195.355469 C 264.042969 195.355469 263.992188 195.332031 263.957031 195.285156 C 263.941406 195.261719 263.882812 195.164062 263.789062 194.890625 C 263.640625 194.914062 263.503906 194.925781 263.378906 194.925781 C 262.734375 194.925781 262.375 194.664062 262.183594 194.433594 C 262.152344 194.46875 262.109375 194.488281 262.0625 194.488281 C 262.058594 194.488281 262.058594 194.488281 262.054688 194.488281 C 261.960938 194.484375 261.886719 194.40625 261.890625 194.3125 C 261.917969 193.628906 262.132812 193.144531 262.28125 192.894531 C 261.171875 192.933594 260.4375 192.414062 260.394531 192.382812 C 260.320312 192.328125 260.304688 192.21875 260.359375 192.144531 C 260.414062 192.066406 260.523438 192.050781 260.597656 192.105469 C 260.648438 192.140625 261.808594 192.964844 263.410156 192.296875 C 263.457031 192.273438 263.511719 192.277344 263.558594 192.304688 C 263.605469 192.332031 263.636719 192.378906 263.644531 192.429688 C 263.929688 194.59375 264.238281 195.082031 264.238281 195.089844 Z M 262.53125 193.144531 C 262.605469 193.25 262.898438 193.574219 263.449219 193.417969 C 263.410156 193.199219 263.375 192.953125 263.335938 192.683594 C 263.117188 192.761719 262.90625 192.816406 262.710938 192.847656 C 262.703125 192.863281 262.699219 192.878906 262.6875 192.894531 C 262.683594 192.898438 262.613281 192.988281 262.53125 193.144531 Z M 263.691406 194.5625 C 263.632812 194.351562 263.570312 194.089844 263.511719 193.761719 C 263.390625 193.792969 263.273438 193.816406 263.167969 193.816406 C 262.820312 193.816406 262.554688 193.664062 262.386719 193.5 C 262.34375 193.625 262.304688 193.769531 262.277344 193.933594 C 262.296875 193.953125 262.316406 193.980469 262.320312 194.007812 C 262.332031 194.035156 262.5625 194.710938 263.691406 194.5625 Z M 228.308594 166.925781 C 222.910156 169.777344 220.027344 173.277344 220 173.3125 C 219.941406 173.386719 219.953125 173.496094 220.027344 173.554688 C 220.058594 173.578125 220.097656 173.589844 220.132812 173.589844 C 220.183594 173.589844 220.234375 173.570312 220.265625 173.53125 C 220.296875 173.496094 223.132812 170.050781 228.46875 167.230469 C 228.550781 167.1875 228.582031 167.082031 228.539062 166.996094 C 228.492188 166.914062 228.390625 166.882812 228.308594 166.925781 Z M 202.34375 271.726562 C 202.421875 272.226562 202.261719 272.765625 201.9375 273.101562 C 201.703125 273.339844 201.414062 273.460938 201.082031 273.460938 C 201.023438 273.460938 200.96875 273.457031 200.90625 273.449219 C 199.964844 273.332031 198.621094 271.023438 198.421875 270.667969 C 197.800781 270.117188 195.894531 268.375 195.894531 267.785156 C 195.894531 267.367188 196.332031 266.929688 196.757812 266.707031 C 197.179688 266.492188 197.585938 266.480469 197.863281 266.683594 C 198.796875 267.359375 198.769531 269.660156 198.738281 270.367188 C 199.359375 270.355469 200.726562 270.683594 201.414062 270.960938 C 201.996094 271.203125 202.300781 271.453125 202.34375 271.726562 Z M 197.664062 266.960938 C 197.589844 266.910156 197.496094 266.882812 197.386719 266.882812 C 197.25 266.882812 197.085938 266.929688 196.914062 267.015625 C 196.542969 267.207031 196.238281 267.550781 196.238281 267.785156 C 196.238281 268.0625 197.316406 269.203125 198.402344 270.191406 C 198.433594 269.222656 198.339844 267.449219 197.664062 266.960938 Z M 202.007812 271.777344 C 202 271.742188 201.964844 271.648438 201.742188 271.507812 C 201.027344 271.054688 199.429688 270.75 198.839844 270.710938 C 199.421875 271.6875 200.398438 273.042969 200.953125 273.109375 C 201.242188 273.144531 201.5 273.0625 201.691406 272.863281 C 201.941406 272.601562 202.066406 272.175781 202.007812 271.777344 Z M 262.980469 189.996094 C 262.898438 189.949219 262.792969 189.972656 262.746094 190.054688 C 262.695312 190.136719 262.722656 190.242188 262.804688 190.289062 C 263.496094 190.703125 264.632812 191.488281 264.742188 191.851562 C 264.875 192.292969 264.742188 194.105469 264.679688 194.769531 C 264.671875 194.863281 264.742188 194.949219 264.835938 194.957031 C 264.84375 194.957031 264.847656 194.957031 264.851562 194.957031 C 264.9375 194.957031 265.011719 194.886719 265.019531 194.800781 C 265.046875 194.550781 265.246094 192.335938 265.070312 191.753906 C 264.890625 191.15625 263.296875 190.183594 262.980469 189.996094 Z M 221.152344 164.84375 C 222.511719 164.640625 227.101562 164.082031 229.15625 165.53125 L 228.726562 166.605469 C 228.851562 166.578125 228.96875 166.550781 229.085938 166.527344 L 229.984375 165.625 L 229.582031 165.4375 C 229.570312 165.425781 229.5625 165.410156 229.550781 165.398438 C 227.554688 163.746094 222.96875 164.230469 221.3125 164.472656 L 221.339844 164.40625 C 220.097656 164.621094 219.089844 165 218.507812 165.253906 C 218.507812 165.308594 218.511719 165.339844 218.511719 165.339844 C 218.511719 165.339844 219.335938 165.722656 220.617188 166.117188 Z M 221.152344 164.84375 " fill-opacity="1" fill-rule="nonzero"/></svg>