<svg xmlns="http://www.w3.org/2000/svg" xmlns:xlink="http://www.w3.org/1999/xlink" width="500" zoomAndPan="magnify" viewBox="0 0 375 374.999991" height="500" preserveAspectRatio="xMidYMid meet" version="1.0"><defs><clipPath id="512a83345a"><path d="M 31.699219 31.699219 L 342.949219 31.699219 L 342.949219 342.949219 L 31.699219 342.949219 Z M 31.699219 31.699219 " clip-rule="nonzero"/></clipPath><clipPath id="8c4e28a352"><path d="M 187.324219 31.699219 C 101.375 31.699219 31.699219 101.375 31.699219 187.324219 C 31.699219 273.273438 101.375 342.949219 187.324219 342.949219 C 273.273438 342.949219 342.949219 273.273438 342.949219 187.324219 C 342.949219 101.375 273.273438 31.699219 187.324219 31.699219 " clip-rule="nonzero"/></clipPath><clipPath id="7b972e1092"><path d="M 67.355469 109 L 234.605469 109 L 234.605469 318.476562 L 67.355469 318.476562 Z M 67.355469 109 " clip-rule="nonzero"/></clipPath><clipPath id="38bcf394ca"><path d="M 67.355469 147 L 175 147 L 175 318.476562 L 67.355469 318.476562 Z M 67.355469 147 " clip-rule="nonzero"/></clipPath><clipPath id="833c716ab2"><path d="M 81 111 L 234.605469 111 L 234.605469 291 L 81 291 Z M 81 111 " clip-rule="nonzero"/></clipPath><clipPath id="082c450a30"><path d="M 181 43 L 329 43 L 329 279 L 181 279 Z M 181 43 " clip-rule="nonzero"/></clipPath><clipPath id="dc79411abf"><path d="M 189.648438 37.5 L 337.261719 43.859375 L 326.867188 285.136719 L 179.253906 278.777344 Z M 189.648438 37.5 " clip-rule="nonzero"/></clipPath><clipPath id="a7396f7c1c"><path d="M 189.648438 37.5 L 337.261719 43.859375 L 326.867188 285.136719 L 179.253906 278.777344 Z M 189.648438 37.5 " clip-rule="nonzero"/></clipPath><clipPath id="2547ed784d"><path d="M 181 79 L 328 79 L 328 279 L 181 279 Z M 181 79 " clip-rule="nonzero"/></clipPath><clipPath id="467cbce056"><path d="M 189.648438 37.5 L 337.261719 43.859375 L 326.867188 285.136719 L 179.253906 278.777344 Z M 189.648438 37.5 " clip-rule="nonzero"/></clipPath><clipPath id="8a58f38664"><path d="M 189.648438 37.5 L 337.261719 43.859375 L 326.867188 285.136719 L 179.253906 278.777344 Z M 189.648438 37.5 " clip-rule="nonzero"/></clipPath><clipPath id="02245bed11"><path d="M 207 79 L 315 79 L 315 271 L 207 271 Z M 207 79 " clip-rule="nonzero"/></clipPath><clipPath id="655d1f6d1d"><path d="M 189.648438 37.5 L 337.261719 43.859375 L 326.867188 285.136719 L 179.253906 278.777344 Z M 189.648438 37.5 " clip-rule="nonzero"/></clipPath><clipPath id="cb24fb5924"><path d="M 189.648438 37.5 L 337.261719 43.859375 L 326.867188 285.136719 L 179.253906 278.777344 Z M 189.648438 37.5 " clip-rule="nonzero"/></clipPath><clipPath id="73498a127a"><path d="M 228 51 L 316 51 L 316 239 L 228 239 Z M 228 51 " clip-rule="nonzero"/></clipPath><clipPath id="ecb347169b"><path d="M 189.648438 37.5 L 337.261719 43.859375 L 326.867188 285.136719 L 179.253906 278.777344 Z M 189.648438 37.5 " clip-rule="nonzero"/></clipPath><clipPath id="5b8544bae5"><path d="M 189.648438 37.5 L 337.261719 43.859375 L 326.867188 285.136719 L 179.253906 278.777344 Z M 189.648438 37.5 " clip-rule="nonzero"/></clipPath><clipPath id="935501a679"><path d="M 200 46 L 322 46 L 322 274 L 200 274 Z M 200 46 " clip-rule="nonzero"/></clipPath><clipPath id="968bd871b9"><path d="M 189.648438 37.5 L 337.261719 43.859375 L 326.867188 285.136719 L 179.253906 278.777344 Z M 189.648438 37.5 " clip-rule="nonzero"/></clipPath><clipPath id="019719754c"><path d="M 189.648438 37.5 L 337.261719 43.859375 L 326.867188 285.136719 L 179.253906 278.777344 Z M 189.648438 37.5 " clip-rule="nonzero"/></clipPath></defs><g clip-path="url(#512a83345a)"><g clip-path="url(#8c4e28a352)"><path stroke-linecap="butt" transform="matrix(0.749182, 0, 0, 0.749182, 31.699529, 31.699524)" fill="none" stroke-linejoin="miter" d="M 207.726165 -0.000407869 C 93.002071 -0.000407869 -0.000413876 93.002077 -0.000413876 207.726171 C -0.000413876 322.450265 93.002071 415.452749 207.726165 415.452749 C 322.450259 415.452749 415.452743 322.450265 415.452743 207.726171 C 415.452743 93.002077 322.450259 -0.000407869 207.726165 -0.000407869 " stroke="#000000" stroke-width="26" stroke-opacity="1" stroke-miterlimit="4"/></g></g><g clip-path="url(#7b972e1092)"><path fill="#ffb014" d="M 233.640625 203.414062 C 233.640625 203.414062 234.195312 202.855469 233.800781 202.214844 C 233.402344 201.578125 230.699219 198.542969 229.261719 197.507812 C 227.832031 196.46875 226.796875 196.789062 220.507812 195.910156 C 214.21875 195.035156 214.378906 196.390625 208.726562 190.25 C 203.078125 184.105469 197.023438 175.570312 191.617188 172.859375 C 186.203125 170.144531 183.734375 167.753906 179.757812 164.003906 C 175.777344 160.253906 171.796875 159.375 164.394531 153.714844 C 156.996094 148.050781 149.429688 149.164062 149.429688 149.164062 L 140.675781 147.410156 C 140.675781 147.410156 140.480469 147.460938 140.152344 147.535156 C 139.042969 147.136719 137.632812 146.582031 137.171875 146.214844 C 137.164062 146.210938 137.160156 146.203125 137.152344 146.199219 C 136.425781 145.597656 136.449219 144.464844 136.457031 144.316406 C 136.457031 144.308594 136.457031 144.300781 136.457031 144.300781 C 136.457031 144.300781 136.46875 144.304688 136.476562 144.308594 C 136.691406 144.375 139.527344 145.253906 140.59375 145.101562 C 141.710938 144.941406 142.585938 142.710938 143.460938 141.191406 C 144.335938 139.675781 145.292969 136.40625 145.371094 133.773438 C 145.449219 131.285156 144.882812 131.289062 145.5625 129.339844 C 145.636719 129.320312 145.6875 129.304688 145.6875 129.304688 C 145.6875 129.304688 145.652344 129.285156 145.589844 129.253906 C 145.621094 129.167969 145.652344 129.082031 145.6875 128.988281 C 145.933594 128.339844 146.0625 127.753906 146.113281 127.15625 C 146.128906 127.15625 146.144531 127.15625 146.144531 127.15625 C 146.144531 127.15625 146.328125 126.679688 146.144531 126.195312 C 146.140625 126.195312 146.128906 126.195312 146.125 126.199219 C 146.058594 124.90625 145.707031 123.394531 145.292969 121.011719 C 145.242188 120.71875 145.175781 120.433594 145.09375 120.148438 C 145.457031 118.714844 143.316406 114.585938 139.085938 113.355469 C 139.226562 113.394531 139.355469 113.445312 139.496094 113.492188 C 139.347656 113.410156 139.191406 113.332031 139.042969 113.253906 C 137.746094 110.3125 134.851562 109.765625 133.519531 109.765625 C 132.167969 109.765625 128.34375 108.726562 125.796875 110.242188 C 123.25 111.753906 121.738281 111.359375 120.464844 112.875 C 119.1875 114.386719 119.113281 114.949219 119.113281 114.949219 C 119.113281 114.949219 118.636719 115.746094 115.769531 113.671875 C 112.902344 111.59375 109.722656 109.917969 105.664062 111.753906 C 101.605469 113.589844 99.375 116.0625 96.746094 115.425781 C 95.472656 117.339844 97.703125 119.257812 97.382812 120.609375 C 97.0625 121.964844 94.28125 124.757812 95.3125 127.074219 C 96.347656 129.386719 100.164062 130.746094 100.164062 130.746094 C 100.164062 130.746094 100.640625 135.527344 101.199219 138.160156 C 101.761719 140.792969 104.542969 141.671875 104.542969 141.671875 C 104.542969 141.671875 105.738281 141.035156 107.964844 141.117188 C 110.191406 141.195312 114.09375 139.679688 115.050781 136.648438 C 116.007812 133.613281 118.078125 133.855469 119.109375 130.34375 C 119.109375 130.34375 122.136719 134.8125 125.953125 137.605469 C 125.925781 137.527344 125.898438 137.453125 125.871094 137.378906 C 126.054688 137.832031 126.242188 138.332031 126.433594 138.878906 C 127.425781 141.789062 127.539062 147.269531 127.550781 147.707031 C 125.949219 147.550781 124.761719 147.417969 124.761719 147.417969 L 124.398438 147.480469 L 119.347656 148.375 C 119.347656 148.375 114.496094 149.496094 112.023438 150.929688 C 109.550781 152.363281 107.886719 158.585938 110.511719 163.132812 C 113.140625 167.683594 115.765625 173.664062 119.269531 177.335938 C 119.269531 177.335938 115.6875 178.214844 111.546875 181.804688 C 107.410156 185.394531 98.8125 192.972656 96.902344 193.050781 C 94.992188 193.132812 91.410156 192.011719 88.386719 191.933594 C 85.695312 191.863281 82.257812 193.179688 81.527344 193.46875 C 74.988281 195.523438 70.238281 201.648438 70.238281 208.886719 C 70.238281 217.808594 77.453125 225.039062 86.355469 225.039062 C 95.261719 225.039062 102.476562 217.808594 102.476562 208.886719 C 102.476562 205.960938 101.699219 203.222656 100.34375 200.855469 C 102.957031 198.628906 103.996094 196.957031 106.773438 195.605469 C 109.5625 194.25 118.871094 189.382812 123.011719 186.988281 C 127.148438 184.597656 128.425781 183.078125 128.425781 183.078125 L 128.746094 182.039062 C 128.746094 182.039062 127.238281 180.425781 125.71875 178.199219 C 127.308594 180.457031 128.746094 182.039062 128.746094 182.039062 C 128.746094 182.039062 126.671875 188.898438 126.832031 190.335938 C 126.886719 190.839844 128.558594 191.738281 131.050781 192.714844 C 130.730469 193.644531 130.335938 194.9375 130.335938 195.601562 C 130.335938 196.71875 116.804688 215.863281 116.164062 217.457031 C 115.53125 219.054688 115.53125 219.054688 115.53125 219.054688 C 115.53125 219.054688 115.648438 219.296875 115.878906 219.714844 C 110.804688 230.367188 106.214844 240.925781 105.023438 245.140625 C 103.828125 249.367188 104.226562 256.867188 105.261719 257.902344 C 105.261719 257.902344 103.671875 260.695312 102 262.847656 C 100.328125 265.003906 96.585938 265.71875 92.367188 270.425781 C 88.152344 275.132812 82.417969 283.425781 82.417969 283.425781 C 82.417969 283.425781 73.988281 295.261719 71.71875 298.464844 C 71.429688 298.378906 71.039062 298.328125 70.738281 298.507812 C 70.210938 298.828125 67.34375 304.25 67.449219 305.738281 C 67.554688 307.226562 68.507812 309.570312 69.039062 312.011719 C 69.570312 314.457031 69.996094 318.179688 72.964844 318.179688 C 75.9375 318.179688 84.746094 318.179688 86.019531 318.179688 C 87.296875 318.179688 87.1875 315.949219 86.445312 313.816406 C 85.703125 311.691406 83.898438 311.585938 82.625 310.097656 C 81.347656 308.605469 79.546875 306.796875 79.546875 306.796875 C 79.546875 306.796875 79.558594 306.78125 79.574219 306.753906 C 80.605469 307.339844 81.792969 307.898438 82.597656 307.898438 C 82.832031 307.898438 83.035156 307.851562 83.1875 307.742188 C 83.835938 307.289062 84.277344 306.53125 84.34375 305.761719 C 84.398438 305.117188 84.1875 304.519531 83.75 304.074219 C 83.34375 303.664062 82.417969 303.691406 81.402344 303.890625 C 81.53125 303.679688 81.660156 303.476562 81.777344 303.285156 C 82.628906 301.902344 82.414062 300.523438 81.035156 299.777344 C 80.742188 299.617188 80.46875 299.425781 80.207031 299.222656 C 80.457031 298.953125 83.613281 295.597656 91.648438 290.042969 C 102.953125 282.863281 108.367188 275.125 111.074219 272.015625 C 113.777344 268.90625 120.945312 264.996094 120.945312 264.996094 L 123.773438 266.019531 L 147.847656 274.726562 C 147.847656 274.726562 155.714844 278.59375 159.300781 281.046875 L 158.300781 280.734375 C 156.816406 280.414062 155.117188 281.160156 154.902344 282.015625 C 154.796875 282.441406 155.871094 284.105469 156.992188 285.800781 C 154.875 284.347656 154.199219 284.550781 154.015625 284.691406 C 153.261719 285.28125 152.984375 287.429688 153.253906 288.886719 C 153.421875 289.804688 153.785156 290.378906 154.304688 290.539062 C 154.457031 290.585938 154.636719 290.609375 154.84375 290.609375 C 156.035156 290.609375 157.996094 289.898438 159.226562 289.398438 C 159.296875 289.550781 159.34375 289.679688 159.363281 289.777344 C 159.570312 290.945312 159.464844 292.859375 159.363281 293.289062 C 159.257812 293.714844 156.917969 296.050781 152.886719 296.585938 C 148.855469 297.121094 149.59375 301.480469 152.25 301.691406 C 154.902344 301.902344 161.699219 301.691406 164.878906 301.691406 C 168.0625 301.691406 172.308594 298.285156 173.15625 291.796875 C 174.007812 285.308594 175.597656 278.503906 174.21875 277.226562 C 172.835938 275.945312 169.546875 274.460938 167.742188 273.925781 C 165.9375 273.394531 164.03125 274.03125 163.816406 274.457031 C 163.792969 274.5 163.753906 274.605469 163.699219 274.757812 L 152.378906 265.390625 C 140.597656 254.941406 132.796875 254.78125 132.796875 254.78125 C 132.796875 254.78125 146.445312 243.34375 153.71875 237.058594 C 157.207031 238.707031 160.4375 240.035156 161.054688 239.625 C 162.484375 238.667969 170.605469 225.425781 172.992188 220.480469 C 175.378906 215.535156 174.269531 204.046875 170.921875 198.941406 C 167.578125 193.835938 163.28125 192.402344 163.28125 192.402344 L 162.542969 190.464844 C 164.691406 188.621094 166.125 186.976562 166.304688 186.5 C 166.777344 185.222656 160.414062 177.5625 160.414062 177.5625 C 160.414062 177.5625 159.878906 175.105469 159.257812 172.074219 C 159.175781 171.691406 159.097656 171.292969 159.015625 170.898438 C 159.011719 170.882812 159.011719 170.871094 159.007812 170.863281 C 159 170.8125 158.988281 170.757812 158.976562 170.707031 L 158.742188 166.320312 C 158.742188 166.320312 159.140625 166.398438 160.253906 166.796875 C 161.371094 167.199219 166.859375 171.265625 172.273438 173.976562 C 177.6875 176.691406 185.960938 179.242188 185.960938 179.242188 C 185.960938 179.242188 189.304688 185.066406 193.285156 187.777344 C 197.265625 190.492188 204.269531 194.71875 207.457031 196.714844 C 210.640625 198.710938 214.222656 203.414062 215.734375 205.167969 C 217.246094 206.921875 222.183594 210.355469 222.898438 210.992188 C 223.613281 211.628906 223.773438 210.671875 223.453125 209.871094 C 223.132812 209.074219 221.226562 207.5625 220.988281 206.441406 C 220.746094 205.324219 221.066406 204.445312 221.066406 204.445312 C 221.066406 204.445312 224.648438 204.769531 225.683594 205.164062 C 226.71875 205.566406 228.867188 207.476562 230.699219 208.355469 C 232.53125 209.230469 232.53125 208.113281 232.128906 207.636719 C 231.730469 207.160156 226.636719 203.410156 226.636719 203.410156 C 226.636719 203.410156 228.066406 203.570312 229.183594 204.046875 C 230.296875 204.523438 233.722656 206.4375 234.035156 206.203125 C 234.355469 205.960938 234.035156 205.164062 234.035156 205.164062 C 234.597656 204.53125 233.640625 203.414062 233.640625 203.414062 Z M 83.402344 304.421875 C 83.835938 304.855469 83.886719 305.367188 83.855469 305.726562 C 83.800781 306.355469 83.4375 306.976562 82.90625 307.351562 C 82.484375 307.648438 81.171875 307.101562 79.835938 306.347656 C 80.121094 305.90625 80.582031 305.191406 81.03125 304.476562 C 82.136719 304.207031 83.09375 304.109375 83.402344 304.421875 Z M 154.433594 290.085938 C 154.097656 289.984375 153.84375 289.527344 153.710938 288.804688 C 153.460938 287.414062 153.757812 285.503906 154.296875 285.082031 C 154.335938 285.050781 154.390625 285.039062 154.457031 285.039062 C 154.96875 285.039062 156.296875 285.875 157.773438 287.011719 C 158.257812 287.75 158.699219 288.441406 158.992188 288.972656 C 157.46875 289.578125 155.253906 290.332031 154.433594 290.085938 Z M 139.535156 195.375 C 139.445312 195.355469 139.359375 195.335938 139.273438 195.308594 C 139.355469 195.328125 139.445312 195.355469 139.535156 195.375 Z M 141.671875 195.878906 C 141.757812 195.894531 141.839844 195.910156 141.925781 195.933594 C 141.839844 195.910156 141.757812 195.894531 141.671875 195.878906 Z M 142.730469 196.097656 C 142.839844 196.117188 142.949219 196.140625 143.054688 196.160156 C 142.949219 196.140625 142.839844 196.117188 142.730469 196.097656 Z M 143.84375 196.308594 C 143.933594 196.324219 144.019531 196.34375 144.105469 196.355469 C 144.015625 196.34375 143.929688 196.324219 143.84375 196.308594 Z M 145.117188 196.523438 C 145.179688 196.53125 145.242188 196.539062 145.308594 196.554688 C 145.246094 196.539062 145.183594 196.53125 145.117188 196.523438 Z M 146.109375 196.660156 C 146.214844 196.671875 146.320312 196.683594 146.421875 196.695312 C 146.316406 196.683594 146.214844 196.675781 146.109375 196.660156 Z M 147.105469 196.773438 C 147.203125 196.78125 147.300781 196.792969 147.394531 196.800781 C 147.300781 196.792969 147.203125 196.785156 147.105469 196.773438 Z M 155.136719 195.347656 C 155.046875 195.390625 154.953125 195.425781 154.867188 195.464844 C 154.953125 195.425781 155.046875 195.390625 155.136719 195.347656 Z M 159.519531 192.8125 Z M 158.75 193.328125 C 158.671875 193.386719 158.585938 193.433594 158.507812 193.484375 C 158.585938 193.429688 158.671875 193.378906 158.75 193.328125 Z M 157.945312 193.835938 C 157.855469 193.894531 157.757812 193.949219 157.664062 194.007812 C 157.757812 193.949219 157.855469 193.894531 157.945312 193.835938 Z M 157.09375 194.34375 C 157.003906 194.394531 156.917969 194.445312 156.832031 194.488281 C 156.914062 194.441406 157.003906 194.390625 157.09375 194.34375 Z M 155.992188 194.933594 C 155.992188 194.933594 155.988281 194.933594 155.988281 194.9375 C 155.988281 194.9375 155.988281 194.9375 155.992188 194.933594 Z M 153.058594 196.164062 C 153.152344 196.136719 153.246094 196.101562 153.335938 196.066406 C 153.246094 196.101562 153.152344 196.136719 153.058594 196.164062 Z M 153.953125 195.84375 C 154.054688 195.804688 154.152344 195.765625 154.257812 195.722656 C 154.152344 195.765625 154.054688 195.804688 153.953125 195.84375 Z M 151.011719 196.6875 C 151.105469 196.671875 151.195312 196.660156 151.289062 196.636719 C 151.199219 196.65625 151.105469 196.671875 151.011719 196.6875 Z M 152.171875 196.429688 C 152.175781 196.429688 152.175781 196.429688 152.171875 196.429688 C 152.175781 196.429688 152.175781 196.429688 152.171875 196.429688 Z M 149.191406 196.882812 C 149.285156 196.878906 149.375 196.875 149.46875 196.871094 C 149.375 196.875 149.285156 196.882812 149.191406 196.882812 Z M 150.082031 196.824219 C 150.183594 196.8125 150.289062 196.800781 150.390625 196.785156 C 150.289062 196.796875 150.1875 196.8125 150.082031 196.824219 Z M 140.601562 195.632812 C 140.574219 195.625 140.539062 195.617188 140.511719 195.613281 C 140.539062 195.621094 140.574219 195.628906 140.601562 195.632812 Z M 119.660156 151.753906 C 119.667969 151.824219 119.671875 151.890625 119.679688 151.960938 C 119.695312 152.085938 119.707031 152.207031 119.714844 152.332031 C 119.722656 152.429688 119.730469 152.527344 119.746094 152.628906 C 119.757812 152.769531 119.773438 152.910156 119.785156 153.058594 C 119.789062 153.105469 119.792969 153.152344 119.800781 153.203125 C 119.816406 153.394531 119.835938 153.585938 119.855469 153.785156 C 119.855469 153.789062 119.855469 153.792969 119.855469 153.796875 C 119.9375 154.664062 120.03125 155.59375 120.128906 156.5625 C 120.132812 156.59375 120.136719 156.625 120.136719 156.65625 C 120.140625 156.707031 120.144531 156.753906 120.152344 156.804688 C 119.882812 154.625 119.707031 152.875 119.65625 152.042969 C 119.632812 151.714844 119.617188 151.414062 119.597656 151.136719 C 119.605469 151.21875 119.613281 151.308594 119.621094 151.398438 C 119.632812 151.511719 119.648438 151.632812 119.660156 151.753906 Z M 131.96875 193.0625 C 131.945312 193.054688 131.917969 193.046875 131.894531 193.035156 C 131.921875 193.042969 131.945312 193.050781 131.96875 193.0625 Z M 138.414062 195.085938 C 138.34375 195.0625 138.265625 195.046875 138.195312 195.027344 C 138.265625 195.046875 138.34375 195.066406 138.414062 195.085938 Z M 136.066406 194.421875 C 136.023438 194.410156 135.984375 194.398438 135.941406 194.382812 C 135.980469 194.398438 136.023438 194.410156 136.066406 194.421875 Z M 135.019531 194.101562 C 134.96875 194.085938 134.925781 194.074219 134.875 194.054688 C 134.925781 194.066406 134.96875 194.085938 135.019531 194.101562 Z M 160.492188 192.105469 C 160.417969 192.160156 160.34375 192.21875 160.265625 192.273438 C 160.34375 192.21875 160.417969 192.164062 160.492188 192.105469 Z M 161.90625 191 C 161.839844 191.054688 161.773438 191.109375 161.703125 191.164062 C 161.773438 191.109375 161.839844 191.054688 161.90625 191 Z M 161.234375 191.546875 C 161.15625 191.609375 161.074219 191.671875 160.992188 191.734375 C 161.070312 191.667969 161.152344 191.605469 161.234375 191.546875 Z M 161.234375 191.546875 " fill-opacity="1" fill-rule="nonzero"/></g><g clip-path="url(#38bcf394ca)"><path fill="#402978" d="M 144.011719 232.132812 C 144.011719 232.132812 139.875 233.726562 130.324219 231.8125 C 120.769531 229.894531 115.519531 219.050781 115.519531 219.050781 C 115.519531 219.050781 115.519531 219.050781 116.152344 217.453125 C 116.789062 215.859375 130.324219 196.714844 130.324219 195.59375 C 130.324219 194.929688 130.71875 193.640625 131.039062 192.710938 C 135.640625 194.507812 143.042969 196.5625 148.3125 196.875 C 153.382812 197.171875 158.957031 193.546875 162.539062 190.46875 L 163.277344 192.40625 C 163.277344 192.40625 167.574219 193.839844 170.917969 198.945312 C 174.257812 204.050781 175.375 215.539062 172.988281 220.484375 C 170.601562 225.429688 162.480469 238.671875 161.050781 239.628906 C 159.617188 240.589844 144.011719 232.132812 144.011719 232.132812 Z M 134.621094 167.679688 C 142.445312 160.71875 140.898438 153.9375 143.183594 147.921875 L 140.671875 147.417969 C 140.671875 147.417969 137.644531 148.214844 134.78125 148.214844 C 131.914062 148.214844 124.753906 147.417969 124.753906 147.417969 L 124.390625 147.480469 C 124.308594 149.9375 124.734375 159.039062 134.621094 167.679688 Z M 159.25 172.078125 C 158.609375 168.929688 157.871094 165.167969 157.542969 162.890625 C 156.90625 158.421875 149.421875 149.167969 149.421875 149.167969 L 147.683594 148.820312 C 147.101562 151.433594 145.6875 159.804688 149.582031 166.183594 C 151.988281 170.125 155.960938 171.585938 159.25 172.078125 Z M 120.433594 148.179688 L 119.339844 148.371094 C 119.339844 148.371094 120.441406 160.304688 121.25 166.996094 C 121.902344 162.636719 120.832031 151.839844 120.433594 148.179688 Z M 174.207031 277.234375 C 172.828125 275.957031 169.539062 274.46875 167.734375 273.933594 C 165.929688 273.402344 164.019531 274.039062 163.808594 274.464844 C 163.59375 274.890625 161.363281 281.699219 161.363281 281.699219 L 158.289062 280.738281 C 156.800781 280.417969 155.105469 281.164062 154.890625 282.019531 C 154.679688 282.871094 159.132812 288.613281 159.347656 289.78125 C 159.558594 290.949219 159.453125 292.867188 159.347656 293.292969 C 159.242188 293.71875 156.90625 296.054688 152.875 296.589844 C 148.839844 297.121094 149.582031 301.484375 152.238281 301.695312 C 154.890625 301.90625 161.683594 301.695312 164.867188 301.695312 C 168.050781 301.695312 172.296875 298.289062 173.144531 291.800781 C 174 285.316406 175.589844 278.507812 174.207031 277.234375 Z M 82.621094 310.101562 C 81.34375 308.609375 79.542969 306.800781 79.542969 306.800781 C 79.542969 306.800781 80.921875 304.675781 81.769531 303.289062 C 82.621094 301.90625 82.40625 300.527344 81.027344 299.78125 C 79.648438 299.039062 78.800781 297.652344 76.675781 297.226562 C 74.554688 296.800781 72.113281 298.613281 72.113281 298.613281 C 72.113281 298.613281 71.261719 298.183594 70.730469 298.507812 C 70.199219 298.828125 67.332031 304.25 67.4375 305.738281 C 67.542969 307.226562 68.5 309.570312 69.03125 312.011719 C 69.5625 314.453125 69.984375 318.179688 72.957031 318.179688 C 75.929688 318.179688 84.738281 318.179688 86.011719 318.179688 C 87.289062 318.179688 87.179688 315.949219 86.4375 313.816406 C 85.695312 311.695312 83.890625 311.589844 82.621094 310.101562 Z M 82.621094 310.101562 " fill-opacity="1" fill-rule="nonzero"/></g><g clip-path="url(#833c716ab2)"><path fill="#ac6d55" d="M 234.039062 205.167969 C 234.039062 205.167969 234.359375 205.964844 234.039062 206.207031 C 233.722656 206.445312 230.296875 204.53125 229.1875 204.050781 C 228.070312 203.574219 226.640625 203.414062 226.640625 203.414062 C 226.640625 203.414062 231.734375 207.164062 232.132812 207.640625 C 232.535156 208.117188 232.535156 209.234375 230.703125 208.359375 C 228.871094 207.480469 226.722656 205.566406 225.6875 205.167969 C 224.652344 204.769531 221.070312 204.453125 221.070312 204.453125 C 221.070312 204.453125 220.75 205.328125 220.992188 206.445312 C 221.230469 207.566406 223.140625 209.078125 223.457031 209.878906 C 223.777344 210.675781 223.617188 211.632812 222.902344 210.996094 C 222.1875 210.359375 217.253906 206.929688 215.738281 205.171875 C 214.226562 203.417969 210.644531 198.710938 207.460938 196.71875 C 204.277344 194.722656 197.273438 190.496094 193.292969 187.78125 C 189.3125 185.070312 185.964844 179.246094 185.964844 179.246094 C 185.964844 179.246094 177.691406 176.695312 172.277344 173.980469 C 166.863281 171.269531 161.375 167.203125 160.257812 166.800781 C 159.140625 166.398438 158.746094 166.324219 158.746094 166.324219 L 158.988281 170.792969 C 158.988281 170.792969 152.539062 170.316406 149.910156 163.054688 C 147.285156 155.792969 149.433594 149.171875 149.433594 149.171875 C 149.433594 149.171875 156.996094 148.054688 164.398438 153.722656 C 171.800781 159.382812 175.785156 160.261719 179.761719 164.011719 C 183.738281 167.761719 186.210938 170.15625 191.621094 172.867188 C 197.035156 175.582031 203.082031 184.117188 208.730469 190.257812 C 214.382812 196.402344 214.226562 195.046875 220.511719 195.921875 C 226.800781 196.796875 227.835938 196.476562 229.265625 197.515625 C 230.699219 198.554688 233.40625 201.582031 233.804688 202.222656 C 234.203125 202.859375 233.644531 203.421875 233.644531 203.421875 C 233.644531 203.421875 234.597656 204.53125 234.039062 205.167969 Z M 95.457031 195.835938 C 92.910156 196.875 92.511719 197.113281 92.992188 197.910156 C 93.46875 198.710938 93.230469 198.628906 94.984375 198.550781 C 96.734375 198.46875 98.40625 198.628906 98.40625 198.628906 C 98.40625 198.628906 99.679688 199.90625 100.316406 200.859375 C 102.945312 198.628906 103.980469 196.949219 106.765625 195.59375 C 109.550781 194.242188 118.863281 189.371094 123.003906 186.980469 C 127.140625 184.589844 128.417969 183.070312 128.417969 183.070312 L 128.734375 182.03125 C 128.734375 182.03125 124.199219 177.167969 122.925781 172.699219 C 121.363281 167.21875 119.824219 154.75 119.664062 152.039062 C 119.503906 149.324219 119.34375 148.367188 119.34375 148.367188 C 119.34375 148.367188 114.492188 149.484375 112.019531 150.921875 C 109.550781 152.355469 107.882812 158.578125 110.507812 163.125 C 113.136719 167.675781 115.761719 173.65625 119.265625 177.328125 C 119.265625 177.328125 115.683594 178.203125 111.542969 181.796875 C 107.40625 185.386719 98.808594 192.964844 96.898438 193.042969 C 94.988281 193.125 91.40625 192.003906 88.382812 191.925781 C 85.355469 191.84375 81.378906 193.519531 81.378906 193.519531 C 81.378906 193.519531 88.773438 191.609375 95.457031 195.835938 Z M 130.007812 225.035156 C 130.007812 225.035156 125.550781 218.335938 115.917969 219.609375 C 110.824219 230.300781 106.207031 240.914062 105.015625 245.140625 C 103.820312 249.367188 104.21875 256.867188 105.253906 257.902344 C 105.253906 257.902344 103.664062 260.695312 101.992188 262.847656 C 100.320312 265.003906 96.578125 265.71875 92.359375 270.425781 C 88.140625 275.132812 82.410156 283.425781 82.410156 283.425781 C 82.410156 283.425781 88.859375 286.535156 91.640625 290.046875 C 102.945312 282.867188 108.355469 275.128906 111.0625 272.019531 C 113.769531 268.910156 120.933594 265 120.933594 265 L 147.839844 274.730469 C 147.839844 274.730469 153.332031 272.5 152.378906 265.398438 C 140.597656 254.949219 132.796875 254.789062 132.796875 254.789062 C 132.796875 254.789062 152.222656 238.515625 157.074219 234.128906 C 147.28125 221.125 135.335938 219.769531 130.007812 225.035156 Z M 124.273438 134.25 C 124.273438 134.25 125.390625 135.847656 126.425781 138.878906 C 127.460938 141.914062 127.539062 147.734375 127.539062 147.734375 L 126.1875 147.574219 C 126.1875 147.574219 125.3125 150.527344 127.144531 155.230469 C 128.976562 159.941406 134.230469 166.003906 134.230469 166.003906 C 134.230469 166.003906 137.097656 163.847656 138.609375 160.496094 C 140.117188 157.148438 141.632812 148.050781 141.632812 148.050781 C 141.632812 148.050781 137.972656 146.851562 137.175781 146.214844 C 136.378906 145.578125 136.460938 144.300781 136.460938 144.300781 C 136.460938 144.300781 139.488281 145.257812 140.597656 145.097656 C 141.714844 144.9375 142.589844 142.707031 143.464844 141.1875 C 144.339844 139.671875 145.296875 136.402344 145.375 133.769531 C 145.457031 131.136719 144.820312 131.296875 145.695312 128.980469 C 146.574219 126.667969 146.015625 125.152344 145.296875 121.003906 C 145.246094 120.710938 145.179688 120.425781 145.097656 120.136719 C 145.085938 120.1875 145.078125 120.242188 145.0625 120.285156 C 126.277344 119.085938 124.046875 124.753906 124.046875 124.753906 C 122.613281 123.714844 121.976562 123.476562 121.976562 123.476562 L 120.941406 122.757812 C 120.941406 122.757812 121.894531 117.414062 125.078125 115.179688 C 128.261719 112.949219 134.710938 112.070312 139.085938 113.34375 C 139.226562 113.386719 139.355469 113.4375 139.496094 113.484375 C 138 112.648438 136.242188 112.015625 134.234375 111.671875 C 127.785156 110.550781 118.871094 118.929688 119.269531 126.589844 C 119.664062 134.246094 124.273438 134.25 124.273438 134.25 Z M 124.273438 134.25 " fill-opacity="1" fill-rule="nonzero"/></g><path fill="#682c19" d="M 104.535156 141.667969 C 104.535156 141.667969 101.746094 140.789062 101.191406 138.15625 C 100.636719 135.523438 100.15625 130.742188 100.15625 130.742188 C 100.15625 130.742188 96.335938 129.386719 95.304688 127.070312 C 94.265625 124.757812 97.054688 121.964844 97.375 120.605469 C 97.695312 119.253906 95.460938 117.335938 96.738281 115.421875 C 99.363281 116.058594 101.59375 113.585938 105.65625 111.75 C 109.710938 109.914062 112.898438 111.589844 115.761719 113.667969 C 118.628906 115.742188 119.105469 114.945312 119.105469 114.945312 C 119.105469 114.945312 119.183594 114.386719 120.457031 112.867188 C 121.730469 111.355469 123.242188 111.75 125.789062 110.234375 C 128.335938 108.722656 132.160156 109.757812 133.511719 109.757812 C 134.859375 109.757812 137.808594 110.316406 139.082031 113.351562 C 136.535156 112.3125 132.632812 111.914062 127.378906 115.660156 C 122.125 119.414062 121.96875 123.480469 121.96875 123.480469 C 121.96875 123.480469 118.703125 125.074219 119.578125 128.585938 C 120.457031 132.09375 123.796875 132.570312 123.796875 132.570312 C 123.796875 132.570312 124.039062 132.492188 125.949219 137.597656 C 122.125 134.804688 119.105469 130.335938 119.105469 130.335938 C 118.070312 133.847656 116 133.605469 115.046875 136.640625 C 114.089844 139.671875 110.191406 141.1875 107.960938 141.105469 C 105.730469 141.03125 104.535156 141.667969 104.535156 141.667969 Z M 123.238281 124.355469 C 123.238281 124.355469 123.875 127.464844 125.230469 128.824219 C 127.855469 123.800781 128.015625 121.726562 128.015625 121.726562 C 128.015625 121.726562 125.070312 122.125 123.238281 124.355469 Z M 133.984375 130.605469 C 133.980469 130.59375 133.964844 130.574219 133.9375 130.558594 C 133.976562 130.625 134 130.652344 133.984375 130.605469 Z M 135.527344 128.269531 C 134.730469 128.214844 134.304688 128.429688 133.40625 128.746094 C 132.503906 129.066406 131.972656 128.585938 131.972656 128.585938 C 132.3125 129.90625 133.683594 130.371094 133.945312 130.558594 C 133.839844 130.386719 133.601562 129.917969 133.566406 129.648438 C 133.511719 129.277344 134.039062 128.957031 135.636719 129.011719 C 137.226562 129.066406 138.925781 130.179688 138.925781 130.179688 C 138.925781 130.179688 136.320312 128.320312 135.527344 128.269531 Z M 144.253906 129.195312 C 143.585938 129.566406 142.925781 130.019531 142.925781 130.019531 C 142.925781 130.019531 143.777344 129.808594 144.171875 129.699219 C 144.207031 129.691406 144.253906 129.675781 144.296875 129.664062 C 144.148438 129.769531 144.019531 129.964844 143.972656 130.203125 C 143.886719 130.605469 144.035156 130.980469 144.308594 131.039062 C 144.582031 131.097656 144.871094 130.820312 144.957031 130.414062 C 145.039062 130.015625 144.894531 129.640625 144.617188 129.582031 C 144.613281 129.582031 144.613281 129.582031 144.609375 129.582031 C 145.085938 129.453125 145.683594 129.296875 145.683594 129.296875 C 145.683594 129.296875 144.917969 128.824219 144.253906 129.195312 Z M 137.089844 130.1875 C 137.1875 129.707031 137.007812 129.261719 136.683594 129.191406 C 136.359375 129.125 136.011719 129.453125 135.910156 129.933594 C 135.808594 130.414062 135.988281 130.863281 136.3125 130.929688 C 136.640625 131.003906 136.988281 130.667969 137.089844 130.1875 Z M 143.355469 132.503906 L 143.226562 132.457031 C 142.800781 132.300781 141.980469 131.304688 142.078125 130.847656 C 142.207031 130.253906 143.039062 127.789062 143.050781 127.761719 C 143.089844 127.636719 143.023438 127.5 142.898438 127.453125 C 142.769531 127.410156 142.636719 127.480469 142.589844 127.605469 C 142.554688 127.707031 141.734375 130.125 141.601562 130.746094 C 141.433594 131.527344 142.496094 132.707031 143.054688 132.910156 L 143.1875 132.960938 C 143.675781 133.136719 143.714844 133.179688 143.691406 133.34375 C 143.566406 134.339844 142.921875 134.789062 141.78125 134.675781 C 141.65625 134.664062 141.535156 134.761719 141.515625 134.890625 C 141.503906 135.023438 141.601562 135.140625 141.730469 135.15625 C 141.859375 135.171875 141.976562 135.175781 142.09375 135.175781 C 143.277344 135.175781 144.027344 134.542969 144.167969 133.402344 C 144.246094 132.824219 143.792969 132.660156 143.355469 132.503906 Z M 139.585938 134.953125 C 139.96875 134.953125 140.453125 134.859375 141.058594 134.605469 C 141.179688 134.554688 141.238281 134.410156 141.1875 134.289062 C 141.136719 134.167969 140.996094 134.109375 140.871094 134.15625 C 139.105469 134.894531 138.683594 134.082031 138.664062 134.039062 C 138.609375 133.917969 138.464844 133.867188 138.347656 133.917969 C 138.226562 133.972656 138.167969 134.117188 138.226562 134.234375 C 138.242188 134.28125 138.546875 134.953125 139.585938 134.953125 Z M 143.328125 137.070312 C 143.191406 136.777344 142.636719 136.296875 142.425781 136.328125 C 142.214844 136.355469 141.496094 137.019531 141.496094 137.019531 C 141.496094 137.019531 141.335938 136.566406 140.699219 136.328125 C 140.0625 136.085938 139.640625 136.671875 138.339844 137.019531 C 137.039062 137.363281 136.667969 136.808594 136.667969 136.808594 C 137.199219 138.085938 139.425781 139.996094 141.414062 139.890625 C 143.40625 139.785156 142.820312 137.84375 142.820312 137.84375 C 143.246094 137.789062 143.671875 137.367188 143.671875 137.367188 C 143.671875 137.367188 143.457031 137.359375 143.328125 137.070312 Z M 131.464844 124.890625 C 131.507812 125.125 133.398438 124.753906 134.355469 124.96875 C 135.3125 125.179688 137.0625 126.324219 138.734375 126.5625 C 140.40625 126.804688 141.359375 126.324219 141.253906 126.164062 C 141.148438 126.003906 139.847656 125.390625 138.074219 124.671875 C 136.292969 123.960938 131.332031 124.171875 131.464844 124.890625 Z M 144.042969 126.378906 C 143.882812 126.722656 143.488281 127.390625 144.042969 127.28125 C 144.597656 127.175781 146.140625 127.144531 146.140625 127.144531 C 146.140625 127.144531 146.324219 126.667969 146.140625 126.1875 C 145.6875 126.296875 144.042969 126.378906 144.042969 126.378906 Z M 128.152344 139.125 C 128.023438 138.914062 127.902344 138.703125 127.78125 138.476562 C 127.890625 138.699219 128.015625 138.914062 128.152344 139.125 Z M 136.472656 144.308594 L 136.464844 144.28125 C 133.683594 143.628906 129.867188 141.792969 128.152344 139.125 C 131.871094 145.359375 137.21875 146.351562 137.21875 146.351562 L 137.167969 146.214844 C 136.371094 145.578125 136.453125 144.300781 136.453125 144.300781 C 136.453125 144.300781 136.464844 144.304688 136.472656 144.308594 Z M 158.410156 170.703125 C 158.769531 170.769531 158.984375 170.789062 158.984375 170.789062 L 158.742188 166.320312 C 158.742188 166.320312 154.445312 165.761719 151.261719 164.484375 C 151.257812 164.484375 155.3125 169.074219 158.410156 170.703125 Z M 150.550781 227.3125 C 151.753906 229.660156 153.421875 233.609375 153.359375 237.375 C 154.921875 236.03125 156.222656 234.894531 157.070312 234.128906 C 154.964844 231.335938 152.765625 229.082031 150.550781 227.3125 Z M 191.082031 177.09375 L 187.5 177.972656 C 187.367188 178.007812 187.289062 178.136719 187.320312 178.265625 C 187.347656 178.375 187.449219 178.449219 187.558594 178.449219 C 187.574219 178.449219 187.59375 178.445312 187.617188 178.441406 L 191.199219 177.5625 C 191.328125 177.53125 191.410156 177.398438 191.375 177.273438 C 191.339844 177.140625 191.210938 177.0625 191.082031 177.09375 Z M 119.445312 177.769531 C 119.476562 177.792969 122.535156 179.796875 125.636719 180.753906 C 125.664062 180.761719 125.683594 180.765625 125.710938 180.765625 C 125.808594 180.765625 125.90625 180.699219 125.941406 180.597656 C 125.980469 180.46875 125.90625 180.335938 125.78125 180.292969 C 122.746094 179.355469 119.746094 177.390625 119.714844 177.371094 C 119.605469 177.296875 119.453125 177.328125 119.382812 177.4375 C 119.300781 177.546875 119.335938 177.699219 119.445312 177.769531 Z M 121.089844 163.992188 C 121.082031 163.855469 120.960938 163.753906 120.839844 163.761719 L 118.050781 163.921875 C 117.917969 163.933594 117.816406 164.046875 117.824219 164.175781 C 117.832031 164.304688 117.9375 164.40625 118.066406 164.40625 C 118.070312 164.40625 118.074219 164.40625 118.078125 164.40625 L 120.863281 164.242188 C 121 164.238281 121.101562 164.125 121.089844 163.992188 Z M 159.441406 176.539062 C 159.3125 176.5 159.179688 176.578125 159.140625 176.703125 C 159.125 176.765625 157.292969 183.15625 154.410156 186.667969 C 154.328125 186.769531 154.339844 186.921875 154.445312 187.011719 C 154.492188 187.046875 154.542969 187.066406 154.597656 187.066406 C 154.667969 187.066406 154.734375 187.035156 154.78125 186.976562 C 157.722656 183.390625 159.53125 177.105469 159.601562 176.835938 C 159.648438 176.707031 159.570312 176.578125 159.441406 176.539062 Z M 139.164062 188.269531 C 135.269531 186.867188 129.503906 182.210938 129.441406 182.167969 C 129.339844 182.082031 129.1875 182.097656 129.101562 182.199219 C 129.019531 182.304688 129.035156 182.457031 129.140625 182.542969 C 129.378906 182.734375 135.03125 187.292969 139 188.722656 C 139.023438 188.730469 139.054688 188.734375 139.078125 188.734375 C 139.175781 188.734375 139.273438 188.671875 139.304688 188.574219 C 139.351562 188.453125 139.285156 188.3125 139.164062 188.269531 Z M 140.296875 153.320312 L 136.398438 154.277344 C 136.265625 154.3125 136.191406 154.441406 136.222656 154.570312 C 136.246094 154.679688 136.347656 154.753906 136.457031 154.753906 C 136.472656 154.753906 136.496094 154.75 136.515625 154.746094 L 140.417969 153.789062 C 140.546875 153.753906 140.628906 153.625 140.59375 153.5 C 140.558594 153.371094 140.425781 153.292969 140.296875 153.320312 Z M 126.902344 153.703125 L 128.25 154.179688 C 128.277344 154.191406 128.308594 154.195312 128.332031 154.195312 C 128.433594 154.195312 128.527344 154.132812 128.558594 154.035156 C 128.605469 153.90625 128.539062 153.769531 128.410156 153.726562 L 127.0625 153.25 C 126.933594 153.207031 126.796875 153.269531 126.753906 153.398438 C 126.710938 153.523438 126.773438 153.660156 126.902344 153.703125 Z M 128.246094 227.222656 L 130.007812 225.035156 C 130.007812 225.035156 127.46875 221.222656 122.085938 219.898438 C 126.316406 222.496094 127.363281 225.976562 127.621094 227.332031 C 126.207031 228.777344 118.472656 236.789062 113.734375 243.480469 C 108.476562 250.90625 105.578125 256.476562 105.351562 257.007812 C 105.300781 257.128906 105.355469 257.273438 105.476562 257.324219 C 105.507812 257.335938 105.539062 257.34375 105.574219 257.34375 C 105.667969 257.34375 105.753906 257.289062 105.796875 257.199219 C 106.019531 256.675781 108.894531 251.15625 114.128906 243.761719 C 119.3125 236.441406 128.105469 227.523438 128.191406 227.4375 C 128.242188 227.378906 128.265625 227.296875 128.246094 227.222656 Z M 109.863281 261.820312 C 109.738281 261.78125 109.601562 261.847656 109.5625 261.972656 L 108.683594 264.605469 C 108.644531 264.734375 108.710938 264.867188 108.835938 264.910156 C 108.863281 264.917969 108.886719 264.921875 108.914062 264.921875 C 109.015625 264.921875 109.105469 264.859375 109.140625 264.757812 L 110.015625 262.125 C 110.058594 262 109.992188 261.863281 109.863281 261.820312 Z M 101.632812 212.109375 C 97.746094 211.847656 93.886719 211.324219 90.292969 210.6875 C 92.300781 203.3125 97.039062 198.875 97.109375 198.804688 C 97.207031 198.71875 97.214844 198.5625 97.125 198.464844 C 97.039062 198.363281 96.882812 198.359375 96.785156 198.449219 C 96.714844 198.515625 91.859375 203.058594 89.816406 210.597656 C 87.90625 210.253906 86.070312 209.878906 84.347656 209.492188 C 86.199219 201.027344 88.648438 193.816406 88.683594 193.707031 C 88.726562 193.578125 88.660156 193.441406 88.535156 193.398438 C 88.40625 193.355469 88.269531 193.421875 88.226562 193.550781 C 88.1875 193.664062 85.734375 200.890625 83.878906 209.390625 C 82.035156 208.972656 80.324219 208.546875 78.796875 208.148438 C 80.097656 201.21875 79.996094 194.789062 79.996094 194.6875 C 79.992188 194.554688 79.878906 194.464844 79.753906 194.453125 C 79.617188 194.457031 79.511719 194.566406 79.515625 194.695312 C 79.519531 194.796875 79.617188 201.164062 78.332031 208.019531 C 73.910156 206.839844 71.09375 205.867188 71.027344 205.84375 C 70.898438 205.796875 70.761719 205.863281 70.71875 205.992188 C 70.675781 206.117188 70.738281 206.257812 70.867188 206.300781 C 70.929688 206.320312 73.777344 207.304688 78.242188 208.492188 C 77.496094 212.292969 76.316406 216.203125 74.457031 219.238281 C 74.386719 219.351562 74.421875 219.5 74.535156 219.574219 C 74.574219 219.597656 74.621094 219.605469 74.664062 219.605469 C 74.742188 219.605469 74.824219 219.5625 74.871094 219.492188 C 76.757812 216.40625 77.953125 212.453125 78.707031 208.617188 C 80.238281 209.019531 81.941406 209.441406 83.78125 209.859375 C 82.773438 214.554688 81.960938 219.605469 81.851562 224.039062 C 81.847656 224.175781 81.953125 224.285156 82.089844 224.289062 C 82.09375 224.289062 82.09375 224.289062 82.09375 224.289062 C 82.222656 224.289062 82.328125 224.183594 82.332031 224.054688 C 82.441406 219.648438 83.246094 214.632812 84.25 209.964844 C 85.964844 210.347656 87.792969 210.722656 89.695312 211.066406 C 88.769531 214.75 88.53125 219.113281 89.816406 224.003906 C 89.847656 224.113281 89.945312 224.183594 90.050781 224.183594 C 90.070312 224.183594 90.089844 224.179688 90.113281 224.175781 C 90.242188 224.140625 90.320312 224.011719 90.285156 223.878906 C 89.019531 219.066406 89.261719 214.773438 90.171875 211.15625 C 93.796875 211.796875 97.679688 212.324219 101.601562 212.589844 C 101.605469 212.589844 101.613281 212.589844 101.617188 212.589844 C 101.742188 212.589844 101.847656 212.492188 101.855469 212.367188 C 101.867188 212.234375 101.765625 212.117188 101.632812 212.109375 Z M 95.613281 196.023438 L 97.101562 194.773438 C 97.203125 194.6875 97.214844 194.535156 97.128906 194.429688 C 97.046875 194.328125 96.894531 194.316406 96.789062 194.402344 L 95.304688 195.652344 C 95.203125 195.734375 95.1875 195.886719 95.273438 195.992188 C 95.320312 196.050781 95.390625 196.078125 95.457031 196.078125 C 95.511719 196.078125 95.566406 196.058594 95.613281 196.023438 Z M 102.460938 197.777344 C 100.960938 198.578125 98.1875 198.078125 98.15625 198.070312 C 98.027344 198.046875 97.898438 198.136719 97.875 198.265625 C 97.851562 198.398438 97.9375 198.523438 98.070312 198.550781 C 98.136719 198.5625 99.003906 198.71875 100.050781 198.71875 C 100.929688 198.71875 101.933594 198.609375 102.683594 198.203125 C 102.800781 198.140625 102.84375 197.992188 102.785156 197.878906 C 102.71875 197.761719 102.578125 197.714844 102.460938 197.777344 Z M 132.050781 255.269531 L 125.507812 261.242188 L 120.925781 265.003906 L 123.757812 266.027344 C 124.230469 264.664062 124.894531 263.078125 125.328125 262.0625 L 132.367188 255.628906 C 132.464844 255.539062 132.472656 255.386719 132.386719 255.285156 C 132.300781 255.183594 132.148438 255.175781 132.050781 255.269531 Z M 233.785156 204.734375 C 233.667969 204.648438 230.890625 202.640625 229.929688 202.160156 C 228.960938 201.675781 225.636719 200.898438 225.496094 200.863281 C 225.363281 200.835938 225.234375 200.914062 225.203125 201.046875 C 225.175781 201.175781 225.253906 201.308594 225.386719 201.335938 C 225.417969 201.347656 228.792969 202.136719 229.710938 202.59375 C 230.636719 203.058594 233.46875 205.105469 233.496094 205.125 C 233.539062 205.15625 233.589844 205.171875 233.640625 205.171875 C 233.714844 205.171875 233.789062 205.140625 233.835938 205.070312 C 233.914062 204.964844 233.890625 204.8125 233.785156 204.734375 Z M 226.3125 198.777344 C 226.335938 198.785156 228.847656 199.734375 229.929688 200.429688 C 231.011719 201.125 233.054688 203.09375 233.078125 203.113281 C 233.125 203.160156 233.183594 203.179688 233.246094 203.179688 C 233.308594 203.179688 233.371094 203.15625 233.417969 203.105469 C 233.511719 203.007812 233.507812 202.855469 233.410156 202.765625 C 233.324219 202.683594 231.308594 200.742188 230.1875 200.019531 C 229.066406 199.296875 226.585938 198.363281 226.480469 198.320312 C 226.359375 198.273438 226.214844 198.339844 226.167969 198.460938 C 226.125 198.589844 226.191406 198.730469 226.3125 198.777344 Z M 226.3125 198.777344 " fill-opacity="1" fill-rule="nonzero"/><path fill="#d9d9d9" d="M 91.640625 290.050781 C 83.253906 295.847656 80.175781 299.253906 80.175781 299.253906 C 80.175781 299.253906 78.054688 297.867188 76.144531 297.65625 C 74.234375 297.445312 71.15625 299.253906 71.15625 299.253906 C 71.367188 298.933594 82.40625 283.429688 82.40625 283.429688 C 82.40625 283.429688 89.835938 286.273438 91.640625 290.050781 Z M 162.003906 282.871094 C 162.003906 282.871094 165.933594 279.785156 164.871094 275.746094 L 152.375 265.398438 C 152.375 265.398438 153.089844 271.597656 147.835938 274.730469 C 147.835938 274.730469 155.957031 278.71875 159.457031 281.164062 C 160.199219 281.703125 162.003906 282.871094 162.003906 282.871094 Z M 166.511719 284.976562 C 166.835938 285.570312 166.855469 286.152344 166.558594 286.617188 C 165.792969 287.824219 160.925781 288.824219 160.273438 288.953125 C 159.78125 289.179688 156.527344 290.617188 154.832031 290.617188 C 154.625 290.617188 154.445312 290.59375 154.292969 290.550781 C 153.769531 290.390625 153.410156 289.816406 153.242188 288.894531 C 152.976562 287.441406 153.25 285.292969 154.003906 284.703125 C 154.257812 284.503906 155.449219 284.1875 160.105469 288.316406 C 160.625 287.105469 162.375 283.265625 163.808594 283.265625 C 164.800781 283.265625 165.988281 284.019531 166.511719 284.976562 Z M 159.757812 288.652344 C 157.621094 286.769531 155.199219 285.035156 154.453125 285.035156 C 154.386719 285.035156 154.332031 285.046875 154.292969 285.078125 C 153.753906 285.5 153.457031 287.410156 153.707031 288.800781 C 153.839844 289.523438 154.09375 289.980469 154.425781 290.082031 C 155.402344 290.378906 158.34375 289.265625 159.757812 288.652344 Z M 166.09375 285.207031 C 165.652344 284.40625 164.628906 283.753906 163.8125 283.753906 C 162.914062 283.753906 161.445312 286.445312 160.601562 288.394531 C 162.308594 288.027344 165.640625 287.167969 166.15625 286.359375 C 166.402344 285.957031 166.257812 285.511719 166.09375 285.207031 Z M 83.742188 304.078125 C 84.179688 304.519531 84.390625 305.117188 84.335938 305.765625 C 84.269531 306.535156 83.828125 307.292969 83.179688 307.746094 C 83.023438 307.855469 82.824219 307.902344 82.589844 307.902344 C 81.105469 307.902344 78.292969 306 77.617188 305.527344 C 76.960938 305.253906 71.921875 303.132812 71.375 302.25 C 71.175781 301.929688 71.175781 301.535156 71.375 301.140625 C 71.765625 300.355469 72.992188 299.488281 74.847656 299.328125 C 75.308594 299.285156 75.726562 299.429688 76.105469 299.753906 C 77.425781 300.882812 77.839844 303.957031 77.945312 304.96875 C 79.210938 304.46875 82.816406 303.152344 83.742188 304.078125 Z M 77.457031 304.9375 C 77.339844 303.894531 76.933594 301.09375 75.796875 300.121094 C 75.546875 299.910156 75.285156 299.804688 75 299.804688 C 74.964844 299.804688 74.929688 299.804688 74.894531 299.808594 C 73.230469 299.953125 72.128906 300.710938 71.808594 301.355469 C 71.722656 301.523438 71.652344 301.777344 71.789062 301.996094 C 72.121094 302.535156 75.296875 304.019531 77.457031 304.9375 Z M 83.402344 304.421875 C 82.832031 303.851562 80.097656 304.648438 78.246094 305.371094 C 79.945312 306.507812 82.3125 307.761719 82.90625 307.347656 C 83.441406 306.972656 83.800781 306.355469 83.855469 305.71875 C 83.890625 305.367188 83.835938 304.855469 83.402344 304.421875 Z M 128.785156 223.835938 L 130.007812 225.035156 C 130.007812 225.035156 133.453125 219.375 136.425781 216.605469 C 139.398438 213.84375 141.734375 210.4375 141.734375 210.4375 L 140.886719 209.480469 Z M 171.34375 202.351562 C 169.429688 199.476562 163.277344 193.308594 163.277344 193.308594 L 162.109375 195.007812 C 162.109375 195.007812 168.480469 200.539062 169.539062 203.304688 C 170.601562 206.066406 170.601562 214.367188 169.433594 216.707031 C 168.269531 219.050781 156.171875 232.664062 156.171875 232.664062 L 158.929688 236.175781 C 158.929688 236.175781 172.40625 219.6875 173.042969 217.984375 C 173.679688 216.285156 173.253906 205.222656 171.34375 202.351562 Z M 171.34375 202.351562 " fill-opacity="1" fill-rule="nonzero"/><g clip-path="url(#082c450a30)"><g clip-path="url(#dc79411abf)"><g clip-path="url(#a7396f7c1c)"><path fill="#ffb014" d="M 192.953125 250.308594 C 186.078125 250.011719 180.742188 244.191406 181.039062 237.304688 C 181.335938 230.417969 187.152344 225.070312 194.027344 225.367188 C 200.902344 225.664062 206.238281 231.484375 205.941406 238.371094 C 205.648438 245.261719 199.828125 250.605469 192.953125 250.308594 Z M 327.34375 231.109375 C 325.332031 235.335938 323.164062 230.871094 322.015625 228.871094 C 320.960938 227.042969 317.753906 222.605469 316.164062 221.050781 C 316.523438 222.304688 316.722656 223.515625 316.324219 223.933594 C 315.84375 224.429688 315.039062 224.726562 314.324219 224.695312 C 314.203125 224.691406 314.082031 224.675781 313.96875 224.652344 C 313.402344 224.523438 312.984375 224.160156 312.792969 223.613281 C 312.453125 222.648438 313.285156 220.554688 313.917969 219.171875 C 313.050781 218.425781 312.261719 217.679688 311.898438 217.210938 C 305.738281 216.472656 293.332031 218.953125 284.140625 220.769531 C 284.140625 220.769531 271.980469 223.789062 265.578125 222.449219 C 259.175781 221.109375 257.488281 213.0625 257.488281 213.0625 C 257.488281 213.0625 251.460938 217.410156 249.273438 220.949219 C 247.085938 224.484375 245.777344 230.277344 241.621094 238.425781 C 241.019531 237.707031 240.246094 237.015625 239.378906 236.359375 C 240.835938 237.550781 241.621094 238.425781 241.621094 238.425781 C 239.675781 242.507812 229.574219 253.828125 224.800781 256.515625 C 220.023438 259.207031 214.585938 265.054688 213.746094 266.730469 C 212.902344 268.410156 211.980469 269.3125 211.980469 269.3125 C 211.980469 269.3125 211.300781 274.066406 210.273438 274.671875 C 209.246094 275.277344 206.019531 277.558594 200.496094 278.445312 C 194.96875 279.328125 188.992188 277.121094 187.433594 274.984375 C 185.871094 272.851562 184.894531 270.921875 190.128906 271.261719 C 195.367188 271.605469 198.300781 270.613281 202.058594 268.171875 C 202.285156 268.027344 202.492188 267.886719 202.691406 267.746094 C 201.613281 266.601562 200.476562 265.234375 200.5 264.648438 C 200.527344 263.996094 201.238281 263.339844 201.917969 263.027344 C 202.59375 262.714844 203.226562 262.730469 203.648438 263.0625 C 204.378906 263.636719 204.671875 264.867188 204.78125 266.078125 C 206.046875 264.933594 206.46875 264.363281 207.632812 264.808594 C 207.742188 264.851562 207.84375 264.902344 207.9375 264.964844 C 207.925781 264.949219 207.921875 264.941406 207.921875 264.941406 C 207.921875 264.941406 219.0625 247.347656 222.09375 241.390625 C 225.121094 235.433594 228.246094 230.671875 228.246094 230.671875 C 230.378906 226.332031 232.554688 225.09375 235.101562 219.445312 C 237.644531 213.796875 238.257812 215.953125 240.589844 209.050781 C 242.921875 202.152344 247.660156 192.875 247.660156 192.875 L 246.121094 187.691406 C 246.097656 187.691406 246.078125 187.683594 246.058594 187.683594 C 245.859375 187.65625 245.683594 187.632812 245.554688 187.617188 C 245.496094 187.609375 245.441406 187.601562 245.398438 187.597656 C 245.371094 187.59375 245.359375 187.589844 245.339844 187.589844 C 245.300781 187.582031 245.265625 187.582031 245.246094 187.574219 C 245.246094 187.574219 245.242188 187.574219 245.242188 187.574219 C 245.234375 187.574219 245.226562 187.574219 245.226562 187.574219 C 245.226562 187.574219 245.222656 187.554688 245.21875 187.53125 C 245.222656 187.527344 245.222656 187.519531 245.214844 187.515625 C 245.214844 187.515625 245.214844 187.515625 245.214844 187.511719 C 245.214844 187.488281 245.203125 187.453125 245.195312 187.410156 C 245.199219 187.398438 245.191406 187.394531 245.191406 187.382812 C 245.171875 187.273438 245.152344 187.121094 245.121094 186.921875 C 245.121094 186.921875 245.121094 186.917969 245.121094 186.917969 C 245.121094 186.917969 245.121094 186.910156 245.121094 186.910156 C 245.105469 186.820312 245.089844 186.710938 245.078125 186.601562 C 245.078125 186.601562 245.078125 186.601562 245.078125 186.59375 C 245.074219 186.566406 245.070312 186.53125 245.0625 186.496094 C 245.0625 186.496094 245.0625 186.496094 245.0625 186.492188 C 245.046875 186.375 245.027344 186.253906 245.011719 186.121094 C 245.007812 186.101562 245.007812 186.089844 245.003906 186.070312 C 244.988281 185.960938 244.972656 185.851562 244.960938 185.734375 C 244.960938 185.722656 244.957031 185.71875 244.957031 185.707031 C 244.929688 185.507812 244.90625 185.300781 244.878906 185.066406 C 244.878906 185.066406 244.878906 185.0625 244.878906 185.0625 C 244.855469 184.867188 244.832031 184.664062 244.808594 184.449219 C 244.800781 184.390625 244.792969 184.328125 244.785156 184.269531 C 244.769531 184.09375 244.75 183.914062 244.730469 183.722656 C 244.726562 183.664062 244.722656 183.613281 244.714844 183.554688 C 244.691406 183.308594 244.667969 183.058594 244.644531 182.800781 C 244.644531 182.757812 244.640625 182.707031 244.632812 182.660156 C 244.613281 182.441406 244.597656 182.21875 244.578125 181.988281 C 244.574219 181.90625 244.566406 181.824219 244.5625 181.742188 C 244.542969 181.503906 244.527344 181.265625 244.515625 181.015625 C 244.511719 180.964844 244.511719 180.910156 244.503906 180.855469 C 244.488281 180.5625 244.46875 180.253906 244.453125 179.945312 C 244.449219 179.863281 244.449219 179.78125 244.445312 179.699219 C 244.4375 179.453125 244.425781 179.203125 244.414062 178.949219 C 244.410156 178.851562 244.410156 178.757812 244.402344 178.660156 C 244.394531 178.324219 244.382812 177.984375 244.378906 177.636719 C 244.378906 177.632812 244.378906 177.628906 244.382812 177.617188 C 244.375 177.277344 244.371094 176.929688 244.371094 176.578125 C 244.371094 176.46875 244.371094 176.363281 244.371094 176.257812 C 244.371094 175.976562 244.371094 175.691406 244.375 175.398438 C 244.375 175.304688 244.378906 175.210938 244.378906 175.113281 C 244.382812 174.742188 244.390625 174.359375 244.402344 173.972656 C 244.40625 173.898438 244.410156 173.824219 244.414062 173.75 C 244.421875 173.429688 244.433594 173.109375 244.449219 172.785156 C 244.453125 172.667969 244.460938 172.546875 244.464844 172.429688 C 244.480469 172.097656 244.5 171.757812 244.523438 171.421875 C 244.527344 171.347656 244.527344 171.277344 244.535156 171.199219 C 244.5625 170.792969 244.597656 170.378906 244.628906 169.964844 C 244.636719 169.859375 244.648438 169.75 244.65625 169.644531 C 244.683594 169.324219 244.71875 168.996094 244.753906 168.667969 C 244.761719 168.546875 244.777344 168.421875 244.792969 168.300781 C 244.839844 167.871094 244.886719 167.441406 244.945312 167.003906 C 246.375 155.726562 247.632812 151.171875 260.3125 133.40625 C 260.3125 133.40625 260.257812 133.308594 260.191406 133.125 C 259.964844 132.488281 259.582031 130.757812 260.886719 128.230469 C 262.558594 124.996094 266.8125 116.558594 266.8125 116.558594 L 265.28125 111.277344 C 261.554688 116.789062 255.90625 124.65625 252.105469 126.699219 C 246.308594 129.816406 242.972656 131.269531 241.402344 130.757812 C 239.832031 130.246094 239.480469 126.066406 241.058594 120.199219 C 242.117188 116.257812 244.519531 110.746094 245.988281 107.546875 C 244.246094 106.929688 243.058594 106.347656 242.789062 106.210938 C 242.777344 106.207031 242.777344 106.207031 242.773438 106.207031 C 242.746094 106.191406 242.726562 106.179688 242.726562 106.179688 C 242.726562 106.179688 242.722656 106.132812 242.726562 106.042969 C 242.761719 105.582031 243.078125 103.957031 245.847656 102.179688 C 249.125 100.074219 250.988281 97.914062 253.566406 92.824219 C 256.144531 87.734375 260.078125 86.722656 265.1875 85.882812 C 268.65625 85.3125 272.148438 83.847656 274.027344 82.972656 C 274.121094 82.925781 274.210938 82.886719 274.296875 82.847656 C 274.34375 82.824219 274.390625 82.804688 274.433594 82.78125 C 274.515625 82.742188 274.597656 82.699219 274.671875 82.664062 C 274.703125 82.648438 274.738281 82.632812 274.769531 82.617188 C 274.902344 82.550781 275.015625 82.496094 275.109375 82.445312 C 275.128906 82.4375 275.15625 82.425781 275.175781 82.414062 C 275.207031 82.398438 275.234375 82.382812 275.257812 82.371094 C 275.300781 82.210938 275.382812 81.847656 275.472656 81.347656 C 275.535156 81.003906 275.601562 80.585938 275.660156 80.128906 C 275.664062 80.089844 275.667969 80.050781 275.675781 80.007812 C 275.6875 79.894531 275.699219 79.785156 275.710938 79.675781 C 275.71875 79.617188 275.722656 79.5625 275.730469 79.503906 C 275.738281 79.402344 275.75 79.304688 275.757812 79.195312 C 275.761719 79.132812 275.769531 79.066406 275.769531 79.003906 C 275.78125 78.898438 275.785156 78.796875 275.789062 78.691406 C 275.792969 78.625 275.792969 78.558594 275.796875 78.496094 C 275.800781 78.378906 275.800781 78.265625 275.808594 78.148438 C 275.808594 78.089844 275.8125 78.03125 275.808594 77.972656 C 275.8125 77.800781 275.8125 77.621094 275.808594 77.441406 C 270.785156 72.839844 269.6875 70.578125 269.128906 66.167969 C 269.128906 66.167969 266.589844 64.042969 268.472656 60.347656 C 268.417969 60.070312 268.359375 59.71875 268.3125 59.304688 C 268.3125 59.261719 268.304688 59.214844 268.300781 59.164062 C 268.285156 58.980469 268.269531 58.785156 268.257812 58.582031 C 268.253906 58.558594 268.253906 58.535156 268.25 58.507812 C 268.242188 58.285156 268.238281 58.054688 268.238281 57.8125 C 268.234375 57.742188 268.238281 57.671875 268.242188 57.601562 C 268.246094 57.410156 268.253906 57.207031 268.269531 57 C 268.269531 56.925781 268.273438 56.859375 268.28125 56.785156 C 268.304688 56.515625 268.335938 56.242188 268.375 55.957031 C 268.382812 55.894531 268.394531 55.832031 268.40625 55.769531 C 268.445312 55.535156 268.492188 55.296875 268.546875 55.046875 C 268.5625 54.960938 268.582031 54.871094 268.605469 54.785156 C 268.675781 54.476562 268.761719 54.160156 268.863281 53.839844 C 270.144531 49.773438 273.433594 46.304688 276.863281 45.832031 C 280.289062 45.359375 284.578125 46.40625 284.578125 46.40625 C 284.578125 46.40625 286.964844 41.8125 291.9375 43.421875 C 296.910156 45.03125 295.921875 49.039062 295.304688 50.964844 C 294.691406 52.890625 293.550781 58.375 294.996094 59.148438 C 296.449219 59.917969 297.574219 59.328125 299.191406 59.90625 C 300.804688 60.484375 301.59375 62.644531 301.59375 62.644531 C 301.59375 62.644531 299.925781 61.332031 297.535156 61.359375 L 299.144531 62.511719 C 299.144531 62.511719 295.300781 65.496094 291.25 64.011719 C 290.28125 66.980469 287.8125 67.761719 287.8125 67.761719 C 287.8125 67.761719 286.710938 68.6875 286.363281 72.75 C 286.035156 76.472656 286.976562 82.042969 287.132812 82.9375 C 287.214844 83.027344 287.292969 83.121094 287.375 83.207031 C 287.375 83.207031 287.375 83.207031 287.378906 83.210938 C 287.625 83.449219 287.886719 83.675781 288.160156 83.886719 C 292.0625 86.875 298.351562 86.789062 302.042969 89.953125 C 306.253906 93.5625 304.78125 100.351562 304.414062 103.40625 C 304.042969 106.457031 304.824219 113.082031 304.824219 113.082031 L 300.335938 112.90625 C 300.179688 113.371094 298.847656 117.335938 297.628906 119.953125 C 296.328125 122.734375 295.722656 123.117188 295.863281 123.953125 C 296.007812 124.785156 300.050781 136.359375 301.960938 139.867188 C 303.875 143.378906 304.941406 145.960938 306.871094 146.460938 C 308.796875 146.957031 313.832031 146.464844 315 146.695312 C 316.171875 146.925781 315.664062 151.804688 315.511719 152.683594 C 315.359375 153.5625 313.074219 155.828125 313.074219 155.828125 C 313.074219 155.828125 313.15625 156.601562 312.683594 156.695312 C 312.207031 156.792969 311.878906 156.1875 311.878906 156.1875 C 311.878906 156.1875 311.15625 156.628906 310.390625 156.535156 C 309.625 156.441406 308.820312 154.636719 308.820312 154.636719 C 308.820312 154.636719 306.796875 155.023438 305.066406 154.0625 C 303.339844 153.101562 301.261719 150.707031 296.996094 144.265625 C 295.054688 141.328125 293.839844 139.179688 293.09375 137.699219 C 293.492188 138.722656 293.925781 139.890625 294.339844 141.132812 C 294.34375 141.152344 294.355469 141.167969 294.359375 141.1875 C 294.488281 141.574219 294.613281 141.972656 294.738281 142.375 C 294.75 142.410156 294.757812 142.449219 294.773438 142.484375 C 294.890625 142.871094 295.003906 143.261719 295.117188 143.660156 C 295.128906 143.703125 295.140625 143.753906 295.15625 143.796875 C 295.265625 144.191406 295.367188 144.585938 295.460938 144.980469 C 295.472656 145.027344 295.480469 145.066406 295.496094 145.109375 C 295.59375 145.515625 295.6875 145.921875 295.769531 146.328125 C 295.78125 146.355469 295.78125 146.386719 295.792969 146.414062 C 295.878906 146.84375 295.957031 147.28125 296.027344 147.703125 C 297.042969 154.128906 295.503906 165.285156 291.582031 174.210938 C 291.390625 174.644531 291.207031 175.066406 291.023438 175.472656 C 290.992188 175.542969 290.960938 175.617188 290.929688 175.6875 C 290.761719 176.0625 290.597656 176.421875 290.441406 176.78125 C 290.386719 176.894531 290.339844 177.003906 290.292969 177.117188 C 290.167969 177.390625 290.046875 177.664062 289.929688 177.929688 C 287.566406 183.148438 286.089844 186.304688 285.285156 190.511719 C 285.203125 190.9375 285.128906 191.375 285.058594 191.828125 C 285.058594 191.847656 285.054688 191.867188 285.054688 191.886719 C 284.984375 192.34375 284.921875 192.808594 284.867188 193.296875 C 284.722656 193.359375 284.570312 193.410156 284.414062 193.460938 C 284.371094 193.476562 284.320312 193.492188 284.273438 193.503906 C 284.160156 193.535156 284.042969 193.570312 283.925781 193.597656 C 283.875 193.613281 283.824219 193.625 283.773438 193.636719 C 283.636719 193.667969 283.5 193.691406 283.363281 193.71875 C 283.335938 193.722656 283.304688 193.734375 283.277344 193.734375 C 283.101562 193.765625 282.925781 193.789062 282.75 193.808594 C 282.722656 193.8125 282.691406 193.816406 282.667969 193.820312 C 282.519531 193.839844 282.371094 193.851562 282.222656 193.863281 C 282.179688 193.867188 282.128906 193.871094 282.085938 193.875 C 281.945312 193.882812 281.804688 193.890625 281.664062 193.894531 C 281.625 193.898438 281.59375 193.894531 281.554688 193.898438 C 281.203125 193.914062 280.859375 193.914062 280.539062 193.902344 C 280.496094 193.902344 280.449219 193.898438 280.414062 193.898438 C 280.296875 193.894531 280.179688 193.894531 280.066406 193.886719 C 280.015625 193.886719 279.96875 193.882812 279.925781 193.882812 C 279.820312 193.878906 279.710938 193.875 279.609375 193.863281 C 279.574219 193.863281 279.535156 193.859375 279.496094 193.859375 C 279.371094 193.847656 279.253906 193.84375 279.144531 193.835938 C 279.066406 193.824219 279 193.824219 278.929688 193.816406 C 278.898438 193.8125 278.863281 193.808594 278.835938 193.804688 C 278.753906 193.796875 278.679688 193.789062 278.609375 193.78125 C 276.664062 195.601562 274.574219 197.132812 274.574219 197.132812 L 273.539062 210.910156 C 273.539062 210.910156 278.695312 208.296875 285.230469 208.492188 C 285.230469 208.492188 288.820312 207.320312 297.488281 209.464844 C 305.878906 211.539062 310.015625 212.1875 312.613281 211.761719 C 313.058594 211.3125 313.824219 211.011719 315.09375 210.84375 C 317.765625 210.484375 320.285156 212.191406 321.082031 214.292969 C 321.875 216.394531 322.851562 218.386719 324.589844 220.527344 C 326.292969 222.679688 329.355469 226.886719 327.34375 231.109375 Z M 258.976562 108.792969 C 258.855469 108.816406 258.734375 108.835938 258.601562 108.859375 L 258.332031 109.4375 C 258.328125 109.4375 258.574219 109.195312 258.976562 108.792969 Z M 204.277344 266.535156 C 204.210938 265.277344 203.960938 264 203.320312 263.492188 C 203.207031 263.40625 203.066406 263.359375 202.894531 263.355469 C 202.679688 263.34375 202.421875 263.402344 202.148438 263.523438 C 201.550781 263.800781 201.054688 264.316406 201.039062 264.683594 C 201.027344 265.015625 201.96875 266.179688 203.140625 267.4375 C 203.574219 267.117188 203.957031 266.8125 204.277344 266.535156 Z M 315.394531 220.398438 C 315.050781 220.128906 314.699219 219.835938 314.34375 219.535156 C 313.71875 220.921875 313.046875 222.714844 313.296875 223.4375 C 313.425781 223.808594 313.691406 224.039062 314.078125 224.125 C 314.742188 224.273438 315.558594 223.945312 315.933594 223.558594 C 316.195312 223.292969 315.90625 221.957031 315.394531 220.398438 Z M 315.394531 220.398438 " fill-opacity="1" fill-rule="nonzero"/></g></g></g><g clip-path="url(#2547ed784d)"><g clip-path="url(#467cbce056)"><g clip-path="url(#8a58f38664)"><path fill="#402978" d="M 304.828125 113.097656 L 297.289062 112.800781 C 297.289062 112.800781 293.125 121.835938 293.386719 126.691406 C 293.652344 131.546875 291.960938 135.136719 291.960938 135.136719 L 260.300781 133.421875 C 260.300781 133.421875 259.203125 131.484375 260.875 128.246094 C 262.546875 125.011719 266.804688 116.570312 266.804688 116.570312 L 264.441406 108.4375 C 264.441406 108.4375 265.183594 107.640625 257.929688 108.984375 C 250.679688 110.328125 242.714844 106.203125 242.714844 106.203125 C 242.714844 106.203125 242.558594 104.308594 245.835938 102.203125 C 249.113281 100.097656 250.976562 97.9375 253.554688 92.847656 C 256.132812 87.757812 260.066406 86.746094 265.175781 85.90625 C 270.285156 85.0625 275.445312 82.296875 275.445312 82.296875 L 279.816406 80.339844 C 279.816406 80.339844 283.097656 77.941406 286.679688 82.464844 C 290.257812 86.992188 297.832031 86.375 302.042969 89.980469 C 306.253906 93.582031 304.78125 100.375 304.410156 103.429688 C 304.046875 106.480469 304.828125 113.097656 304.828125 113.097656 Z M 324.554688 220.535156 C 322.820312 218.394531 321.839844 216.402344 321.046875 214.300781 C 320.253906 212.199219 317.730469 210.496094 315.0625 210.851562 C 312.390625 211.210938 311.941406 212.136719 312.039062 213.851562 L 312.0625 214.683594 C 312.0625 214.683594 311.28125 216.421875 311.894531 217.21875 C 312.507812 218.011719 314.386719 219.628906 315.757812 220.691406 C 317.128906 221.75 320.859375 226.875 322.007812 228.875 C 323.160156 230.875 325.328125 235.335938 327.335938 231.113281 C 329.355469 226.886719 326.292969 222.679688 324.554688 220.535156 Z M 207.632812 264.820312 C 205.894531 264.15625 205.824219 265.746094 202.0625 268.183594 C 198.304688 270.621094 195.371094 271.617188 190.136719 271.273438 C 184.898438 270.929688 185.878906 272.859375 187.4375 274.996094 C 188.996094 277.128906 194.976562 279.339844 200.5 278.453125 C 206.027344 277.566406 209.246094 275.285156 210.277344 274.683594 C 211.304688 274.078125 211.984375 269.324219 211.984375 269.324219 L 209.625 269.277344 C 209.625 269.277344 209.375 265.488281 207.632812 264.820312 Z M 205.945312 238.375 C 206.242188 231.488281 200.910156 225.667969 194.03125 225.371094 C 187.152344 225.070312 181.335938 230.417969 181.039062 237.304688 C 180.742188 244.191406 186.078125 250.011719 192.953125 250.308594 C 199.828125 250.605469 205.648438 245.261719 205.945312 238.375 Z M 205.945312 238.375 " fill-opacity="1" fill-rule="nonzero"/></g></g></g><g clip-path="url(#02245bed11)"><g clip-path="url(#655d1f6d1d)"><g clip-path="url(#cb24fb5924)"><path fill="#d9d9d9" d="M 314.449219 215.527344 C 314.449219 215.527344 312.230469 215.574219 311.898438 217.21875 C 305.738281 216.476562 293.332031 218.957031 284.140625 220.777344 C 285.613281 215.34375 285.203125 208.503906 285.203125 208.503906 C 285.203125 208.503906 288.792969 207.332031 297.460938 209.476562 C 306.128906 211.625 310.257812 212.246094 312.847656 211.734375 C 315.914062 214.34375 314.449219 215.527344 314.449219 215.527344 Z M 228.246094 230.679688 C 228.246094 230.679688 225.117188 235.449219 222.09375 241.402344 C 219.066406 247.355469 207.921875 264.949219 207.921875 264.949219 C 207.921875 264.949219 209.847656 268.222656 208.28125 270.339844 C 211.355469 270.117188 211.980469 269.316406 211.980469 269.316406 C 211.980469 269.316406 212.902344 268.414062 213.742188 266.734375 C 214.585938 265.058594 220.023438 259.210938 224.800781 256.523438 C 229.578125 253.832031 239.675781 242.511719 241.621094 238.429688 C 241.625 238.4375 236.617188 232.8125 228.246094 230.679688 Z M 279.664062 91.957031 C 283.949219 89.261719 286.679688 86.023438 288.160156 83.898438 C 287.617188 83.484375 287.117188 83.007812 286.679688 82.457031 C 283.097656 77.929688 279.816406 80.332031 279.816406 80.332031 L 275.445312 82.285156 C 275.445312 82.285156 274.742188 82.664062 273.609375 83.175781 C 274.339844 85.375 276.0625 89.296875 279.664062 91.957031 Z M 252.855469 183.101562 C 250.003906 182.53125 246.566406 184.21875 244.875 185.074219 C 245.0625 186.671875 245.234375 187.585938 245.234375 187.585938 C 245.234375 187.585938 246.535156 187.757812 248.59375 188.039062 C 251.398438 186.28125 255.144531 183.550781 252.855469 183.101562 Z M 254.742188 176.269531 L 253.261719 179.835938 C 253.261719 179.835938 256.632812 181.753906 257.066406 181.859375 C 257.507812 181.964844 270.65625 186.785156 272.960938 188.746094 C 275.265625 190.703125 284.855469 193.304688 284.855469 193.304688 C 284.96875 192.3125 285.109375 191.394531 285.277344 190.519531 C 283.410156 188.742188 279.878906 185.769531 274.457031 182.785156 C 265.898438 178.078125 254.742188 176.269531 254.742188 176.269531 Z M 254.742188 176.269531 " fill-opacity="1" fill-rule="nonzero"/></g></g></g><g clip-path="url(#73498a127a)"><g clip-path="url(#ecb347169b)"><g clip-path="url(#5b8544bae5)"><path fill="#f9b6c1" d="M 285.203125 208.503906 C 287.09375 216.027344 284.140625 220.777344 284.140625 220.777344 C 284.140625 220.777344 271.980469 223.796875 265.578125 222.453125 C 259.175781 221.113281 257.488281 213.066406 257.488281 213.066406 C 257.488281 213.066406 251.460938 217.417969 249.273438 220.953125 C 247.085938 224.492188 245.777344 230.28125 241.621094 238.429688 C 238.003906 234.113281 228.238281 230.679688 228.238281 230.679688 C 230.375 226.339844 232.550781 225.105469 235.09375 219.457031 C 237.640625 213.804688 238.253906 215.960938 240.585938 209.0625 C 242.917969 202.160156 247.652344 192.882812 247.652344 192.882812 L 246.03125 187.410156 C 248.027344 186.34375 250.792969 185.757812 250.792969 185.757812 L 253.457031 179.402344 C 253.457031 179.402344 270.488281 182.441406 280.339844 191.992188 C 278.199219 194.472656 274.542969 197.144531 274.542969 197.144531 L 273.511719 210.925781 C 273.511719 210.925781 278.664062 208.308594 285.203125 208.503906 Z M 241.394531 130.773438 C 242.964844 131.28125 246.304688 129.832031 252.101562 126.714844 C 257.894531 123.601562 267.992188 106.933594 269.015625 105.734375 C 270.039062 104.539062 273.535156 103.535156 274.035156 102.226562 C 274.535156 100.921875 274.257812 99.046875 274.257812 99.046875 C 274.257812 99.046875 275.179688 100.238281 276.089844 99.65625 C 277 99.078125 277.503906 95.554688 277.351562 95.015625 C 277.199219 94.476562 272.054688 90.625 271.273438 90.324219 C 270.492188 90.023438 268.796875 90.394531 268.324219 91.082031 C 267.851562 91.769531 266.789062 99.964844 266.027344 101.261719 C 265.265625 102.5625 258.332031 109.4375 258.332031 109.4375 L 259.597656 106.746094 C 259.597656 106.746094 257.667969 104.273438 247.203125 104.972656 C 247.203125 104.972656 242.640625 114.34375 241.058594 120.214844 C 239.476562 126.085938 239.828125 130.261719 241.394531 130.773438 Z M 314.996094 146.699219 C 313.828125 146.472656 308.792969 146.964844 306.863281 146.464844 C 304.9375 145.972656 303.871094 143.382812 301.957031 139.875 C 300.042969 136.363281 296.003906 124.792969 295.859375 123.957031 C 295.71875 123.125 296.324219 122.738281 297.621094 119.957031 C 298.921875 117.175781 300.34375 112.871094 300.34375 112.871094 C 297.925781 112.945312 295.191406 111.941406 295.191406 111.941406 C 295.191406 111.941406 293.992188 115.136719 293.765625 117.726562 C 293.535156 120.316406 293.070312 124.253906 293.175781 127.210938 C 293.28125 130.167969 291.949219 135.132812 291.949219 135.132812 C 291.949219 135.132812 292.71875 137.824219 296.980469 144.269531 C 301.242188 150.710938 303.324219 153.105469 305.054688 154.066406 C 306.78125 155.027344 308.804688 154.640625 308.804688 154.640625 C 308.804688 154.640625 309.609375 156.445312 310.375 156.539062 C 311.140625 156.628906 311.867188 156.191406 311.867188 156.191406 C 311.867188 156.191406 312.191406 156.796875 312.671875 156.699219 C 313.148438 156.605469 313.0625 155.832031 313.0625 155.832031 C 313.0625 155.832031 315.339844 153.566406 315.496094 152.6875 C 315.660156 151.8125 316.164062 146.929688 314.996094 146.699219 Z M 269.128906 66.175781 C 269.695312 70.589844 270.789062 72.847656 275.808594 77.453125 C 275.875 80.070312 275.238281 82.476562 275.238281 82.476562 C 276.539062 87.183594 279.894531 90.472656 279.894531 90.472656 C 282.671875 88.640625 287.160156 83.078125 287.160156 83.078125 C 287.160156 83.078125 286.011719 76.824219 286.367188 72.765625 C 286.71875 68.703125 287.820312 67.777344 287.820312 67.777344 C 287.820312 67.777344 290.285156 66.996094 291.253906 64.027344 C 291.792969 61.28125 290.550781 58.792969 288.640625 58.863281 C 286.738281 58.9375 286.6875 60.554688 286.65625 61.902344 C 286.621094 63.25 286.261719 63.8125 286.261719 63.8125 L 284.667969 60.378906 C 284.667969 60.378906 278.148438 58.746094 275.300781 51.890625 C 275.300781 51.890625 271.933594 54.488281 270.523438 57.042969 C 269.109375 59.597656 268.664062 61.128906 268.664062 61.128906 C 268.664062 61.128906 268.570312 60.847656 268.476562 60.359375 C 266.589844 64.054688 269.128906 66.175781 269.128906 66.175781 Z M 269.128906 66.175781 " fill-opacity="1" fill-rule="nonzero"/></g></g></g><g clip-path="url(#935501a679)"><g clip-path="url(#968bd871b9)"><g clip-path="url(#019719754c)"><path fill="#402978" d="M 275.011719 51.519531 C 274.59375 48.425781 276.929688 46.636719 277.027344 46.566406 C 277.148438 46.480469 277.316406 46.5 277.402344 46.621094 C 277.488281 46.738281 277.46875 46.910156 277.347656 46.996094 C 277.328125 47.015625 275.164062 48.671875 275.542969 51.449219 C 275.558594 51.59375 275.457031 51.730469 275.3125 51.75 C 275.296875 51.753906 275.277344 51.753906 275.261719 51.753906 C 275.136719 51.746094 275.03125 51.648438 275.011719 51.519531 Z M 274.003906 66.863281 C 273.820312 66.949219 273.667969 67.011719 273.539062 67.058594 C 273.195312 67.199219 272.800781 67.359375 272.964844 67.867188 C 273.097656 68.304688 273.628906 69.050781 274.746094 69.097656 C 274.761719 69.097656 274.769531 69.097656 274.785156 69.097656 C 274.933594 69.105469 275.054688 68.984375 275.0625 68.839844 C 275.070312 68.695312 274.953125 68.570312 274.808594 68.5625 C 274.800781 68.5625 274.785156 68.5625 274.773438 68.5625 C 273.945312 68.523438 273.5625 67.992188 273.476562 67.707031 C 273.472656 67.695312 273.46875 67.6875 273.46875 67.675781 C 273.519531 67.644531 273.636719 67.597656 273.746094 67.558594 C 273.882812 67.503906 274.046875 67.433594 274.238281 67.347656 C 275.039062 66.964844 275.441406 66.136719 275.199219 65.375 C 275.011719 64.785156 274.648438 62.429688 274.644531 62.40625 C 274.621094 62.261719 274.480469 62.15625 274.339844 62.179688 C 274.191406 62.203125 274.09375 62.339844 274.113281 62.484375 C 274.128906 62.582031 274.488281 64.90625 274.6875 65.53125 C 274.84375 66.046875 274.566406 66.589844 274.003906 66.863281 Z M 276.847656 61.550781 C 277.394531 61.488281 279.039062 61.277344 280.207031 61.238281 C 281.371094 61.199219 282.957031 61.988281 283.152344 61.96875 C 283.347656 61.949219 282.136719 60.816406 281.078125 60.503906 C 280.011719 60.191406 277.46875 60.082031 275.886719 60.84375 C 275.734375 60.921875 276.296875 61.617188 276.847656 61.550781 Z M 272.121094 63.917969 C 271.761719 63.902344 271.453125 64.1875 271.4375 64.554688 C 271.421875 64.921875 271.703125 65.226562 272.066406 65.242188 C 272.425781 65.257812 272.734375 64.976562 272.75 64.609375 C 272.765625 64.242188 272.484375 63.933594 272.121094 63.917969 Z M 269.753906 63.695312 C 269.753906 63.695312 270.292969 64.5625 270.835938 64.601562 C 270.835938 64.601562 270.269531 64.085938 270.78125 63.875 C 271.292969 63.660156 272.226562 63.894531 272.746094 64.109375 C 273.269531 64.328125 273.851562 64.820312 273.851562 64.820312 C 273.851562 64.820312 273.414062 63.707031 272.15625 63.480469 C 270.890625 63.242188 269.753906 63.695312 269.753906 63.695312 Z M 273.335938 61.53125 C 273.660156 61.558594 273.332031 61 273.226562 60.714844 C 273.125 60.429688 270.738281 60.664062 270.230469 60.820312 C 269.722656 60.980469 269.566406 61.886719 269.566406 61.886719 C 269.730469 61.910156 270.1875 61.46875 270.792969 61.421875 C 271.402344 61.375 273.015625 61.503906 273.335938 61.53125 Z M 275.808594 77.457031 C 275.84375 78.972656 275.648438 80.417969 275.476562 81.363281 C 281.671875 81.023438 285.046875 72.488281 285.046875 72.488281 C 283.398438 75.917969 278.113281 78.347656 277.453125 78.320312 C 276.792969 78.292969 275.808594 77.457031 275.808594 77.457031 Z M 289.082031 60.542969 C 288.984375 60.433594 288.8125 60.425781 288.707031 60.523438 C 288.660156 60.566406 287.5625 61.570312 287.394531 62.464844 C 287.28125 63.082031 287.675781 63.363281 287.933594 63.550781 C 288.152344 63.703125 288.242188 63.785156 288.242188 63.925781 C 288.238281 64.394531 287.617188 64.695312 287.613281 64.699219 C 287.480469 64.761719 287.417969 64.921875 287.484375 65.054688 C 287.53125 65.148438 287.621094 65.207031 287.714844 65.210938 C 287.757812 65.214844 287.796875 65.207031 287.839844 65.1875 C 287.878906 65.167969 288.777344 64.738281 288.773438 63.929688 C 288.773438 63.496094 288.460938 63.277344 288.238281 63.117188 C 287.972656 62.933594 287.863281 62.839844 287.914062 62.570312 C 288.023438 61.972656 288.773438 61.179688 289.054688 60.925781 C 289.175781 60.824219 289.183594 60.65625 289.082031 60.542969 Z M 278.273438 64.78125 C 278.257812 65.179688 278.566406 65.523438 278.960938 65.539062 C 279.363281 65.558594 279.695312 65.242188 279.710938 64.84375 C 279.730469 64.441406 279.421875 64.097656 279.023438 64.082031 C 278.625 64.0625 278.292969 64.375 278.273438 64.78125 Z M 282.28125 63.734375 C 282.28125 63.734375 280.023438 63.472656 278.8125 63.523438 C 277.601562 63.574219 276.765625 64.769531 276.765625 64.769531 C 277.796875 64.042969 279.101562 63.925781 280.363281 64.050781 C 281.625 64.179688 280.910156 65.09375 280.910156 65.09375 C 281.535156 64.675781 282.28125 63.734375 282.28125 63.734375 Z M 286.777344 60.445312 C 286.757812 60.300781 286.628906 60.191406 286.480469 60.210938 C 285.777344 60.285156 285.289062 60.164062 285.285156 60.164062 C 285.140625 60.128906 284.996094 60.207031 284.957031 60.351562 C 284.917969 60.496094 285.003906 60.640625 285.144531 60.679688 C 285.160156 60.683594 285.414062 60.75 285.820312 60.765625 C 286.023438 60.777344 286.269531 60.773438 286.535156 60.746094 C 286.679688 60.726562 286.789062 60.589844 286.777344 60.445312 Z M 268.648438 63.398438 C 268.519531 63.644531 268.34375 63.984375 268.480469 64.300781 C 268.636719 64.675781 269.0625 65.230469 269.082031 65.253906 C 269.132812 65.320312 269.207031 65.359375 269.285156 65.359375 C 269.347656 65.363281 269.40625 65.347656 269.457031 65.304688 C 269.574219 65.214844 269.597656 65.050781 269.507812 64.929688 C 269.398438 64.785156 269.082031 64.351562 268.972656 64.09375 C 268.9375 64.011719 269.054688 63.78125 269.128906 63.648438 C 269.234375 63.453125 269.328125 63.265625 269.289062 63.074219 C 269.238281 62.851562 268.933594 61.425781 268.933594 61.425781 L 268.40625 61.53125 C 268.40625 61.53125 268.710938 62.964844 268.761719 63.160156 C 268.753906 63.203125 268.691406 63.320312 268.648438 63.398438 Z M 273.503906 114.527344 C 273.539062 114.527344 273.574219 114.523438 273.609375 114.511719 C 273.964844 114.382812 282.464844 111.277344 285.355469 107.480469 C 285.445312 107.363281 285.417969 107.191406 285.300781 107.105469 C 285.183594 107.015625 285.015625 107.039062 284.929688 107.15625 C 282.136719 110.820312 273.515625 113.976562 273.425781 114.011719 C 273.289062 114.0625 273.214844 114.214844 273.265625 114.351562 C 273.300781 114.453125 273.398438 114.523438 273.503906 114.527344 Z M 274.757812 70.777344 C 274.476562 70.765625 273.640625 69.945312 273.480469 70.695312 C 273.316406 71.441406 272.625 71.144531 272.675781 71.207031 C 273.277344 71.867188 273.714844 71.753906 273.714844 71.753906 C 273.714844 71.753906 273.644531 73.019531 274.613281 73.433594 C 275.582031 73.84375 276.949219 72.945312 277.671875 72.5625 C 278.394531 72.183594 279.566406 70.988281 279.566406 70.988281 C 279.566406 70.988281 278.527344 71.242188 277.917969 71.230469 C 277.316406 71.21875 276.222656 70.195312 275.691406 70.21875 C 275.164062 70.234375 275.03125 70.789062 274.757812 70.777344 Z M 274.257812 99.113281 C 274.269531 99.113281 274.28125 99.113281 274.296875 99.109375 C 274.441406 99.097656 274.546875 98.960938 274.535156 98.816406 C 274.40625 97.566406 274.421875 96.355469 274.550781 96.066406 C 274.730469 96.269531 275.023438 97.027344 275.207031 97.804688 C 275.238281 97.945312 275.386719 98.035156 275.53125 98 C 275.675781 97.96875 275.765625 97.824219 275.730469 97.679688 C 275.59375 97.113281 275.226562 95.765625 274.730469 95.535156 C 274.601562 95.476562 274.464844 95.476562 274.34375 95.539062 C 273.808594 95.8125 273.867188 97.5 274.003906 98.871094 C 274.015625 99.007812 274.125 99.109375 274.257812 99.113281 Z M 263.417969 104.257812 C 263.433594 104.257812 263.445312 104.257812 263.460938 104.253906 C 263.609375 104.238281 263.714844 104.101562 263.695312 103.957031 C 263.246094 100.277344 263.28125 97.269531 263.28125 97.242188 C 263.28125 97.089844 263.167969 96.976562 263.015625 96.96875 C 262.867188 96.96875 262.746094 97.082031 262.746094 97.234375 C 262.742188 97.261719 262.707031 100.304688 263.164062 104.019531 C 263.179688 104.152344 263.289062 104.253906 263.417969 104.257812 Z M 273.105469 211.105469 L 271.703125 212.90625 C 271.613281 213.023438 271.632812 213.191406 271.75 213.28125 C 271.796875 213.316406 271.847656 213.332031 271.902344 213.335938 C 271.984375 213.339844 272.066406 213.304688 272.125 213.234375 L 273.527344 211.433594 C 273.617188 211.316406 273.597656 211.144531 273.480469 211.058594 C 273.363281 210.964844 273.199219 210.988281 273.105469 211.105469 Z M 269.015625 148.457031 C 269.082031 148.324219 269.019531 148.160156 268.886719 148.101562 C 268.753906 148.042969 268.59375 148.101562 268.535156 148.234375 C 268.496094 148.3125 265.058594 155.742188 263.820312 159 L 259.347656 150.722656 C 259.273438 150.59375 259.113281 150.542969 258.984375 150.617188 C 258.855469 150.6875 258.804688 150.851562 258.875 150.980469 L 263.570312 159.667969 C 262.410156 162.746094 253.347656 178.402344 253.253906 178.5625 C 253.183594 178.6875 253.222656 178.855469 253.351562 178.929688 C 253.386719 178.949219 253.429688 178.960938 253.476562 178.964844 C 253.570312 178.96875 253.664062 178.917969 253.71875 178.828125 C 254.097656 178.167969 263.109375 162.605469 264.113281 159.734375 C 265.109375 156.902344 268.980469 148.542969 269.015625 148.457031 Z M 284.992188 46.898438 C 285.328125 47.042969 293.191406 50.535156 290.46875 59.636719 C 290.425781 59.78125 290.507812 59.929688 290.648438 59.96875 C 290.671875 59.972656 290.691406 59.980469 290.714844 59.980469 C 290.835938 59.984375 290.945312 59.910156 290.984375 59.789062 C 293.847656 50.222656 285.289062 46.441406 285.207031 46.40625 C 285.074219 46.34375 284.914062 46.410156 284.855469 46.542969 C 284.792969 46.683594 284.859375 46.839844 284.992188 46.898438 Z M 250.902344 185.515625 C 250.769531 185.449219 250.605469 185.515625 250.546875 185.648438 L 247.609375 192.257812 C 247.550781 192.390625 247.609375 192.554688 247.742188 192.613281 C 247.777344 192.628906 247.808594 192.632812 247.839844 192.636719 C 247.945312 192.640625 248.046875 192.582031 248.097656 192.476562 L 251.035156 185.867188 C 251.097656 185.730469 251.039062 185.574219 250.902344 185.515625 Z M 277.816406 194.492188 C 278.695312 193.714844 279.605469 192.84375 280.34375 191.992188 C 276.691406 188.457031 272.058594 185.8125 267.664062 183.882812 C 270.65625 185.828125 277.402344 190.613281 277.816406 194.492188 Z M 295.203125 111.945312 C 296.542969 112.386719 298.03125 112.71875 298.03125 112.71875 C 298.03125 112.71875 297.613281 112.167969 297.796875 105.144531 C 296.234375 108.5625 295.203125 111.945312 295.203125 111.945312 Z M 290.207031 135.164062 C 290.070312 135.210938 289.992188 135.363281 290.042969 135.507812 C 290.082031 135.613281 293.777344 146.585938 292.335938 155.796875 C 292.011719 157.882812 290.269531 161.921875 288.253906 166.601562 C 285.742188 172.4375 282.605469 179.707031 280.835938 186.347656 C 280.792969 186.492188 280.878906 186.640625 281.023438 186.675781 C 281.042969 186.683594 281.0625 186.683594 281.082031 186.683594 C 281.203125 186.6875 281.316406 186.605469 281.351562 186.488281 C 283.113281 179.882812 286.234375 172.636719 288.742188 166.816406 C 290.859375 161.910156 292.53125 158.035156 292.863281 155.878906 C 294.328125 146.535156 290.589844 135.441406 290.550781 135.335938 C 290.503906 135.191406 290.351562 135.117188 290.207031 135.164062 Z M 273.984375 197.214844 L 267.308594 204.226562 C 263.402344 207.734375 257.671875 212.949219 257.488281 213.070312 C 257.488281 213.070312 257.925781 215.148438 259.191406 217.367188 C 260.214844 214.742188 262.4375 211.769531 267.511719 204.796875 L 274.375 197.589844 C 274.476562 197.480469 274.472656 197.3125 274.367188 197.210938 C 274.261719 197.101562 274.089844 197.101562 273.984375 197.214844 Z M 321.003906 218.484375 C 320.878906 219.207031 320.566406 219.636719 320.144531 219.667969 C 320.109375 219.671875 320.074219 219.671875 320.03125 219.667969 C 319.1875 219.632812 316.460938 218.816406 315.25 218.445312 C 315.878906 220.011719 317.03125 223.203125 316.324219 223.933594 C 315.84375 224.429688 315.039062 224.726562 314.324219 224.695312 C 314.203125 224.691406 314.082031 224.675781 313.96875 224.652344 C 313.402344 224.523438 312.984375 224.160156 312.792969 223.613281 C 312.292969 222.191406 314.316406 218.328125 314.554688 217.894531 C 314.574219 217.855469 314.605469 217.832031 314.636719 217.808594 C 314.644531 217.804688 314.644531 217.796875 314.65625 217.789062 C 315.363281 217.375 318.90625 215.355469 320.109375 215.875 C 320.921875 216.226562 321.171875 217.484375 321.003906 218.484375 Z M 314.757812 218.65625 C 314.074219 220.03125 312.984375 222.546875 313.296875 223.4375 C 313.425781 223.808594 313.691406 224.039062 314.078125 224.125 C 314.742188 224.273438 315.558594 223.945312 315.933594 223.558594 C 316.289062 223.195312 315.625 220.835938 314.757812 218.65625 Z M 319.890625 216.359375 C 319.246094 216.074219 317.015625 217.085938 315.449219 217.945312 C 317.234375 218.496094 319.613281 219.167969 320.097656 219.132812 C 320.199219 219.128906 320.378906 218.894531 320.46875 218.394531 C 320.609375 217.601562 320.425781 216.597656 319.890625 216.359375 Z M 241.894531 219.515625 C 240.65625 220.15625 238.34375 220.992188 238.320312 221 C 238.183594 221.050781 238.109375 221.203125 238.160156 221.339844 C 238.199219 221.445312 238.292969 221.511719 238.398438 221.515625 C 238.433594 221.519531 238.46875 221.515625 238.503906 221.5 C 238.601562 221.464844 240.867188 220.644531 242.136719 219.988281 C 242.269531 219.921875 242.320312 219.757812 242.253906 219.625 C 242.183594 219.5 242.023438 219.449219 241.894531 219.515625 Z M 288.964844 134.976562 C 285.316406 134.113281 277.171875 132.316406 270.636719 131.855469 C 265.328125 131.484375 261.988281 132.378906 260.1875 133.140625 C 260.25 133.320312 260.304688 133.421875 260.304688 133.421875 Z M 312.144531 155.734375 C 312.21875 155.859375 312.183594 156.027344 312.058594 156.097656 C 312.007812 156.128906 311.953125 156.140625 311.90625 156.140625 C 311.824219 156.136719 311.742188 156.09375 311.695312 156.019531 C 311.671875 155.984375 311.582031 155.824219 311.457031 155.394531 C 311.222656 155.417969 311.007812 155.429688 310.8125 155.417969 C 309.808594 155.375 309.265625 154.941406 308.980469 154.570312 C 308.929688 154.621094 308.863281 154.652344 308.785156 154.648438 C 308.78125 154.648438 308.78125 154.648438 308.773438 154.648438 C 308.625 154.636719 308.519531 154.507812 308.53125 154.363281 C 308.621094 153.296875 308.984375 152.554688 309.234375 152.171875 C 307.5 152.160156 306.386719 151.296875 306.324219 151.246094 C 306.207031 151.152344 306.191406 150.984375 306.285156 150.871094 C 306.375 150.753906 306.546875 150.738281 306.65625 150.828125 C 306.734375 150.886719 308.492188 152.25 311.035156 151.3125 C 311.113281 151.28125 311.203125 151.292969 311.273438 151.339844 C 311.34375 151.386719 311.386719 151.460938 311.394531 151.542969 C 311.695312 154.9375 312.140625 155.722656 312.144531 155.734375 Z M 309.609375 152.582031 C 309.71875 152.753906 310.152344 153.273438 311.023438 153.070312 C 310.980469 152.726562 310.9375 152.339844 310.894531 151.917969 C 310.550781 152.023438 310.21875 152.089844 309.910156 152.125 C 309.898438 152.15625 309.886719 152.179688 309.867188 152.203125 C 309.863281 152.207031 309.75 152.34375 309.609375 152.582031 Z M 311.324219 154.871094 C 311.25 154.542969 311.171875 154.128906 311.097656 153.609375 C 310.90625 153.652344 310.722656 153.675781 310.558594 153.671875 C 310.011719 153.648438 309.613281 153.390625 309.359375 153.125 C 309.28125 153.320312 309.214844 153.542969 309.160156 153.796875 C 309.1875 153.828125 309.214844 153.867188 309.222656 153.914062 C 309.234375 153.957031 309.550781 155.027344 311.324219 154.871094 Z M 257.914062 109.332031 C 249.292969 113.425781 244.554688 118.691406 244.511719 118.75 C 244.414062 118.859375 244.421875 119.03125 244.53125 119.125 C 244.578125 119.167969 244.640625 119.191406 244.699219 119.191406 C 244.777344 119.195312 244.855469 119.164062 244.910156 119.105469 C 244.957031 119.054688 249.621094 113.867188 258.144531 109.816406 C 258.277344 109.753906 258.335938 109.59375 258.273438 109.460938 C 258.207031 109.324219 258.042969 109.269531 257.914062 109.332031 Z M 210.304688 271.246094 C 210.394531 272.035156 210.105469 272.867188 209.574219 273.367188 C 209.199219 273.726562 208.738281 273.894531 208.21875 273.871094 C 208.128906 273.867188 208.042969 273.859375 207.945312 273.839844 C 206.480469 273.59375 204.539062 269.898438 204.25 269.332031 C 203.320312 268.429688 200.460938 265.582031 200.5 264.660156 C 200.527344 264.007812 201.238281 263.351562 201.917969 263.035156 C 202.59375 262.726562 203.226562 262.738281 203.648438 263.070312 C 205.058594 264.1875 204.863281 267.78125 204.765625 268.882812 C 205.734375 268.910156 207.851562 269.507812 208.90625 269.988281 C 209.800781 270.40625 210.257812 270.816406 210.304688 271.246094 Z M 203.316406 263.492188 C 203.203125 263.40625 203.058594 263.359375 202.890625 263.351562 C 202.675781 263.34375 202.414062 263.402344 202.144531 263.523438 C 201.546875 263.800781 201.050781 264.316406 201.035156 264.683594 C 201.015625 265.117188 202.625 266.96875 204.25 268.585938 C 204.363281 267.074219 204.339844 264.300781 203.316406 263.492188 Z M 209.777344 271.304688 C 209.769531 271.25 209.722656 271.097656 209.378906 270.867188 C 208.296875 270.113281 205.820312 269.527344 204.902344 269.425781 C 205.742188 270.992188 207.183594 273.171875 208.039062 273.316406 C 208.492188 273.390625 208.898438 273.277344 209.210938 272.980469 C 209.621094 272.585938 209.839844 271.933594 209.777344 271.304688 Z M 310.519531 147.695312 C 310.398438 147.617188 310.230469 147.648438 310.148438 147.769531 C 310.066406 147.890625 310.101562 148.058594 310.226562 148.140625 C 311.277344 148.832031 313 150.132812 313.152344 150.710938 C 313.328125 151.40625 313 154.230469 312.859375 155.265625 C 312.835938 155.410156 312.941406 155.550781 313.085938 155.566406 C 313.097656 155.566406 313.105469 155.566406 313.109375 155.566406 C 313.246094 155.574219 313.367188 155.472656 313.386719 155.335938 C 313.441406 154.945312 313.90625 151.5 313.667969 150.578125 C 313.429688 149.636719 311.003906 148.011719 310.519531 147.695312 Z M 246.878906 105.597656 C 249.011719 105.371094 256.21875 104.808594 259.332031 107.210938 L 258.589844 108.863281 C 258.789062 108.828125 258.972656 108.792969 259.160156 108.761719 L 260.625 107.414062 L 260.003906 107.09375 C 259.988281 107.074219 259.976562 107.050781 259.957031 107.027344 C 256.953125 104.320312 249.757812 104.765625 247.152344 105.03125 L 247.199219 104.929688 C 245.246094 105.179688 243.644531 105.707031 242.722656 106.0625 C 242.71875 106.152344 242.71875 106.199219 242.71875 106.199219 C 242.71875 106.199219 243.984375 106.847656 245.953125 107.554688 Z M 246.878906 105.597656 " fill-opacity="1" fill-rule="nonzero"/></g></g></g></svg>