<?xml version="1.0" encoding="iso-8859-1"?>
<!-- Uploaded to: SVG Repo, www.svgrepo.com, Generator: SVG Repo Mixer Tools -->
<svg height="800px" width="800px" version="1.1" id="Layer_1" xmlns="http://www.w3.org/2000/svg" xmlns:xlink="http://www.w3.org/1999/xlink" 
	 viewBox="0 0 504 504" xml:space="preserve">
<path style="fill:#FF7474;" d="M162.3,22.35L162.3,22.35c-41,16.2-77.5,43-104,76.2c-33.3,41.8-53.8,95.6-53.8,153.6
	c0,1.7,0,4.3,0,6l0,0l0,0c0,4.8,0.8,12.7,1.6,19.7c0.9,7.8,1.8,14.4,1.8,14.4c7.7,48.6,29,92.2,60.6,126.3c0.1-0.2,0.2-0.4,0.3-0.6
	c26.4,29.7,60.5,52.7,97.9,66.3c0,0,17.9,6,34.1,10.2c16.2,3.4,34.1,5.1,51.2,5.1c71.7,0,136.5-30.7,181.8-79.4
	c41-44.4,65.7-103.3,65.7-168.1c0-13.7-1.7-26.5-3.4-39.3l0,0c-2.6-16.2-7.7-34.1-7.7-34.1c-13.6-44.2-39.1-82.5-73.1-111.5
	c0.2-0.1,0.4-0.2,0.6-0.3C372.3,27.75,315.1,4.65,252,4.65c-20.5,0-40.1,2.6-58,7.7"/>
<path style="fill:#51565F;" d="M504,252.15c0-14-1.8-27.1-3.5-39.8c0-0.1,0-0.1,0-0.2c0-0.1-0.1-0.3-0.1-0.4c0-0.2-0.1-0.3-0.1-0.4
	c0-0.1-0.1-0.2-0.2-0.4c-0.1-0.1-0.1-0.3-0.2-0.4c-0.1-0.1-0.1-0.2-0.2-0.3s-0.2-0.2-0.3-0.4c-0.1-0.1-0.2-0.2-0.2-0.3
	c-0.1-0.1-0.2-0.2-0.4-0.3c-0.1-0.1-0.2-0.1-0.3-0.2c-0.1-0.1-0.3-0.2-0.4-0.2c-0.1-0.1-0.2-0.1-0.3-0.2c-0.2-0.1-0.3-0.1-0.5-0.2
	c-0.1,0-0.2-0.1-0.3-0.1c-0.3-0.1-0.6-0.1-0.9-0.1c-2.4,0-5-0.2-7.8-0.4s-5.7-0.4-8.5-0.4c-0.2,0-0.4,0-0.6,0c-0.1,0-0.2,0-0.3,0
	c-48.5,0-96.4,12.6-138.5,36.3c-39.2,22.1-72.9,53.5-97.9,91c-28.1-19.4-53.6-41.5-77.7-67.5c66.2-83.6,152.4-150.9,249.6-194.8
	c32.6,28.5,56.7,65.7,69.6,107.6c0.7,2.4,3.3,3.7,5.6,3c2.4-0.7,3.7-3.2,3-5.6c-13.4-43.7-38.5-82.3-72.6-112
	c-0.2-0.7-0.7-1.3-1.2-1.8C373.5,22.75,314.2,0.15,252,0.15c-21,0-41,2.6-59.2,7.8c-1.5,0.4-16.9,4.1-30.7,9.5
	c-1-0.3-2.1-0.3-3.1,0.1c-40.2,15.9-76.3,43-104.3,78.2c0,0,0,0.1-0.1,0.1c-0.3,0.2-0.6,0.5-0.8,0.8c-35.1,44.2-53.8,98-53.8,155.5
	v6c0,0.1,0,0.1,0,0.2c0,0.1,0,0.1,0,0.2c0,0.3,0.1,0.5,0.1,0.8c0,0,0,0,0,0.1c0.1,0.2,0.2,0.5,0.3,0.7v0.1v0.1
	c0.1,0.1,0.1,0.2,0.2,0.3c0,0.1,0.1,0.1,0.1,0.2c0.1,0.1,0.1,0.2,0.2,0.3c0.1,0.1,0.1,0.1,0.2,0.2c0.1,0.1,0.2,0.2,0.3,0.3
	c0.1,0.1,0.2,0.2,0.4,0.3c0.1,0.1,0.2,0.1,0.3,0.2l0,0c0.1,0.1,0.3,0.1,0.4,0.2l0.1,0.1c0.1,0.1,0.3,0.1,0.4,0.2
	c0.1,0,0.1,0,0.2,0.1c0.4,0.1,0.8,0.2,1.2,0.2c0.5,0,1-0.1,1.5-0.3c0.2-0.1,0.3-0.1,0.5-0.2c3.9-1.9,7.7-4,11.5-6.1
	c14.8-8.2,28.8-17.6,41.7-28c13.4-10.7,25.8-22.6,37.1-35.6c15.2,25.7,33.3,50.2,55.1,74.9c-33.5,43.6-62,91.6-84.9,142.8
	c-28.6-33.5-47.5-74.3-54.5-118.9c-0.4-2.5-2.7-4.1-5.1-3.7c-2.5,0.4-4.1,2.7-3.7,5.1c7.7,48.8,29.1,93.3,61.7,128.6
	c0.5,0.6,1.2,0.9,1.9,1.2c26.6,29.3,60.4,52,98,65.7c2.3,0.8,4.9-0.4,5.8-2.7c0.8-2.3-0.4-4.9-2.7-5.8
	c-36.1-13.1-68.6-34.8-94.1-62.9c21-49,49.4-97,84.4-142.7c26.2,27.5,52,50,78.5,68.3c-27.6,45.6-41.6,95.2-41.6,147.4
	c0,0.7,0.2,1.4,0.5,2c0,0,0,0.1,0.1,0.1c-0.9,1.7-0.7,3.9,0.8,5.3c0.9,0.9,2,1.3,3.2,1.3c0.1,0,0.2,0,0.3,0
	c16.1,3.4,34,5.1,51.8,5.1c35.7,0,70.2-7.3,102.6-21.8c31.3-14,59-33.8,82.4-59l0,0l0,0C480.2,376.55,504,315.75,504,252.15z
	 M432.1,415.35c-0.7-0.1-1.3-0.3-2-0.4c-1-0.2-2-0.4-3-0.6c-0.9-0.2-1.9-0.4-2.8-0.6c-1.2-0.2-2.4-0.5-3.6-0.7
	c-0.7-0.2-1.4-0.3-2.1-0.5c-1.4-0.3-2.9-0.6-4.3-1c-0.4-0.1-0.8-0.2-1.1-0.3c-1.8-0.4-3.5-0.8-5.3-1.2c0,0,0,0-0.1,0
	c-15.9-3.9-31.7-8.6-47.2-14.1c-38.5-13.7-75.4-32.2-110.2-55.5c51.1-77.5,136.3-123.7,228.8-123.9c2.7,0,5.2,0.2,7.9,0.4
	c1.6,0.1,3.2,0.2,4.9,0.3c1.5,11.3,2.9,22.9,2.9,34.9C495,312.65,472.7,370.55,432.1,415.35z M88.5,188.25c-0.9,1-1.8,2-2.7,3
	c-0.7,0.7-1.3,1.4-2,2.2c-1,1-2,2.1-3,3.1c-0.6,0.7-1.3,1.3-1.9,2c-1.1,1.1-2.3,2.3-3.4,3.4c-0.5,0.5-1,1-1.6,1.5
	c-1.7,1.6-3.4,3.2-5.1,4.8c-0.2,0.2-0.3,0.3-0.5,0.5c-1.5,1.4-3.1,2.8-4.7,4.2c-0.6,0.5-1.2,1-1.8,1.6c-1.2,1-2.3,2-3.5,3
	c-0.7,0.6-1.4,1.2-2.2,1.8c-1.1,0.9-2.2,1.8-3.3,2.6c-0.8,0.6-1.6,1.2-2.3,1.8c-1.1,0.8-2.1,1.6-3.2,2.5c-0.8,0.6-1.6,1.2-2.5,1.8
	c-1.1,0.8-2.1,1.6-3.2,2.3c-0.8,0.6-1.7,1.2-2.5,1.8c-1.1,0.8-2.2,1.5-3.3,2.3c-0.8,0.6-1.7,1.2-2.6,1.7c-1.1,0.7-2.3,1.5-3.4,2.2
	c-0.8,0.5-1.7,1.1-2.5,1.6c-1.2,0.7-2.4,1.5-3.6,2.2c-0.8,0.5-1.6,1-2.5,1.5c-1.3,0.8-2.6,1.5-4,2.3c-0.7,0.4-1.4,0.8-2.2,1.3
	c-1.8,1-3.6,2-5.4,3c-0.3,0.2-0.6,0.3-0.9,0.5c0,0,0,0-0.1,0c0.3-52.2,16.5-101.1,47-142.2c10.8,27.9,22.6,52.8,36,75.7
	c-0.5,0.6-1,1.2-1.5,1.8C89.9,186.75,89.2,187.55,88.5,188.25z M195,16.75c0.1,0,0.1,0,0.2-0.1c17.4-5,36.5-7.5,56.8-7.5
	c57.5,0,112.4,20,155.3,56.3c-97.3,44.8-183.1,111.8-249,194.5c-21.7-24.6-39.6-49.2-54.5-74.8c36.8-45.5,58.2-100.5,62-159.5
	C179.3,20.45,194.9,16.75,195,16.75z M155.7,28.65c-4.4,54.3-24.2,105-57.6,147.3c-13.9-24.1-25.3-49.3-34.8-76.6
	C88.6,68.35,120.4,43.95,155.7,28.65z M252,495.15c-16,0-32-1.5-46.7-4.3c0.1-49.9,14-99.1,40.4-142.7c31.8,21.6,66.6,39.4,103,53.1
	c0.2,0.1,0.3,0.1,0.5,0.2c1.3,0.5,2.7,1,4,1.5c1,0.4,1.9,0.7,2.9,1.1c0.7,0.2,1.4,0.5,2.1,0.7c1.6,0.6,3.3,1.2,4.9,1.7
	c0.1,0,0.3,0.1,0.4,0.1c18.4,6.3,37.1,11.4,56.2,15.5c0.5,0.1,1,0.2,1.5,0.3c1.2,0.2,2.3,0.5,3.5,0.7
	C379.1,468.95,316.6,495.15,252,495.15z"/>
</svg>