<?xml version="1.0" encoding="iso-8859-1"?>
<!-- Uploaded to: SVG Repo, www.svgrepo.com, Generator: SVG Repo Mixer Tools -->
<svg height="800px" width="800px" version="1.1" id="Layer_1" xmlns="http://www.w3.org/2000/svg" xmlns:xlink="http://www.w3.org/1999/xlink" 
	 viewBox="0 0 503.174 503.174" xml:space="preserve">
<g transform="translate(3 9)">
	<path style="fill:#F2EDDA;" d="M453.241,455.067c23.893,0,42.667-18.773,42.667-42.667s-18.773-42.667-42.667-42.667
		c-23.893,0-42.667,18.773-42.667,42.667S429.347,455.067,453.241,455.067z M333.774,455.067c23.893,0,42.667-18.773,42.667-42.667
		s-18.773-42.667-42.667-42.667c-23.893,0-42.667,18.773-42.667,42.667S309.88,455.067,333.774,455.067z M214.307,455.067
		c23.893,0,42.667-18.773,42.667-42.667s-18.773-42.667-42.667-42.667s-42.667,18.773-42.667,42.667
		S190.414,455.067,214.307,455.067z M94.84,455.067c23.893,0,42.667-18.773,42.667-42.667s-18.773-42.667-42.667-42.667
		S52.174,388.507,52.174,412.4S70.947,455.067,94.84,455.067z"/>
	<g>
		<path style="fill:#FFE079;" d="M342.307,190.534l68.267,17.067c-17.067,51.2-17.067,93.867-17.067,93.867V335.6H52.174
			C18.04,310,18.04,284.4,18.04,284.4V62.534c59.733-25.6,136.533-25.6,136.533-25.6v51.2c0,90.453,62.293,157.867,136.533,180.053
			c17.067,5.12,51.2-9.387,51.2-43.52V190.534z"/>
		<path style="fill:#FFE079;" d="M308.174,181.147L308.174,181.147l-23.893,40.96c-2.56,4.267-7.68,5.12-11.947,3.413l-14.507-8.533
			c-4.267-2.56-5.12-7.68-3.413-11.947l22.187-38.4C285.987,172.614,296.227,176.88,308.174,181.147z M262.094,154.694
			l-36.693,21.333c-4.267,2.56-9.387,0.853-11.947-3.413l-8.533-14.507c-2.56-4.267-0.853-9.387,3.413-11.947l36.693-21.333
			C248.441,135.921,253.561,146.16,262.094,154.694z M197.241,71.067h43.52c-0.853,5.973-0.853,11.947-0.853,17.067
			c0,5.973,0,11.947,0.853,17.067h-43.52c-5.12,0-8.533-4.267-8.533-8.533V79.6C188.707,75.334,192.12,71.067,197.241,71.067z"/>
	</g>
	<path style="fill:#C49AE9;" d="M342.307,190.534v34.133c0,34.133-34.987,48.64-51.2,43.52
		c-74.24-22.187-136.533-89.6-136.533-180.053v-51.2l93.867-8.533c0,0-5.12,21.333-7.68,42.667h-43.52
		c-5.12,0-8.533,4.267-8.533,8.533v17.067c0,4.267,3.413,8.533,8.533,8.533h43.52c0.853,6.827,1.707,13.653,4.267,19.627
		l-36.693,21.333c-4.267,2.56-5.12,7.68-3.413,11.947l8.533,14.507c2.56,4.267,7.68,5.12,11.947,3.413l36.693-21.333
		c4.267,4.267,9.387,8.533,15.36,12.8l-22.187,38.4c-2.56,4.267-0.853,9.387,3.413,11.947l14.507,8.533
		c4.267,2.56,9.387,0.853,11.947-3.413l23.893-40.107V182C318.414,184.56,329.507,187.974,342.307,190.534"/>
	<path style="fill:#AAB1BA;" d="M478.841,284.4c0,0,0,34.133-8.533,51.2h-76.8v-34.133c0,0,0-42.667,17.067-93.867
		C470.307,224.667,478.841,246.854,478.841,284.4"/>
</g>
<path style="fill:#51565F;" d="M456.241,468.334c-10.24,0-19.627-3.413-28.16-9.387c-1.707-1.707-2.56-4.267-0.853-5.973
	c1.707-1.707,4.267-2.56,5.973-0.853c6.827,5.12,14.507,7.68,23.04,7.68c21.333,0,38.4-17.067,38.4-38.4
	c0-21.333-17.067-38.4-38.4-38.4c-19.627,0-35.84,15.36-38.4,34.133h38.4c2.56,0,4.267,1.707,4.267,4.267
	c0,2.56-1.707,4.267-4.267,4.267H55.174c-2.56,0-4.267-1.707-4.267-4.267c0-25.6,21.333-46.933,46.933-46.933
	c24.747,0,44.373,18.773,46.933,42.667h25.6c2.56-23.893,22.187-42.667,46.933-42.667s44.373,18.773,46.933,42.667h25.6
	c2.56-23.893,22.187-42.667,46.933-42.667c24.747,0,44.373,18.773,46.933,42.667h25.6c2.56-23.893,22.187-42.667,46.933-42.667
	c25.6,0,46.933,21.333,46.933,46.933C503.174,447,481.841,468.334,456.241,468.334z M298.374,417.134h75.947
	C371.76,398.36,355.547,383,335.92,383C316.294,383,300.934,398.36,298.374,417.134z M178.907,417.134h75.947
	C253.147,398.36,236.08,383,216.454,383S181.467,398.36,178.907,417.134z M59.441,417.134h75.947
	C133.68,398.36,116.614,383,96.987,383S62,398.36,59.441,417.134z M336.774,468.334c-10.24,0-19.627-3.413-28.16-9.387
	c-1.707-1.707-2.56-4.267-0.853-5.973c1.707-1.707,4.267-2.56,5.973-0.853c13.653,10.24,32.427,10.24,45.227,0
	c1.707-1.707,4.267-0.853,5.973,0.853c1.707,1.707,0.853,4.267-0.853,5.973C356.401,464.921,347.014,468.334,336.774,468.334z
	 M217.307,468.334c-10.24,0-19.627-3.413-28.16-9.387c-1.707-1.707-2.56-4.267-0.853-5.973c1.707-1.707,4.267-2.56,5.973-0.853
	c13.653,10.24,32.427,10.24,45.227,0c1.707-1.707,4.267-0.853,5.973,0.853c1.707,1.707,0.853,4.267-0.853,5.973
	C236.934,464.921,227.547,468.334,217.307,468.334z M97.84,468.334c-10.24,0-19.627-3.413-28.16-9.387
	c-1.707-1.707-2.56-4.267-0.853-5.973c1.707-1.707,4.267-2.56,5.973-0.853c13.653,10.24,32.427,10.24,45.227,0
	c1.707-1.707,4.267-0.853,5.973,0.853c1.707,1.707,0.853,4.267-0.853,5.973C117.467,464.921,108.081,468.334,97.84,468.334z
	 M3.974,408.6c-0.853,0-1.707,0-2.56-0.853c-1.707-1.707-1.707-4.267-0.853-5.973l51.2-59.733c0.853-0.853,1.707-1.707,3.413-1.707
	h415.573c6.827-16.213,6.827-46.933,6.827-46.933c0-36.693-8.533-55.467-61.44-71.68c-15.36,47.787-15.36,87.893-15.36,88.747
	c0,2.56-1.707,4.267-4.267,4.267l0,0c-2.56,0-4.267-1.707-4.267-4.267c0-1.707,0-41.813,16.213-90.453l-64-16.213
	c-11.093-2.56-21.333-5.12-30.72-8.533l-22.187,38.4c-1.707,2.56-4.267,5.12-7.68,5.973c-3.413,0.853-6.827,0-9.387-1.707
	l-14.507-8.533c-2.56-1.707-5.12-4.267-5.973-7.68s0-6.827,1.707-9.387l20.48-34.987c-3.413-2.56-7.68-5.12-10.24-8.533
	l-33.28,19.627c-5.973,3.413-13.653,1.707-17.067-4.267l-8.533-14.507c-3.413-5.973-1.707-13.653,4.267-17.067l33.28-19.627
	c-0.853-4.267-1.707-8.533-2.56-13.653h-40.107c-6.827,0-12.8-5.973-12.8-12.8V89.453c0-6.827,5.973-12.8,12.8-12.8h40.107
	C243.76,63,246.32,50.2,248.027,43.373l-36.693,3.413c-2.56,0-4.267-1.707-4.267-3.413c0-2.56,1.707-4.267,3.413-4.267l42.667-4.267
	c1.707,0,2.56,0,3.413,1.707c0.853,0.853,0.853,2.56,0.853,3.413c0,0-8.533,34.133-8.533,58.88c0,5.973,0,11.093,0.853,16.213
	c0,0,0,0,0,0.853c0.853,6.827,1.707,12.8,3.413,17.92v0.853c3.413,10.24,8.533,18.773,15.36,26.453c0.853,0,0.853,0.853,0.853,0.853
	c3.413,3.413,7.68,6.827,12.8,10.24c0.853,0,0.853,0,1.707,0.853c0.853,0,0.853,0.853,1.707,1.707
	c15.36,9.387,35.84,16.213,62.293,22.187l68.267,17.067l0,0c60.587,17.067,70.827,40.107,70.827,81.067
	c0,1.707,0,34.987-9.387,52.907c-0.853,1.707-2.56,2.56-3.413,2.56H57.734L7.387,408.6C6.534,407.747,4.827,408.6,3.974,408.6z
	 M281.307,181.614L261.68,216.6c-0.853,0.853-0.853,2.56-0.853,3.413c0,0.853,0.853,1.707,1.707,2.56l14.507,8.533
	c0.853,0.853,2.56,0.853,3.413,0c0.853,0,1.707-0.853,2.56-1.707l21.333-36.693C296.667,189.294,288.987,185.88,281.307,181.614z
	 M245.467,139.8l-31.573,18.773c-1.707,0.853-2.56,3.413-1.707,5.973l8.533,14.507c0.853,1.707,3.413,2.56,5.973,1.707
	l31.573-18.773C252.294,156.014,248.027,148.334,245.467,139.8z M200.241,84.334c-2.56,0-4.267,1.707-4.267,4.267v17.067
	c0,2.56,1.707,4.267,4.267,4.267h39.253c0-4.267-0.853-8.533-0.853-12.8c0-4.267,0-8.533,0.853-12.8H200.241z M29.574,323.267
	c-0.853,0-2.56,0-3.413-0.853c-9.387-9.387-9.387-28.16-9.387-29.013V71.534c0-1.707,0.853-3.413,2.56-4.267
	c59.733-25.6,134.827-25.6,138.24-25.6c2.56,0,4.267,1.707,4.267,4.267v51.2c0,94.72,67.413,156.16,133.12,175.787
	c6.827,1.707,19.627,0,29.867-7.68c6.827-5.12,16.213-15.36,16.213-31.573c0-2.56,1.707-4.267,4.267-4.267s4.267,1.707,4.267,4.267
	c0,15.36-6.827,29.013-19.627,38.4c-11.947,8.533-26.453,11.947-37.547,9.387c-69.12-20.48-139.947-85.333-139.947-184.32V50.2
	c-16.213,0.853-78.507,3.413-128,23.893V293.4c0,0,0,15.36,7.68,22.187c1.707,1.707,1.707,4.267,0,5.973
	C32.134,323.267,30.427,323.267,29.574,323.267z"/>
</svg>