<?xml version="1.0" encoding="iso-8859-1"?>
<!-- Uploaded to: SVG Repo, www.svgrepo.com, Generator: SVG Repo Mixer Tools -->
<svg height="800px" width="800px" version="1.1" id="Layer_1" xmlns="http://www.w3.org/2000/svg" xmlns:xlink="http://www.w3.org/1999/xlink" 
	 viewBox="0 0 504.438 504.438" xml:space="preserve">
<g transform="translate(1 1)">
	<path style="fill:#AAB1BA;" d="M319.635,80.443l-25.6,25.6l-25.6,25.6l-25.6-25.6l51.2-51.2L319.635,80.443z M447.635,208.443
		l-51.2,51.2l-25.6-25.6l25.6-25.6l25.6-25.6L447.635,208.443z M131.902,268.176l-25.6,25.6l-25.6,25.6l-25.6-25.6l51.2-51.2
		L131.902,268.176z M259.902,396.176l-51.2,51.2l-25.6-25.6l25.6-25.6l25.6-25.6L259.902,396.176z"/>
	<path style="fill:#80D6FA;" d="M396.435,208.443l25.6-25.6l25.6,25.6l25.6-25.6c36.693-43.52,34.133-105.813-6.827-146.773
		c-40.96-40.96-103.253-43.52-146.773-6.827l-25.6,25.6l25.6,25.6l-25.6,25.6l-25.6,25.6l-25.6-25.6L106.302,242.576l25.6,25.6
		l-25.6,25.6l102.4,102.4l25.6-25.6l25.6,25.6l136.533-136.533l-25.6-25.6L396.435,208.443z M208.702,396.176l-25.6,25.6l25.6,25.6
		c-0.853,0.853-24.747,27.307-25.6,28.16c-43.52,34.133-106.667,30.72-146.773-9.387c-40.96-40.96-43.52-103.253-6.827-146.773
		l25.6-25.6l25.6,25.6l25.6-25.6L208.702,396.176z"/>
	<path style="fill:#FFE079;" d="M251.369,208.443c23.893,0,42.667,18.773,42.667,42.667s-18.773,42.667-42.667,42.667
		s-42.667-18.773-42.667-42.667S227.475,208.443,251.369,208.443"/>
</g>
<path style="fill:#51565F;" d="M115.835,503.843c-29.867,0-58.88-11.093-81.92-34.133c-42.667-42.667-45.227-109.227-6.827-155.307
	c0.853-0.853,1.707-1.707,3.413-1.707c0.853,0,2.56,0,3.413,0.853l156.16,156.16c0.853,0.853,1.707,1.707,0.853,3.413
	c0,0.853-0.853,2.56-1.707,3.413c-0.853,0.853-1.707,1.707-2.56,2.56C166.182,496.163,140.582,503.843,115.835,503.843z
	 M31.355,323.79c-32.427,42.667-29.013,101.547,9.387,139.947c37.547,37.547,98.133,41.813,139.947,9.387L31.355,323.79z
	 M209.702,452.643c-0.853,0-2.56,0-3.413-0.853l-25.6-25.6c-1.707-1.707-1.707-4.267,0-5.973l22.187-22.187l-96.427-96.427
	L84.262,323.79c-1.707,1.707-4.267,1.707-5.973,0l-25.6-25.6c-0.853-0.853-0.853-1.707-0.853-3.413s0.853-2.56,0.853-3.413
	l51.2-51.2c1.707-1.707,4.267-1.707,5.973,0l25.6,25.6c0.853,0.853,0.853,1.707,0.853,3.413c0,1.707-0.853,2.56-0.853,3.413
	l-22.187,22.187l96.427,96.427l22.187-22.187c1.707-1.707,4.267-1.707,5.973,0l25.6,25.6c1.707,1.707,1.707,4.267,0,5.973
	l-51.2,51.2C212.262,452.643,210.555,452.643,209.702,452.643z M190.075,422.776l19.627,19.627l45.227-45.227l-19.627-19.627
	L190.075,422.776z M62.075,294.776l19.627,19.627l45.227-45.227l-19.627-19.627L62.075,294.776z M286.502,375.843
	c-0.853,0-2.56,0-3.413-0.853c-0.853-0.853-0.853-1.707-0.853-3.413s0-2.56,0.853-3.413l85.333-85.333
	c1.707-1.707,4.267-1.707,5.973,0c0.853,0.853,0.853,1.707,0.853,3.413s0,2.56-0.853,3.413l-85.333,85.333
	C289.062,375.843,287.355,375.843,286.502,375.843z M252.369,299.043c-25.6,0-46.933-21.333-46.933-46.933
	s21.333-46.933,46.933-46.933s46.933,21.333,46.933,46.933S277.969,299.043,252.369,299.043z M252.369,213.71
	c-21.333,0-38.4,17.067-38.4,38.4s17.067,38.4,38.4,38.4s38.4-17.067,38.4-38.4S273.702,213.71,252.369,213.71z M397.435,264.91
	c-0.853,0-2.56,0-3.413-0.853l-25.6-25.6c-0.853-0.853-0.853-1.707-0.853-3.413s0.853-2.56,0.853-3.413l22.187-22.187
	l-96.427-96.427l-22.187,22.187c-1.707,1.707-4.267,1.707-5.973,0l-25.6-25.6c-1.707-1.707-1.707-4.267,0-5.973l51.2-51.2
	c1.707-1.707,4.267-1.707,5.973,0l25.6,25.6c1.707,1.707,1.707,4.267,0,5.973l-22.187,22.187l96.427,96.427l22.187-22.187
	c1.707-1.707,4.267-1.707,5.973,0l25.6,25.6c0.853,0.853,0.853,1.707,0.853,3.413s-0.853,2.56-0.853,3.413l-51.2,51.2
	C399.995,264.91,398.289,264.91,397.435,264.91z M377.809,235.043l19.627,19.627l45.227-45.227l-19.627-19.627L377.809,235.043z
	 M249.809,107.043l19.627,19.627l45.227-45.227l-19.627-19.627L249.809,107.043z M132.902,222.243c-0.853,0-2.56,0-3.413-0.853
	c-0.853-0.853-0.853-1.707-0.853-3.413c0-1.707,0-2.56,0.853-3.413l85.333-85.333c1.707-1.707,4.267-1.707,5.973,0
	c0.853,0.853,0.853,1.707,0.853,3.413s0,2.56-0.853,3.413l-85.333,85.333C135.462,222.243,133.755,222.243,132.902,222.243z
	 M474.235,191.523c-0.853,0-2.56-0.853-3.413-0.853L313.809,34.51c-0.853-0.853-1.707-1.707-0.853-3.413
	c0-0.853,0.853-2.56,1.707-3.413c45.227-38.4,113.493-35.84,156.16,6.827c41.813,41.813,45.227,110.08,6.827,155.307
	C476.795,190.67,475.089,191.523,474.235,191.523L474.235,191.523z M323.195,31.096L473.382,180.43
	c32.427-41.813,28.16-102.4-9.387-140.8C426.449,2.083,365.862-1.33,323.195,31.096z"/>
</svg>