<?xml version="1.0" encoding="iso-8859-1"?>
<!-- Uploaded to: SVG Repo, www.svgrepo.com, Generator: SVG Repo Mixer Tools -->
<svg height="800px" width="800px" version="1.1" id="Layer_1" xmlns="http://www.w3.org/2000/svg" xmlns:xlink="http://www.w3.org/1999/xlink" 
	 viewBox="0 0 503.637 503.637" xml:space="preserve">
<g transform="translate(1 1)">
	<path style="fill:#E4F2DE;" d="M492.511,305.517c-10.24,43.52-32.427,85.333-66.56,120.32
		c-34.133,34.133-75.947,56.32-120.32,66.56c-3.413-22.187-13.653-43.52-30.72-60.587l-78.507-78.507
		c-43.52-43.52-43.52-113.493,0-157.013c43.52-43.52,113.493-43.52,157.013,0l78.507,78.507
		C448.991,291.864,470.324,302.104,492.511,305.517z M162.271,19.651c14.507,39.253,5.973,85.333-25.6,116.053
		c-31.573,31.573-76.8,40.107-116.053,25.6c11.947-31.573,30.72-60.587,55.467-86.187C101.684,50.371,130.698,32.451,162.271,19.651
		z"/>
	<path style="fill:#E4F2DE;" d="M425.951,75.971c52.907,52.907,76.8,124.587,71.68,194.56c0,0-1.707,18.773-5.12,35.84l0,0
		c-22.187-3.413-43.52-13.653-60.587-30.72l-78.507-78.507c-43.52-43.52-113.493-43.52-157.013,0s-43.52,113.493,0,157.013
		l78.507,78.507c17.067,17.067,27.307,38.4,30.72,60.587c-15.36,3.413-35.84,5.12-35.84,5.12
		c-69.973,5.12-141.653-18.773-194.56-71.68c-62.293-62.293-84.48-149.333-66.56-228.693c0,0,5.12-19.627,10.24-34.987
		c39.253,14.507,84.48,5.973,116.053-25.6c31.573-31.573,40.107-76.8,25.6-116.053c15.36-6.827,34.133-10.24,34.133-10.24
		C276.618-8.509,363.658,13.677,425.951,75.971"/>
</g>
<path style="fill:#51565F;" d="M252.018,503.637c-66.56,0-130.56-26.453-178.347-73.387c-61.44-61.44-86.187-148.48-67.413-232.96
	c0.853-2.56,2.56-3.413,5.12-3.413c2.56,0.853,3.413,2.56,3.413,5.12c-17.92,81.92,5.973,165.547,65.707,225.28
	c50.347,50.347,120.32,75.947,191.147,70.827c2.56,0,4.267,1.707,4.267,4.267c0,2.56-1.707,4.267-4.267,4.267
	C265.671,503.637,258.844,503.637,252.018,503.637z M306.631,497.664c-0.853,0-1.707,0-2.56-0.853s-1.707-1.707-1.707-2.56
	c-3.413-22.187-13.653-41.813-29.867-58.027l-78.507-78.507c-45.227-45.227-45.227-117.76,0-162.987
	c21.333-21.333,50.347-34.133,81.067-34.133s59.733,11.947,81.067,34.133l78.507,78.507c15.36,15.36,35.84,26.453,58.027,29.867
	c0.853,0,2.56,0.853,2.56,1.707s0.853,2.56,0.853,3.413c-10.24,46.08-34.133,88.747-67.413,122.027S352.711,487.424,306.631,497.664
	C307.484,497.664,307.484,497.664,306.631,497.664z M275.911,169.131c-28.16,0-55.467,11.093-75.093,31.573
	c-41.813,41.813-41.813,109.227,0,151.04l78.507,78.507c16.213,16.213,26.453,35.84,31.573,58.027
	c42.667-10.24,81.92-32.427,113.493-64s53.76-70.827,64-113.493c-22.187-4.267-41.813-15.36-58.027-31.573l-78.507-78.507
	C331.378,180.224,304.924,169.131,275.911,169.131z M498.631,274.944L498.631,274.944c-2.56,0-4.267-2.56-4.267-4.267
	c5.12-70.827-20.48-140.8-70.827-191.147c-59.733-59.733-143.36-83.627-226.133-64.853c-2.56,0.853-4.267-0.853-5.12-3.413
	c-0.853-2.56,0.853-4.267,3.413-5.12c84.48-18.773,172.373,5.973,233.813,67.413c52.053,52.053,78.507,123.733,73.387,197.12
	C502.898,273.237,501.191,274.944,498.631,274.944z M59.164,174.251c-12.8,0-26.453-2.56-39.253-6.827
	c-0.853,0-1.707-0.853-2.56-2.56c-0.853-1.707-0.853-2.56,0-3.413c12.8-33.28,31.573-62.293,57.173-87.893
	c24.747-24.747,54.613-44.373,87.893-57.173c0.853,0,2.56,0,3.413,0c0.853,0.853,1.707,1.707,2.56,2.56
	c15.36,41.813,5.12,89.6-26.453,121.173C118.898,162.304,89.031,174.251,59.164,174.251z M26.738,160.597
	c37.547,11.947,79.36,1.707,107.52-26.453c28.16-28.16,38.4-69.973,26.453-107.52c-29.867,11.947-57.173,29.867-80.213,53.76
	C56.604,103.424,38.684,129.877,26.738,160.597z"/>
</svg>